<svg width="60" height="60" viewBox="0 0 60 60" fill="none" xmlns="http://www.w3.org/2000/svg">
<g clip-path="url(#clip0_1642_1310)">
<path d="M50.4297 19.1816C50.2492 18.7474 49.8574 18.4668 49.4316 18.4668H48.5682C48.1424 18.4668 47.7508 18.7475 47.5702 19.1816C47.3896 19.6159 47.449 20.1345 47.7216 20.5028L48.1531 21.0862C48.3632 21.3703 48.6718 21.5331 49 21.5331C49.3281 21.5331 49.6367 21.3703 49.8467 21.0863L50.2784 20.5028C50.5509 20.1345 50.6103 19.6159 50.4297 19.1816Z" fill="#FE9015"/>
<path d="M45.2698 15.9463C44.9616 15.9463 44.6592 16.0717 44.4413 16.2896C44.2233 16.5088 44.0979 16.81 44.0979 17.1182C44.0979 17.4275 44.2233 17.7287 44.4413 17.9467C44.6592 18.1658 44.9616 18.2913 45.2698 18.2913C45.578 18.2913 45.8803 18.1659 46.0983 17.9467C46.3163 17.7299 46.4417 17.4275 46.4417 17.1182C46.4417 16.81 46.3163 16.5076 46.0983 16.2896C45.8803 16.0717 45.578 15.9463 45.2698 15.9463Z" fill="#FE9015"/>
<path d="M52.4963 18.29C52.8045 18.29 53.1069 18.1658 53.3249 17.9467C53.5428 17.7287 53.6682 17.4275 53.6682 17.1182C53.6682 16.81 53.5428 16.5076 53.3249 16.2896C53.1069 16.0717 52.8045 15.9463 52.4963 15.9463C52.187 15.9463 51.8858 16.0717 51.6667 16.2896C51.4487 16.5076 51.3245 16.81 51.3245 17.1182C51.3245 17.4275 51.4487 17.7287 51.6667 17.9467C51.8846 18.1658 52.187 18.29 52.4963 18.29Z" fill="#FE9015"/>
<path d="M52.3875 28.1076C56.7423 27.1028 60 23.1963 60 18.5407C60 16.4826 59.3479 14.47 58.1524 12.8074C58.288 12.2243 58.3802 11.6291 58.4273 11.0309C58.5037 10.0597 58.462 9.08404 58.3035 8.13072C58.1944 7.47517 57.7971 6.9156 57.2136 6.59556C56.63 6.27541 55.9445 6.24107 55.333 6.50134C54.0041 7.06689 52.8067 7.85556 51.7655 8.85049C51.2393 8.76424 50.7083 8.72076 50.1799 8.72076H47.5854C47.0609 8.72076 46.5338 8.76365 46.0113 8.84861C44.9706 7.85463 43.7738 7.06654 42.4457 6.50134C41.8339 6.24107 41.1485 6.27541 40.5649 6.59568C39.9814 6.91584 39.5843 7.47541 39.4752 8.13084C39.3165 9.08404 39.2748 10.0597 39.3512 11.0311C39.3981 11.6242 39.4891 12.2147 39.6228 12.7933C39.1755 13.4131 38.8042 14.0819 38.5138 14.7836H21.9532C19.5723 14.7836 17.2779 15.2883 15.1339 16.2836C14.547 16.5561 14.292 17.2529 14.5645 17.8399C14.7629 18.2672 15.1862 18.5187 15.6282 18.5187C15.7935 18.5187 15.9613 18.4835 16.121 18.4095C17.9535 17.5587 19.9158 17.1273 21.9533 17.1273H37.8698C37.8018 17.5937 37.7654 18.0659 37.7654 18.5408C37.7654 23.9556 42.1707 28.3609 47.5855 28.3609H49.9069C49.0368 31.3705 47.014 33.9197 44.2613 35.4585L43.6396 34.1306C43.365 33.5445 42.6674 33.2918 42.0813 33.5663C41.4952 33.8407 41.2425 34.5383 41.517 35.1245L44.681 41.8824C44.7381 42.0041 44.8155 42.1151 44.9102 42.2106L46.2752 43.5872C46.5921 43.9069 46.4923 44.2634 46.4346 44.4018C46.377 44.5402 46.1941 44.8621 45.744 44.8621H42.4119C42.4119 44.8621 29.7334 28.4417 29.7034 28.4106C27.9806 26.2504 25.3289 24.862 22.3575 24.862C21.7103 24.862 21.1856 25.3867 21.1856 26.0339C21.1856 26.6811 21.7103 27.2058 22.3575 27.2058C26.2453 27.2058 29.4083 30.3688 29.4083 34.2566C29.4083 36.4859 28.3349 38.6085 26.5368 39.9346C26.1294 40.2351 25.961 40.763 26.1191 41.2438C26.2773 41.7246 26.7261 42.0496 27.2323 42.0496H29.094C30.8834 42.0496 32.4011 43.2352 32.9025 44.8621H21.9532C14.3067 44.8619 8.08594 38.641 8.08594 30.9945C8.08594 28.9692 8.51227 27.0178 9.35309 25.1944C9.62414 24.6067 9.36738 23.9106 8.77957 23.6395C8.19199 23.3686 7.49566 23.6252 7.22461 24.2129C6.24094 26.3463 5.74219 28.628 5.74219 30.9945C5.74219 32.4832 5.94492 33.9253 6.3225 35.2957C2.59383 36.6066 0 40.1767 0 44.218C0 49.4312 4.24125 53.6726 9.45457 53.6726H40.8594C41.5066 53.6726 42.0313 53.1479 42.0313 52.5007C42.0313 50.4462 41.2145 48.58 39.8904 47.2056H45.7439C47.0153 47.2056 48.1089 46.4766 48.5979 45.3031C49.0869 44.1294 48.8346 42.8397 47.9393 41.9367L46.7173 40.7044L45.257 37.5856C48.8995 35.6054 51.4991 32.1556 52.3875 28.1076ZM40.1091 18.5406C40.1091 16.8142 40.7116 15.13 41.8058 13.7983C42.05 13.501 42.1328 13.1026 42.0273 12.7327C41.8525 12.1199 41.7383 11.4853 41.6879 10.8468C41.6329 10.1468 41.6539 9.44463 41.7504 8.75568C42.8893 9.27423 43.9036 10.0021 44.7679 10.9217C45.0538 11.2259 45.48 11.355 45.8869 11.2606C46.4475 11.1304 47.019 11.0643 47.5854 11.0643H50.1799C50.7497 11.0643 51.3244 11.1311 51.8881 11.2628C52.2955 11.3581 52.7224 11.2289 53.0088 10.924C53.8736 10.0034 54.8885 9.27482 56.0285 8.7558C56.1251 9.44474 56.1461 10.1469 56.091 10.8468C56.0449 11.4311 55.9455 12.0115 55.7952 12.5751C55.6172 12.9722 55.6712 13.4475 55.9594 13.7983C57.0537 15.13 57.6562 16.8142 57.6562 18.5408C57.6562 22.6634 54.3023 26.0172 50.1799 26.0172H47.5854C43.4629 26.017 40.1091 22.6631 40.1091 18.5406ZM29.9617 39.7649C30.9921 38.3388 31.6145 36.6365 31.7305 34.8598L39.4511 44.862H35.3133C34.8146 42.2098 32.6561 40.1359 29.9617 39.7649ZM9.45457 51.3287C5.53359 51.3287 2.34375 48.1389 2.34375 44.218C2.34375 41.1743 4.29879 38.486 7.10801 37.5035C9.62004 43.2106 15.3285 47.2056 21.9533 47.2056H34.3924C36.9095 47.2056 39.0221 48.971 39.5568 51.3288H9.45457V51.3287Z" fill="#FE9015"/>
<path d="M11.3074 21.5439C11.6168 21.5439 11.918 21.4186 12.1371 21.2006C12.3551 20.9826 12.4793 20.6803 12.4793 20.3721C12.4793 20.0639 12.3551 19.7615 12.1371 19.5436C11.918 19.3256 11.6168 19.2002 11.3074 19.2002C10.9992 19.2002 10.698 19.3256 10.4789 19.5436C10.2609 19.7615 10.1367 20.0639 10.1367 20.3721C10.1367 20.6803 10.2609 20.9826 10.4789 21.2006C10.698 21.4184 10.9992 21.5439 11.3074 21.5439Z" fill="#FE9015"/>
<path d="M32.1707 21.3438C32.4801 21.3438 32.7812 21.2184 33.0004 21.0004C33.2184 20.7824 33.3426 20.4801 33.3426 20.1719C33.3426 19.8637 33.2184 19.5613 33.0004 19.3434C32.7812 19.1254 32.4801 19 32.1707 19C31.8625 19 31.5613 19.1254 31.3422 19.3434C31.1242 19.5613 31 19.8637 31 20.1719C31 20.4801 31.1242 20.7824 31.3422 21.0004C31.5613 21.2182 31.8625 21.3438 32.1707 21.3438Z" fill="#FE9015"/>
<path d="M35.1704 27.1719C35.6984 27.1719 36.2124 26.9579 36.5864 26.5859C36.9584 26.2139 37.1704 25.6979 37.1704 25.1719C37.1704 24.6459 36.9584 24.1299 36.5864 23.7579C36.2124 23.3859 35.6984 23.1719 35.1704 23.1719C34.6444 23.1719 34.1304 23.3859 33.7564 23.7579C33.3844 24.1299 33.1724 24.6459 33.1724 25.1719C33.1724 25.6979 33.3844 26.2139 33.7564 26.5859C34.1304 26.9577 34.6444 27.1719 35.1704 27.1719Z" fill="#FE9015"/>
<path d="M19.1617 23.6875C19.471 23.6875 19.7722 23.5621 19.9914 23.3441C20.2093 23.1262 20.3335 22.8238 20.3335 22.5156C20.3335 22.2074 20.2093 21.9051 19.9914 21.6871C19.7722 21.4691 19.471 21.3438 19.1617 21.3438C18.8535 21.3438 18.5523 21.4691 18.3332 21.6871C18.1152 21.9051 17.991 22.2074 17.991 22.5156C17.991 22.8238 18.1152 23.1262 18.3332 23.3441C18.5523 23.562 18.8535 23.6875 19.1617 23.6875Z" fill="#FE9015"/>
<path d="M20.3331 32.3438C20.6424 32.3438 20.9436 32.2184 21.1627 32.0004C21.3807 31.7824 21.5049 31.4801 21.5049 31.1719C21.5049 30.8637 21.3807 30.5613 21.1627 30.3434C20.9436 30.1254 20.6424 30 20.3331 30C20.0249 30 19.7237 30.1254 19.5045 30.3434C19.2866 30.5613 19.1624 30.8637 19.1624 31.1719C19.1624 31.4801 19.2866 31.7824 19.5045 32.0004C19.7237 32.2182 20.0249 32.3438 20.3331 32.3438Z" fill="#FE9015"/>
<path d="M15.991 29.0115C16.519 29.0115 17.033 28.7975 17.407 28.4255C17.7789 28.0535 17.9909 27.5376 17.9909 27.0116C17.9909 26.4856 17.7789 25.9697 17.407 25.5977C17.033 25.2257 16.519 25.0117 15.991 25.0117C15.4651 25.0117 14.9511 25.2257 14.5771 25.5977C14.2052 25.9697 13.9932 26.4856 13.9932 27.0116C13.9932 27.5376 14.2052 28.0535 14.5771 28.4255C14.9511 28.7973 15.4651 29.0115 15.991 29.0115Z" fill="#FE9015"/>
<path d="M15.9915 34.6875C16.3009 34.6875 16.6021 34.5621 16.8212 34.3441C17.0392 34.1262 17.1634 33.8238 17.1634 33.5156C17.1634 33.2074 17.0392 32.9051 16.8212 32.6871C16.6021 32.4691 16.3009 32.3438 15.9915 32.3438C15.6833 32.3438 15.3821 32.4691 15.163 32.6871C14.945 32.9051 14.8208 33.2074 14.8208 33.5156C14.8208 33.8238 14.945 34.1262 15.163 34.3441C15.3821 34.562 15.6833 34.6875 15.9915 34.6875Z" fill="#FE9015"/>
<path d="M22.6752 38.3672C23.1443 38.3672 23.601 38.1771 23.9333 37.8466C24.2638 37.5161 24.4521 37.0577 24.4521 36.5903C24.4521 36.123 24.2638 35.6646 23.9333 35.3341C23.601 35.0036 23.1443 34.8135 22.6752 34.8135C22.2079 34.8135 21.7513 35.0036 21.419 35.3341C21.0885 35.6646 20.9001 36.123 20.9001 36.5903C20.9001 37.0577 21.0885 37.5161 21.419 37.8466C21.7513 38.1769 22.2079 38.3672 22.6752 38.3672Z" fill="#FE9015"/>
<path d="M30.1707 24.3438C30.4801 24.3438 30.7812 24.2184 31.0004 24.0004C31.2184 23.7824 31.3426 23.4801 31.3426 23.1719C31.3426 22.8637 31.2184 22.5613 31.0004 22.3434C30.7812 22.1254 30.4801 22 30.1707 22C29.8625 22 29.5613 22.1254 29.3422 22.3434C29.1242 22.5613 29 22.8637 29 23.1719C29 23.4801 29.1242 23.7824 29.3422 24.0004C29.5613 24.2182 29.8625 24.3438 30.1707 24.3438Z" fill="#FE9015"/>
<path d="M35.1707 31.3438C35.4801 31.3438 35.7812 31.2184 36.0004 31.0004C36.2184 30.7824 36.3426 30.4801 36.3426 30.1719C36.3426 29.8637 36.2184 29.5613 36.0004 29.3434C35.7812 29.1254 35.4801 29 35.1707 29C34.8625 29 34.5613 29.1254 34.3422 29.3434C34.1242 29.5613 34 29.8637 34 30.1719C34 30.4801 34.1242 30.7824 34.3422 31.0004C34.5613 31.2182 34.8625 31.3438 35.1707 31.3438Z" fill="#FE9015"/>
</g>
<defs>
<clipPath id="clip0_1642_1310">
<rect width="60" height="60" fill="white"/>
</clipPath>
</defs>
</svg>
