<svg width="60" height="60" viewBox="0 0 60 60" fill="none" xmlns="http://www.w3.org/2000/svg">
<path d="M58.8106 4.42746C57.629 2.38085 55.7212 0.916882 53.4384 0.305185C51.1558 -0.306395 48.7717 0.00742229 46.7249 1.1891L33.9308 8.57598C33.391 8.88758 32.7799 9.12546 32.1145 9.28295C30.526 9.65899 29.0094 10.2878 27.6066 11.152C25.0979 12.6976 23.1102 14.9176 21.8437 17.5841L17.1589 20.2889C16.0426 20.9292 15.4288 22.2413 15.6502 23.5055L6.81726 29.2738C4.406 30.8487 3.22374 33.7914 3.87551 36.5966C4.20022 37.9901 4.9359 39.2288 6.00331 40.179C7.07166 41.1297 8.38715 41.7174 9.80764 41.8782L39.3211 45.2132C41.7803 45.4913 43.635 47.5678 43.635 50.0433C43.635 51.3406 43.1295 52.5612 42.212 53.4798C41.2942 54.3975 40.0738 54.9029 38.7754 54.9029H12.1398V54.1998C12.1398 52.746 10.957 51.5632 9.5032 51.5632C8.04943 51.5632 6.86659 52.746 6.86659 54.1998V54.9029H5.7632C5.34416 53.5512 4.04296 52.694 2.61615 52.8517C1.26058 53.0015 0.167973 54.0941 0.0182137 55.4497C-0.0742434 56.2869 0.19305 57.1247 0.751542 57.7482C1.31039 58.3722 2.11109 58.7301 2.94825 58.7301C3.43373 58.7301 3.82711 58.3367 3.82711 57.8512C3.82711 57.3657 3.43373 56.9723 2.94825 56.9723C2.24515 56.9723 1.6883 56.3412 1.76541 55.6426C1.82458 55.1068 2.27327 54.6581 2.80903 54.5989C3.40737 54.5319 3.94992 54.9035 4.10038 55.4795C4.28178 56.175 4.91058 56.6606 5.62973 56.6606H6.86671V57.3637C6.86671 58.8175 8.04955 60.0004 9.50332 60.0004C10.9571 60.0004 12.1399 58.8175 12.1399 57.3637V56.6606H38.7757C40.5436 56.6606 42.2056 55.9724 43.4557 54.7224C44.7049 53.4715 45.393 51.8098 45.393 50.0433C45.393 46.6726 42.8678 43.8454 39.5189 43.4667L10.0056 40.1317C8.94787 40.0119 7.96811 39.5743 7.17244 38.8661C6.37759 38.1586 5.82965 37.2359 5.58802 36.1983C5.10265 34.1096 5.98316 31.9183 7.77874 30.7454L16.437 25.0911C17.4271 26.1599 19.1358 26.4251 20.4135 25.5815C20.5964 27.5789 21.1736 29.5333 22.1116 31.3063C24.8282 36.4411 30.0864 39.47 35.6241 39.4697C37.183 39.4697 38.7645 39.2296 40.3169 38.7289C40.7789 38.58 41.0326 38.0846 40.8836 37.6228C40.7347 37.1609 40.239 36.9068 39.7775 37.0561C33.5229 39.0733 26.7472 36.3095 23.6654 30.4843C22.6303 28.5279 22.0919 26.3209 22.1086 24.1022C22.111 23.7871 21.9445 23.4946 21.672 23.336C21.3993 23.1774 21.063 23.1768 20.7903 23.3344L19.3858 24.1454C18.7425 24.517 17.9166 24.2957 17.545 23.6521C17.1783 23.0171 17.4017 22.1748 18.0382 21.8113L22.9638 18.9673C23.123 18.8755 23.2494 18.7359 23.3251 18.5686C24.4391 16.1068 26.2385 14.0597 28.5288 12.6487C29.7716 11.8831 31.1142 11.3262 32.5196 10.9935C33.3515 10.7966 34.122 10.4954 34.8101 10.0982L47.6043 2.71143C49.2444 1.76447 51.1549 1.51299 52.984 2.00317C54.8131 2.49323 56.3419 3.66635 57.2887 5.30633C58.2355 6.94632 58.4871 8.85687 57.997 10.686C57.4814 12.61 56.1711 14.1379 54.4477 15.1329C51.1939 17.0114 49.1724 20.4688 49.1721 24.1559C49.1716 28.9826 46.5779 33.4784 42.403 35.8886C41.9827 36.1313 41.8387 36.6688 42.0814 37.0891C42.3239 37.5096 42.8618 37.6533 43.2819 37.4108C47.9987 34.6877 50.9293 29.6088 50.9298 24.1561C50.9302 21.0949 52.6149 18.2208 55.3265 16.6552C57.455 15.4264 59.0552 13.5277 59.6948 11.1408C60.3062 8.85828 59.9922 6.47407 58.8106 4.42746ZM10.3821 57.3637C10.3821 57.8484 9.98787 58.2426 9.5032 58.2426C9.01853 58.2426 8.62433 57.8484 8.62433 57.3637V54.1998C8.62433 53.7151 9.01853 53.3209 9.5032 53.3209C9.98787 53.3209 10.3821 53.7151 10.3821 54.1998V57.3637ZM30.5472 16.3236C30.9668 16.0813 31.4071 15.8703 31.8555 15.6966C32.3081 15.5213 32.5328 15.0123 32.3577 14.5596C32.1824 14.1072 31.6735 13.8822 31.2206 14.0575C30.6883 14.2637 30.1659 14.514 29.6683 14.8013C24.3703 17.8603 22.5485 24.6592 25.6075 29.9573C28.6056 35.15 35.5119 37.05 40.7632 34.0181C45.9763 31.0084 47.8172 24.0465 44.8241 18.8623C42.7256 15.2274 38.8177 13.1048 34.6224 13.3286C34.1377 13.3541 33.7655 13.7678 33.7912 14.2526C33.8167 14.7375 34.2291 15.1127 34.7151 15.0839C38.2443 14.8984 41.5356 16.682 43.3018 19.7412C45.821 24.1048 44.2838 29.9557 39.8842 32.4959C35.3636 35.1058 29.6797 33.4953 27.1296 29.0784C24.5554 24.6196 26.0885 18.8978 30.5472 16.3236ZM45.6906 16.2815C46.1409 16.4022 46.5977 16.4618 47.0518 16.4618C47.9575 16.4618 48.8513 16.2243 49.6566 15.7593L53.7421 13.4007C54.951 12.7026 55.816 11.5754 56.1772 10.2269C56.5386 8.87832 56.3531 7.46977 55.6551 6.26068C54.9571 5.05158 53.8301 4.18665 52.4814 3.82537C51.1329 3.46386 49.7243 3.6496 48.5153 4.34754L44.4298 6.70632C41.9338 8.14733 41.0757 11.3503 42.5167 13.8463C43.215 15.0553 44.3422 15.9202 45.6906 16.2815ZM45.3089 8.22854L49.3944 5.86975C49.9289 5.56109 50.5221 5.40348 51.1233 5.40348C51.4245 5.40348 51.7278 5.4432 52.0267 5.52312C52.9218 5.763 53.6698 6.33696 54.1331 7.13955C55.0895 8.79617 54.52 10.9219 52.8634 11.8783L48.778 14.237C47.1214 15.1934 44.9956 14.6238 44.0392 12.9673C43.0828 11.3108 43.6523 9.18499 45.3089 8.22854Z" fill="#FE9015"/>
</svg>
