<svg width="60" height="60" viewBox="0 0 60 60" fill="none" xmlns="http://www.w3.org/2000/svg">
<g clip-path="url(#clip0_568_15135)">
<path d="M56.3541 15.693C52.602 8.78171 46.4271 3.71336 38.9354 1.37804C38.9049 1.36679 38.8743 1.3573 38.8435 1.34957C38.7352 1.31617 38.6278 1.28136 38.5191 1.24914C30.8396 -1.02582 22.7336 -0.174223 15.6945 3.64726C8.65542 7.46886 3.52577 13.8026 1.25069 21.4824C-1.02439 29.1619 -0.172788 37.2679 3.6487 44.307C7.4703 51.346 13.8042 56.4756 21.4838 58.7507C24.3042 59.5863 27.1807 60 30.042 60C34.972 60 39.8544 58.7707 44.3083 56.3527C46.0011 55.4337 47.6073 54.3524 49.0821 53.1389C49.4567 52.8306 49.5106 52.2769 49.2023 51.9021C48.894 51.5275 48.3404 51.4737 47.9655 51.7819C46.5769 52.9244 45.0645 53.9427 43.4699 54.8084C37.1437 58.2429 29.9026 59.1273 22.9686 57.337C25.7334 50.4402 25.0717 42.1204 21.1307 34.861C19.5645 31.9763 17.5762 29.4222 15.2207 27.2697C14.8625 26.9423 14.3067 26.9672 13.9794 27.3256C13.6521 27.6838 13.677 28.2396 14.0353 28.5669C16.246 30.5871 18.1136 32.9869 19.5863 35.6993C23.3097 42.558 23.9214 50.4003 21.2732 56.8452C19.9755 56.4243 18.7211 55.9151 17.5161 55.3243C18.8605 51.0561 20.0994 43.5205 15.6356 36.3584C11.7741 30.1641 5.70792 27.5032 1.99811 26.4072C2.1576 25.1852 2.39678 23.9664 2.71858 22.7574C4.87471 23.1579 6.99874 23.9143 9.04295 25.0125C9.17526 25.0837 9.31752 25.1174 9.45803 25.1174C9.77104 25.1174 10.0742 24.9495 10.2328 24.6544C10.4623 24.2269 10.302 23.6942 9.87452 23.4646C7.72846 22.3117 5.49651 21.5066 3.226 21.0645C5.49452 14.2484 10.189 8.6357 16.533 5.19168C22.9863 1.688 30.3922 0.837457 37.4521 2.77351C34.8353 9.60367 35.5434 17.8085 39.4122 24.9352C43.2703 32.0423 49.7487 37.1024 56.8837 38.6417C55.8648 41.8107 54.2753 44.8299 52.1272 47.542C51.8259 47.9223 51.8901 48.475 52.2705 48.7763C52.6508 49.0775 53.2035 49.0135 53.5048 48.633C60.9774 39.1986 62.0958 26.2688 56.3541 15.693ZM14.144 37.2878C18.136 43.6928 17.1431 50.4779 15.9359 54.4846C11.4374 51.9115 7.72776 48.1369 5.19311 43.4684C2.61452 38.7187 1.47276 33.4532 1.82127 28.1893C5.2912 29.2642 10.692 31.7503 14.144 37.2878ZM57.3712 36.9497C50.6865 35.5491 44.5932 30.7956 40.9567 24.0967C37.3102 17.3799 36.649 9.66695 39.1348 3.29113C40.3064 3.6905 41.4425 4.16054 42.537 4.69996C41.4366 8.36476 40.3489 14.8315 43.3474 21.3989C46.8344 29.0412 53.7598 32.176 58.0312 33.4202C57.8866 34.6076 57.6665 35.7866 57.3712 36.9497ZM44.946 20.6692C42.2715 14.811 43.1346 9.00308 44.1205 5.54593C48.5947 8.11832 52.2851 11.8814 54.8097 16.5314C57.3781 21.2622 58.4872 26.4932 58.1906 31.6337C54.2102 30.4166 48.0588 27.4912 44.946 20.6692Z" fill="#FE9015"/>
</g>
<defs>
<clipPath id="clip0_568_15135">
<rect width="60" height="60" fill="white"/>
</clipPath>
</defs>
</svg>
