<svg width="60" height="60" viewBox="0 0 60 60" fill="none" xmlns="http://www.w3.org/2000/svg">
<g clip-path="url(#clip0_574_2945)">
<path d="M55.3621 11.272H42.1527V2.7593C42.1527 1.23785 40.9148 0 39.3934 0H20.6066C19.0852 0 17.8473 1.23785 17.8473 2.7593V11.272H4.63793C2.08066 11.272 0 13.3527 0 15.91V55.3621C0 57.9193 2.08066 60 4.63793 60H44.5206C45.0069 60 45.4013 59.6057 45.4013 59.1193C45.4013 58.633 45.0069 58.2387 44.5206 58.2387H4.63793C3.0518 58.2387 1.76121 56.9481 1.76121 55.362V31.8199H10.3327V34.6966C10.3327 35.183 10.727 35.5773 11.2133 35.5773H18.728C19.2143 35.5773 19.6086 35.183 19.6086 34.6966V31.8199H40.3914V34.6966C40.3914 35.183 40.7857 35.5773 41.272 35.5773H48.7867C49.273 35.5773 49.6673 35.183 49.6673 34.6966V31.8199H58.2388V55.362C58.2388 56.9481 56.9482 58.2387 55.3621 58.2387H48.8258C48.3395 58.2387 47.9452 58.633 47.9452 59.1193C47.9452 59.6057 48.3395 60 48.8258 60H55.3621C57.9193 60 60 57.9193 60 55.3621V15.91C60 13.3527 57.9193 11.272 55.3621 11.272ZM19.6086 2.7593C19.6086 2.20898 20.0563 1.76121 20.6067 1.76121H39.3934C39.9437 1.76121 40.3915 2.20887 40.3915 2.7593V5.63602H19.6086V2.7593ZM19.6086 7.39723H40.3914V11.272H19.6086V7.39723ZM17.8473 33.8161H12.0939V31.8199H17.8473V33.8161ZM47.906 33.8161H42.1526V31.8199H47.906V33.8161ZM58.2388 30.0587H1.76121V15.91C1.76121 14.3238 3.0518 13.0332 4.63793 13.0332H55.362C56.9481 13.0332 58.2387 14.3238 58.2387 15.91V30.0587H58.2388Z" fill="#FE9015"/>
<path d="M35.636 18.7867H32.7593V15.91C32.7593 15.4236 32.3649 15.0293 31.8786 15.0293H28.1212C27.6349 15.0293 27.2405 15.4236 27.2405 15.91V18.7867H24.3638C23.8775 18.7867 23.4832 19.181 23.4832 19.6673V23.4247C23.4832 23.9111 23.8775 24.3054 24.3638 24.3054H27.2405V27.1821C27.2405 27.6684 27.6349 28.0628 28.1212 28.0628H31.8786C32.3649 28.0628 32.7593 27.6684 32.7593 27.1821V24.3054H35.636C36.1223 24.3054 36.5166 23.9111 36.5166 23.4247V19.6673C36.5166 19.181 36.1223 18.7867 35.636 18.7867ZM34.7553 22.5441H31.8786C31.3923 22.5441 30.9979 22.9384 30.9979 23.4247V26.3014H29.0019V23.4246C29.0019 22.9383 28.6075 22.5439 28.1212 22.5439H25.2445V20.5479H28.1212C28.6075 20.5479 29.0019 20.1536 29.0019 19.6672V16.7906H30.9979V19.6673C30.9979 20.1537 31.3923 20.548 31.8786 20.548H34.7553V22.5441Z" fill="#FE9015"/>
<path d="M30.0001 42.7402C26.0185 42.7402 22.7791 45.9796 22.7791 49.9613C22.7791 53.6007 25.4786 55.7735 30.0001 55.7735C34.5217 55.7735 37.2212 53.6007 37.2212 49.9613C37.2212 45.9796 33.9818 42.7402 30.0001 42.7402ZM30.0001 54.0123C27.9611 54.0123 24.5403 53.486 24.5403 49.9613C24.5403 46.9508 26.9896 44.5014 30.0001 44.5014C33.0107 44.5014 35.46 46.9508 35.46 49.9613C35.46 53.486 32.0392 54.0123 30.0001 54.0123Z" fill="#FE9015"/>
<path d="M26.4773 35.6953C24.6773 35.6953 23.4832 37.9214 23.4832 39.394C23.4832 41.045 24.8262 42.3881 26.4773 42.3881C28.1283 42.3881 29.4714 41.045 29.4714 39.394C29.4714 37.9214 28.2773 35.6953 26.4773 35.6953ZM26.4773 40.6268C25.7975 40.6268 25.2444 40.0738 25.2444 39.3939C25.2444 38.561 25.9473 37.4565 26.4773 37.4565C27.0073 37.4565 27.7102 38.561 27.7102 39.3939C27.7102 40.0738 27.1572 40.6268 26.4773 40.6268Z" fill="#FE9015"/>
<path d="M33.5227 35.6953C31.7227 35.6953 30.5286 37.9214 30.5286 39.394C30.5286 41.045 31.8716 42.3881 33.5227 42.3881C35.1738 42.3881 36.5168 41.045 36.5168 39.394C36.5168 37.9214 35.3227 35.6953 33.5227 35.6953ZM33.5227 40.6268C32.8429 40.6268 32.2898 40.0738 32.2898 39.3939C32.2898 38.561 32.9927 37.4565 33.5227 37.4565C34.0527 37.4565 34.7556 38.561 34.7556 39.3939C34.7555 40.0738 34.2025 40.6268 33.5227 40.6268Z" fill="#FE9015"/>
<path d="M39.1584 39.9219C37.3584 39.9219 36.1643 42.148 36.1643 43.6205C36.1643 45.2716 37.5074 46.6147 39.1584 46.6147C40.8095 46.6147 42.1526 45.2716 42.1526 43.6205C42.1526 42.148 40.9584 39.9219 39.1584 39.9219ZM39.1584 44.8535C38.4786 44.8535 37.9255 44.3005 37.9255 43.6205C37.9255 42.7877 38.6284 41.6832 39.1584 41.6832C39.6885 41.6832 40.3914 42.7877 40.3914 43.6205C40.3913 44.3004 39.8383 44.8535 39.1584 44.8535Z" fill="#FE9015"/>
<path d="M20.8416 39.9219C19.0416 39.9219 17.8474 42.148 17.8474 43.6205C17.8474 45.2716 19.1905 46.6147 20.8416 46.6147C22.4926 46.6147 23.8357 45.2716 23.8357 43.6205C23.8357 42.148 22.6416 39.9219 20.8416 39.9219ZM20.8416 44.8535C20.1617 44.8535 19.6086 44.3005 19.6086 43.6205C19.6086 42.7877 20.3115 41.6832 20.8416 41.6832C21.3716 41.6832 22.0745 42.7877 22.0745 43.6205C22.0745 44.3004 21.5215 44.8535 20.8416 44.8535Z" fill="#FE9015"/>
</g>
<defs>
<clipPath id="clip0_574_2945">
<rect width="60" height="60" fill="white"/>
</clipPath>
</defs>
</svg>
