<svg width="60" height="60" viewBox="0 0 60 60" fill="none" xmlns="http://www.w3.org/2000/svg">
<path d="M41.3215 9.78545C40.9469 9.47793 40.3944 9.53286 40.0874 9.90915C39.7802 10.2843 39.8355 10.838 40.2102 11.1458C44.8806 14.9761 46.6525 21.3707 46.1766 27.3568C44.4984 28.1962 38.0481 31.1296 34.4195 28.6235C31.562 26.6502 28.2132 26.5636 25.2132 28.0854C24.9642 27.6397 24.6525 27.2331 24.2448 26.9185C21.8641 25.0824 20.2464 20.8305 21.5949 16.2988C23.64 9.44014 30.7822 6.64249 36.9548 9.19272C37.4028 9.37793 37.916 9.16432 38.1006 8.71549C38.2855 8.2669 38.0723 7.75282 37.624 7.56784C32.1338 5.29883 25.5438 6.61667 21.7671 11.9439C21.7582 11.9423 21.2399 11.8228 21.0644 11.7819C19.1644 11.3542 17.8372 9.69178 17.8372 7.74108V0.879108C17.8372 0.393897 17.4442 0 16.9599 0C16.4751 0 16.0826 0.393897 16.0826 0.879108V7.74108C16.0826 10.52 17.9724 12.8871 20.6794 13.4969L20.7767 13.5188C20.6122 13.8369 20.5335 14.1894 20.3964 14.5185C20.2298 14.9197 20.0637 15.3106 19.9383 15.7237C19.8804 15.9138 19.7762 16.0862 19.7267 16.2789C15.86 15.2573 13.1581 11.7521 13.1581 7.74131V0.879108C13.1581 0.393897 12.7654 0 12.2808 0C11.7965 0 11.4036 0.393897 11.4036 0.879108V7.74108C11.4036 12.4974 14.5961 16.8087 19.453 18.007C18.9153 22.5883 20.7383 26.4326 23.1747 28.3115C24.3823 29.2427 24.3219 31.5913 22.624 32.1275C22.0964 32.2941 21.5891 32.4847 21.1148 32.6946C18.4916 33.8561 16.6961 36.3106 16.2947 39.2131C12.7584 39.6425 10 42.6812 10 46.3282V59.1211C10 59.6063 10.3929 60 10.8773 60C11.3614 60 11.7546 59.6063 11.7546 59.1211V46.3282C11.7546 43.3725 14.1547 40.946 17.1054 40.92C17.5701 40.915 17.9506 40.5493 17.9738 40.0847C18.1027 37.5127 19.5782 35.2969 21.8245 34.3023C22.2388 34.1185 22.6854 33.9514 23.1515 33.8045C24.2537 33.4556 25.1422 32.5927 25.5282 31.4946C25.7123 30.9721 25.7433 30.4028 25.7001 29.8164C26.7789 29.1908 30.0069 27.7115 33.4234 30.0704C36.8707 32.4516 42.1044 31.131 45.9092 29.4258C45.3462 32.7244 44.0926 35.9143 42.1552 38.7364C38.5344 44.0108 33.736 46.9401 27.4842 47.692C23.9854 48.1127 20.753 46.5117 19.1423 44.2178C18.9739 43.9779 18.6889 43.8251 18.3447 43.8481H17.1551C15.7897 43.8481 14.6788 44.9608 14.6788 46.3286V59.1211C14.6788 59.6063 15.0718 60 15.5561 60C16.0407 60 16.4334 59.6063 16.4334 59.1211V46.3282C16.4334 45.9298 16.757 45.6049 17.1551 45.6049H17.9876C20.0538 48.219 23.7127 49.9164 27.6935 49.4373C48.3365 46.9542 53.9093 20.1085 41.3215 9.78545Z" fill="#FE9015"/>
<path d="M30 34C30 34.5521 29.5524 35 29.0001 35C28.4482 35 28 34.5521 28 34C28 33.4481 28.4482 33 29.0001 33C29.5524 33 30 33.4481 30 34Z" fill="#FE9015"/>
<path d="M39 36.4997C39 37.3279 38.5524 38 38.0001 38C37.4482 38 37 37.3279 37 36.4997C37 35.6718 37.4482 35 38.0001 35C38.5524 35 39 35.6718 39 36.4997Z" fill="#FE9015"/>
<path d="M29 42.0001C29 42.552 28.5524 43 28.0001 43C27.4482 43 27 42.552 27 42.0001C27 41.448 27.4482 41 28.0001 41C28.5524 41 29 41.448 29 42.0001Z" fill="#FE9015"/>
</svg>
