<svg width="60" height="60" viewBox="0 0 60 60" fill="none" xmlns="http://www.w3.org/2000/svg">
<g clip-path="url(#clip0_574_2881)">
<path d="M54.4249 15.9055C54.9115 15.9055 55.3056 15.5112 55.3056 15.0248V0.874576C55.3056 0.122232 54.3783 -0.283705 53.8255 0.229224L40.9272 12.2065H19.0724L6.17393 0.229224C5.62139 -0.283822 4.69385 0.122232 4.69385 0.874576V24.3604C4.69385 31.1198 7.32611 37.4747 12.1057 42.2544C16.2503 46.3989 21.5793 48.9273 27.3292 49.5266C25.5983 50.4747 24.4218 52.3134 24.4218 54.4222C24.4218 57.4978 26.9241 60.0001 29.9997 60.0001C33.0753 60.0001 35.5776 57.4978 35.5776 54.4222C35.5776 52.3134 34.401 50.4747 32.6701 49.5266C38.4202 48.9273 43.7492 46.3989 47.8936 42.2544C52.6732 37.4747 55.3055 31.1198 55.3055 24.3604V19.2522C55.3055 18.7657 54.9113 18.3715 54.4248 18.3715C53.9384 18.3715 53.5442 18.7658 53.5442 19.2522V24.3604C53.5442 37.3429 42.9822 47.9049 29.9997 47.9049C17.0172 47.9049 6.45506 37.3429 6.45506 24.3604V2.8943L17.8457 13.4713V22.4815C17.8457 22.8489 18.0829 23.1864 18.4288 23.3105C18.8197 23.4506 19.268 23.2908 19.4816 22.9347L24.2319 15.0173L29.19 26.5861C29.4887 27.283 30.5103 27.2831 30.809 26.5861L35.767 15.0173L40.5174 22.9347C40.7311 23.2907 41.1792 23.4506 41.5702 23.3105C41.9161 23.1865 42.1533 22.849 42.1533 22.4815V13.4713L53.5439 2.8943V15.0248C53.5443 15.5112 53.9385 15.9055 54.4249 15.9055ZM29.1191 50.7094V53.4827C29.1191 53.5025 29.1208 53.522 29.122 53.5415H29.0604C28.5738 53.5415 28.1797 53.9358 28.1797 54.4221C28.1797 54.9086 28.574 55.3028 29.0604 55.3028H30.9393C31.4258 55.3028 31.8199 54.9084 31.8199 54.4221C31.8199 53.9357 31.4257 53.5415 30.9393 53.5415H30.8776C30.8789 53.522 30.8806 53.5025 30.8806 53.4827V50.7094C32.5615 51.1082 33.8162 52.6209 33.8162 54.4221C33.8162 56.5265 32.1042 58.2386 29.9998 58.2386C27.8953 58.2386 26.1833 56.5265 26.1833 54.4221C26.1833 52.6209 27.4381 51.1082 29.1191 50.7094ZM19.6074 19.3018V13.9679H22.8078L19.6074 19.3018ZM29.9998 24.0034L25.6989 13.9679H34.3008L29.9998 24.0034ZM40.3922 19.3018L37.1918 13.9679H40.3922V19.3018Z" fill="#FE9015"/>
<path d="M33.7577 42.2683C32.2876 42.2683 31.0724 41.1598 30.902 39.7349L34.3806 36.2563C34.924 35.7128 34.5255 34.7529 33.7577 34.7529H26.2422C25.4747 34.7529 25.0761 35.7129 25.6194 36.2563L29.098 39.7349C28.9276 41.1598 27.7124 42.2683 26.2422 42.2683C25.7557 42.2683 25.3616 42.6626 25.3616 43.1489C25.3616 43.6353 25.7558 44.0296 26.2422 44.0296C27.7868 44.0296 29.1565 43.2701 30 42.1056C30.8435 43.27 32.2132 44.0296 33.7577 44.0296C34.2443 44.0296 34.6384 43.6353 34.6384 43.1489C34.6384 42.6626 34.2441 42.2683 33.7577 42.2683ZM30 38.1459L28.3684 36.5143H31.6315L30 38.1459Z" fill="#FE9015"/>
<path d="M41.2732 29.1162C39.2336 29.1162 37.5742 30.7756 37.5742 32.8152C37.5742 33.3017 37.9684 33.6959 38.4549 33.6959C38.9413 33.6959 39.3355 33.3016 39.3355 32.8152C39.3355 31.7468 40.2047 30.8777 41.2731 30.8777C42.3415 30.8777 43.2107 31.7468 43.2107 32.8152C43.2107 33.3017 43.6049 33.6959 44.0914 33.6959C44.5778 33.6959 44.972 33.3016 44.972 32.8152C44.9723 30.7757 43.3128 29.1162 41.2732 29.1162Z" fill="#FE9015"/>
<path d="M18.7269 29.1162C16.6872 29.1162 15.0278 30.7756 15.0278 32.8152C15.0278 33.3017 15.4221 33.6959 15.9085 33.6959C16.3949 33.6959 16.7892 33.3016 16.7892 32.8152C16.7892 31.7468 17.6583 30.8777 18.7267 30.8777C19.7951 30.8777 20.6643 31.7468 20.6643 32.8152C20.6643 33.3017 21.0585 33.6959 21.545 33.6959C22.0315 33.6959 22.4256 33.3016 22.4256 32.8152C22.4259 30.7757 20.7665 29.1162 18.7269 29.1162Z" fill="#FE9015"/>
<path d="M50.0447 8.70722L46.2869 12.465C45.9477 12.8042 45.9477 13.3712 46.2869 13.7104C46.6263 14.0497 47.1931 14.0497 47.5325 13.7104L49.7867 11.4561V13.0877C49.7868 13.5741 50.1811 13.9684 50.6675 13.9684C51.154 13.9684 51.5482 13.574 51.5482 13.0877V9.32996C51.5483 8.56215 50.5883 8.16371 50.0447 8.70722Z" fill="#FE9015"/>
<path d="M13.7128 12.465L9.95518 8.70727C9.70322 8.45543 9.32447 8.37985 8.99541 8.51637C8.66623 8.65266 8.45166 8.97387 8.45166 9.33V13.0877C8.45166 13.5742 8.84588 13.9684 9.33232 13.9684C9.81877 13.9684 10.213 13.5741 10.213 13.0877V11.4561L12.4672 13.7105C12.8066 14.0497 13.3735 14.0497 13.7128 13.7105C14.0521 13.3712 14.0521 12.8041 13.7128 12.465Z" fill="#FE9015"/>
</g>
<defs>
<clipPath id="clip0_574_2881">
<rect width="60" height="60" fill="white"/>
</clipPath>
</defs>
</svg>
