<svg width="52" height="52" viewBox="0 0 52 52" fill="none" xmlns="http://www.w3.org/2000/svg">
<path d="M51.0976 12.0731H46.4342C45.9358 12.0731 45.5317 12.5104 45.5317 13.0499C45.5317 13.0993 45.5292 13.148 45.5282 13.1972H39.299V10.4657C41.5581 10.0063 43.2726 7.85491 43.2726 5.27817C43.2726 2.3677 41.0852 0 38.3966 0C35.7079 0 33.5205 2.36782 33.5205 5.27817C33.5205 5.8176 33.9245 6.25499 34.4229 6.25499C34.9212 6.25499 35.3253 5.8176 35.3253 5.27817C35.3253 3.44496 36.7031 1.95364 38.3966 1.95364C40.0901 1.95364 41.4678 3.44508 41.4678 5.27817C41.4678 7.11126 40.09 8.60258 38.3966 8.60258C37.8982 8.60258 37.4941 9.03997 37.4941 9.5794V13.1971H32.1245C32.1225 13.1239 32.1194 13.051 32.1194 12.9772C32.1194 12.4378 31.7153 12.0004 31.217 12.0004H15.0346C13.1268 12.0004 11.2664 12.3853 9.50534 13.1442C9.26955 13.2458 9.08418 13.4503 8.99468 13.7072C8.90519 13.9643 8.91984 14.2503 9.03503 14.4951C9.28229 15.0204 9.40756 15.5865 9.40756 16.1779C9.40756 18.2267 7.86784 19.8934 5.97512 19.8934C5.18705 19.8934 4.44548 19.6114 3.83078 19.0779C3.6331 18.9063 3.37788 18.8328 3.12743 18.8748C2.87709 18.917 2.65457 19.0712 2.51443 19.2998C0.869604 21.9826 0 25.1045 0 28.3285V50.7977C0 51.3371 0.404067 51.7745 0.902409 51.7745H8.39931C8.89765 51.7745 9.30171 51.3371 9.30171 50.7977V37.4187C9.30373 37.3925 9.30469 37.3658 9.30469 37.3391C9.30469 36.0794 10.2568 34.9743 11.3422 34.9743H11.4892C12.5937 34.9743 13.5268 36.0208 13.5268 37.2595V51.0232C13.5268 51.5626 13.9309 52 14.4292 52H21.9259C22.4242 52 22.8283 51.5626 22.8283 51.0232V38.2493L27.7018 39.6888V50.7976C27.7018 51.337 28.1059 51.7744 28.6042 51.7744H36.101C36.5994 51.7744 37.0034 51.337 37.0034 50.7976V41.7156C37.0054 41.6891 37.0064 41.6622 37.0064 41.6352C37.0064 40.3756 37.9585 39.2706 39.044 39.2706H40.6609C41.7653 39.2706 42.6984 40.317 42.6984 41.5557V51.0232C42.6984 51.5626 43.1025 52 43.6008 52H51.0976C51.5959 52 52 51.5626 52 51.0232V13.0499C52 12.5104 51.596 12.0731 51.0976 12.0731ZM45.2434 15.1508C44.4097 18.1185 41.8586 20.2846 38.8482 20.2846C35.8346 20.2846 33.2775 18.122 32.4234 15.1508H45.2434ZM1.80482 49.8208V46.0909H7.4969V49.8208H1.80482ZM15.3316 50.0464V46.0909H21.0235V50.0464H15.3316ZM21.0235 44.1373H15.3316V37.2595C15.3316 36.8144 15.2688 36.3853 15.1529 35.9821L21.0235 37.7161V44.1373ZM29.5067 46.0853L35.1986 46.0909V49.8208H29.5067V46.0853ZM29.5067 44.1373V32.2473C29.5067 31.7079 29.1026 31.2705 28.6042 31.2705C28.1059 31.2705 27.7018 31.7079 27.7018 32.2473V37.6637C27.7018 37.6637 16.3782 34.4109 12.6335 33.2127C12.2696 33.0963 11.8875 33.0207 11.4892 33.0207H11.3422C9.28643 33.0207 7.54541 34.9475 7.50072 37.2484C7.49817 37.2783 7.4969 37.3085 7.4969 37.3391V44.1373H1.80482V28.3285C1.80482 25.8133 2.40582 23.3688 3.5504 21.2016C4.29494 21.6222 5.12919 21.8474 5.97522 21.8474C8.86304 21.8474 11.2125 19.3042 11.2125 16.1782C11.2125 15.6482 11.1463 15.1311 11.0153 14.632C12.3098 14.182 13.6579 13.9544 15.0346 13.9544H30.3619C30.5658 16.0432 31.4212 17.9874 32.8221 19.5097C34.2713 21.0845 36.138 22.0236 38.139 22.2042V32.695C38.139 33.2345 38.5431 33.6718 39.0414 33.6718C39.5397 33.6718 39.9438 33.2345 39.9438 32.695V22.1602C43.8139 21.6176 46.8754 18.2446 47.289 14.0269H50.1952V44.1375H44.5032V41.5559C44.5032 39.2187 42.7795 37.3172 40.6609 37.3172H39.044C36.9884 37.3172 35.2477 39.2435 35.2024 41.544C35.1999 41.5741 35.1985 41.6045 35.1985 41.6355V44.1375H29.5067V44.1373ZM44.5033 50.0464V46.0909H50.1952V50.0464H44.5033Z" fill="#FE9015"/>
<path d="M42.5147 25.9941H43.2894C43.7877 25.9941 44.1918 25.5567 44.1918 25.0173C44.1918 24.4778 43.7877 24.0404 43.2894 24.0404H42.5147C42.0164 24.0404 41.6123 24.4778 41.6123 25.0173C41.6123 25.5567 42.0164 25.9941 42.5147 25.9941Z" fill="#FE9015"/>
<path d="M44.1918 29.8219C44.1918 29.2825 43.7877 28.8451 43.2894 28.8451H42.5147C42.0164 28.8451 41.6123 29.2825 41.6123 29.8219C41.6123 30.3614 42.0164 30.7988 42.5147 30.7988H43.2894C43.7879 30.7988 44.1918 30.3615 44.1918 29.8219Z" fill="#FE9015"/>
</svg>
