<svg width="60" height="60" viewBox="0 0 60 60" fill="none" xmlns="http://www.w3.org/2000/svg">
<g clip-path="url(#clip0_447_1578)">
<path d="M52.425 54.3659C52.0964 54.695 52.0964 55.2284 52.425 55.5575C52.7537 55.8866 53.2864 55.8866 53.615 55.5575C53.9436 55.2284 53.9436 54.695 53.615 54.3659C53.2864 54.0368 52.7537 54.0368 52.425 54.3659ZM56.3928 50.1927L43.7724 37.5552C42.5804 36.359 40.9402 35.7557 39.2584 35.8865L34.9194 31.5415L36.6511 29.8074C38.0977 28.3587 38.7227 26.3948 38.528 24.5001L44.8381 20.6969C45.2539 20.4462 45.3878 19.9058 45.1373 19.4899C44.8866 19.074 44.3464 18.9402 43.9302 19.1908L38.0863 22.7131C37.8851 22.2151 37.6201 21.7372 37.292 21.2917L41.95 17.6582C42.333 17.3596 42.4012 16.8071 42.1026 16.4242C41.8037 16.0412 41.2512 15.973 40.8685 16.2717L36.0985 19.9924L34.9127 18.805L39.2141 14.8123C39.57 14.482 39.5906 13.9257 39.2604 13.5696C38.93 13.2137 38.3737 13.1931 38.0177 13.5233L33.6692 17.5598L32.5088 16.3978L36.6766 12.2242C37.0198 11.8806 37.0194 11.3239 36.6758 10.9807C36.3323 10.6377 35.7755 10.6379 35.4324 10.9815L31.2662 15.1535L30.1289 14.0147L34.2967 9.84118C34.6399 9.49756 34.6395 8.94081 34.2959 8.59766C33.9524 8.25463 33.3956 8.25486 33.0525 8.59848L28.8863 12.7703L27.6967 11.5791L31.5466 6.97757C31.8582 6.60511 31.8089 6.05059 31.4365 5.73897C31.0641 5.42748 30.5098 5.47672 30.198 5.84918L26.4493 10.3298L25.2762 9.15559L28.8478 4.18466C29.1312 3.79028 29.0411 3.24091 28.6468 2.95755C28.2527 2.67419 27.703 2.76411 27.4197 3.15849L23.9699 7.95978C23.5376 7.64336 23.0717 7.38356 22.5809 7.18414L26.0986 1.33207C26.3489 0.915882 26.2142 0.375658 25.7982 0.125476C25.3819 -0.124588 24.8416 0.00988143 24.5916 0.426069L20.7959 6.7404C20.5726 6.71754 20.3469 6.70547 20.1194 6.70547C18.3717 6.70547 16.7288 7.38696 15.4932 8.62427C15.15 8.96789 15.1504 9.52464 15.4941 9.86779C15.8378 10.2108 16.3945 10.2105 16.7375 9.86697C17.6409 8.96238 18.8419 8.46413 20.1194 8.46413C21.1492 8.46413 22.1293 8.7884 22.9438 9.38783L22.1799 10.451C21.8965 10.8454 21.9866 11.3948 22.381 11.6782C22.7717 11.9588 23.3226 11.8744 23.6081 11.4772L24.2363 10.6029L25.8761 12.2449C25.8761 12.2449 25.8762 12.245 25.8762 12.2451L27.6436 14.0148L26.6291 15.0306C26.286 15.3743 26.2863 15.931 26.63 16.2742C26.8016 16.4456 27.7017 16.4452 27.8734 16.2733L28.8863 15.2591L30.6442 17.0195C30.6445 17.0198 30.6446 17.02 30.6448 17.0201C30.6449 17.0204 30.6452 17.0205 30.6454 17.0206L32.3794 18.757L31.4467 19.6228C31.0908 19.9531 31.0702 20.5094 31.4004 20.8655C31.7314 21.2221 32.2878 21.2413 32.6431 20.9118L33.623 20.0023L35.4003 21.782C35.4012 21.783 35.4021 21.7838 35.403 21.7847L35.4067 21.7885C35.9438 22.3262 36.3253 22.9613 36.5532 23.6373L35.6381 24.1888C35.2223 24.4394 35.0884 24.9799 35.3389 25.3957C35.504 25.6696 35.7949 25.8212 36.0929 25.8212C36.3514 25.8212 36.5766 25.6858 36.7906 25.5474C36.7059 26.648 36.2456 27.7248 35.4068 28.5648L33.6768 30.2971L14.0278 10.6212C12.5879 9.16707 10.1759 9.18079 8.73786 10.6217C7.41134 11.951 7.29293 14.0379 8.38135 15.502L2.78966 19.3355C1.76643 20.0262 1.62703 21.5341 2.50501 22.4034L10.3172 30.226L22.8873 42.813C23.7479 43.6851 25.2664 43.5502 25.9543 42.5282L29.7584 36.9642L31.781 38.9895C31.9527 39.1615 32.1779 39.2474 32.4031 39.2474C32.628 39.2474 32.8528 39.1617 33.0245 38.9903C33.3681 38.6471 33.3684 38.0905 33.0253 37.7469C33.7197 38.2312 10.7043 15.3958 9.98221 14.6731C9.20904 13.8991 9.20915 12.6389 9.98256 11.8639C10.7437 11.1011 12.0225 11.095 12.7839 11.8641L37.2852 36.399C36.6795 36.6803 36.1215 37.0683 35.6354 37.5551C33.3929 39.8006 33.3929 43.4543 35.6354 45.6997L48.2559 58.3373C50.4448 60.5514 54.1768 60.5563 56.3928 58.3373C58.6353 56.0919 58.6353 52.4382 56.3928 50.1927ZM9.61174 16.7907L28.4939 35.6981L24.5028 41.5357C24.4467 41.6178 24.3674 41.6365 24.3251 41.6405C24.2735 41.6455 24.1982 41.6371 24.1317 41.5704L21.7006 39.1361L22.7419 38.0934C23.0851 37.7498 23.0847 37.1931 22.7411 36.85C22.3976 36.5069 21.8409 36.5072 21.4977 36.8508L20.4581 37.8919L16.941 34.37L17.9823 33.3272C18.3254 32.9836 18.3251 32.4268 17.9815 32.0837C17.6377 31.7406 17.0812 31.7409 16.738 32.0845L15.6983 33.1257L12.1812 29.6038L13.2225 28.561C13.5656 28.2173 13.5653 27.6606 13.2217 27.3174C12.8778 26.9744 12.3213 26.9746 11.9783 27.3183L10.9385 28.3594L7.42142 24.8375L8.46283 23.7947C8.80598 23.4511 8.80563 22.8944 8.46201 22.5513C8.11851 22.2082 7.56175 22.2085 7.2186 22.5522L6.17884 23.5932L3.74959 21.1607C3.67901 21.09 3.67514 21.0076 3.67913 20.9648C3.683 20.9221 3.70187 20.842 3.78417 20.7858L9.61174 16.7907ZM55.1485 57.0947C54.394 57.8502 53.3912 58.2662 52.3243 58.2662C51.2575 58.2662 50.2547 57.8502 49.5001 57.0947L36.8797 44.4571C35.3215 42.8968 35.3215 40.3581 36.8797 38.7978C38.4138 37.2616 40.9903 37.2425 42.5282 38.7978L55.1485 51.4353C56.7067 52.9957 56.7067 55.5344 55.1485 57.0947Z" fill="#FE9015"/>
</g>
<defs>
<clipPath id="clip0_447_1578">
<rect width="60" height="60" fill="white"/>
</clipPath>
</defs>
</svg>
