<svg width="60" height="60" viewBox="0 0 60 60" fill="none" xmlns="http://www.w3.org/2000/svg">
<g clip-path="url(#clip0_447_125)">
<path d="M57.3633 33.1499C58.8171 33.1499 60 31.967 60 30.5132V29.4868C60 28.033 58.8171 26.8501 57.3633 26.8501H22.4619V23.0309H26.9919C27.4774 23.0309 27.8708 22.6375 27.8708 22.152C27.8708 21.6664 27.4774 21.273 26.9919 21.273H22.4619V17.4538H26.9919C27.4774 17.4538 27.8708 17.0604 27.8708 16.5749C27.8708 16.0894 27.4774 15.696 26.9919 15.696H22.4619V11.8767H26.9919C27.4774 11.8767 27.8708 11.4833 27.8708 10.9978C27.8708 10.5123 27.4774 10.1189 26.9919 10.1189H22.4619V6.29965H37.5381V10.119H33.0081C32.5226 10.119 32.1292 10.5124 32.1292 10.9979C32.1292 11.4834 32.5226 11.8768 33.0081 11.8768H37.5381V15.6961H33.0081C32.5226 15.6961 32.1292 16.0895 32.1292 16.575C32.1292 17.0605 32.5226 17.4539 33.0081 17.4539H37.5381V21.2732H33.0081C32.5226 21.2732 32.1292 21.6666 32.1292 22.1521C32.1292 22.6376 32.5226 23.031 33.0081 23.031H37.5381V24.2135C37.5381 24.699 37.9315 25.0924 38.417 25.0924C38.9025 25.0924 39.2959 24.699 39.2959 24.2135V6.29965H39.7852C41.239 6.29965 42.4219 5.11676 42.4219 3.66293V2.63672C42.4219 1.18289 41.239 0 39.7852 0H20.2148C18.761 0 17.5781 1.18289 17.5781 2.63672V3.66293C17.5781 5.11676 18.761 6.29965 20.2148 6.29965H20.7041V26.8501H2.63672C1.18289 26.8501 0 28.033 0 29.4868V30.5132C0 31.967 1.18289 33.1499 2.63672 33.1499H4.0568V53.7004H2.63672C1.18289 53.7004 0 54.8832 0 56.3371V57.3633C0 58.8171 1.18289 60 2.63672 60H57.3633C58.8171 60 60 58.8171 60 57.3633V56.3371C60 54.8832 58.8171 53.7004 57.3633 53.7004H55.9432V33.1499H57.3633ZM20.2148 4.54184C19.7302 4.54184 19.3359 4.14762 19.3359 3.66293V2.63672C19.3359 2.15203 19.7302 1.75781 20.2148 1.75781H39.7852C40.2698 1.75781 40.6641 2.15203 40.6641 2.63672V3.66293C40.6641 4.14762 40.2698 4.54184 39.7852 4.54184H20.2148ZM57.3633 55.4582C57.848 55.4582 58.2422 55.8524 58.2422 56.3371V57.3633C58.2422 57.848 57.848 58.2422 57.3633 58.2422H2.63672C2.15203 58.2422 1.75781 57.848 1.75781 57.3633V56.3371C1.75781 55.8524 2.15203 55.4582 2.63672 55.4582H24.4309C24.9164 55.4582 25.3098 55.0648 25.3098 54.5793C25.3098 54.0938 24.9164 53.7004 24.4309 53.7004H22.6488V33.1499H29.1211V39.1189C27.1177 39.5272 25.6055 41.3027 25.6055 43.425C25.6055 45.8482 27.5768 47.8195 30 47.8195C32.4232 47.8195 34.3945 45.8482 34.3945 43.425C34.3945 41.3027 32.8823 39.5272 30.8789 39.1189V33.1499H37.3512V53.7004H27.9464C27.4609 53.7004 27.0675 54.0938 27.0675 54.5793C27.0675 55.0648 27.4609 55.4582 27.9464 55.4582H57.3633ZM10.3447 48.1232H5.81461V44.3039H10.3447C10.8302 44.3039 11.2236 43.9105 11.2236 43.425C11.2236 42.9395 10.8302 42.5461 10.3447 42.5461H5.81461V38.727H10.3447C10.8302 38.727 11.2236 38.3336 11.2236 37.848C11.2236 37.3625 10.8302 36.9691 10.3447 36.9691H5.81461V33.1499H20.891V36.9691H16.3609C15.8754 36.9691 15.482 37.3625 15.482 37.848C15.482 38.3336 15.8754 38.727 16.3609 38.727H20.891V42.5462H16.3609C15.8754 42.5462 15.482 42.9396 15.482 43.4251C15.482 43.9106 15.8754 44.304 16.3609 44.304H20.891V48.1233H16.3609C15.8754 48.1233 15.482 48.5167 15.482 49.0022C15.482 49.4877 15.8754 49.8811 16.3609 49.8811H20.891V53.7005H5.81461V49.8811H10.3447C10.8302 49.8811 11.2236 49.4877 11.2236 49.0022C11.2236 48.5167 10.8302 48.1232 10.3447 48.1232ZM30 40.7884C31.4538 40.7884 32.6367 41.9713 32.6367 43.4251C32.6367 44.8789 31.4538 46.0618 30 46.0618C28.5462 46.0618 27.3633 44.8789 27.3633 43.4251C27.3633 41.9713 28.5462 40.7884 30 40.7884ZM43.6392 48.1232H39.109V44.3039H43.6391C44.1246 44.3039 44.518 43.9105 44.518 43.425C44.518 42.9395 44.1246 42.5461 43.6391 42.5461H39.109V38.727H43.6391C44.1246 38.727 44.518 38.3336 44.518 37.848C44.518 37.3625 44.1246 36.9691 43.6391 36.9691H39.109V33.1499H54.1853V36.9691H49.6552C49.1696 36.9691 48.7762 37.3625 48.7762 37.848C48.7762 38.3336 49.1696 38.727 49.6552 38.727H54.1853V42.5462H49.6552C49.1696 42.5462 48.7762 42.9396 48.7762 43.4251C48.7762 43.9106 49.1696 44.304 49.6552 44.304H54.1853V48.1233H49.6552C49.1696 48.1233 48.7762 48.5167 48.7762 49.0022C48.7762 49.4877 49.1696 49.8811 49.6552 49.8811H54.1853V53.7005H39.109V49.8811H43.6391C44.1246 49.8811 44.518 49.4877 44.518 49.0022C44.518 48.5167 44.1246 48.1232 43.6392 48.1232ZM2.63672 31.3921C2.15203 31.3921 1.75781 30.9979 1.75781 30.5132V29.4868C1.75781 29.0021 2.15203 28.6079 2.63672 28.6079H57.3633C57.848 28.6079 58.2422 29.0021 58.2422 29.4868V30.5132C58.2422 30.9979 57.848 31.3921 57.3633 31.3921H2.63672Z" fill="#FE9015"/>
</g>
<defs>
<clipPath id="clip0_447_125">
<rect width="60" height="60" fill="white"/>
</clipPath>
</defs>
</svg>
