<svg width="56" height="60" viewBox="0 0 56 60" fill="none" xmlns="http://www.w3.org/2000/svg">
<path d="M14.5734 28.4411C14.9942 30.8005 16.3076 32.8551 18.2717 34.2261C19.7934 35.2883 21.5642 35.8419 23.3802 35.8418C23.9091 35.8418 24.4421 35.7949 24.9735 35.6999C29.8401 34.8346 33.0951 30.1649 32.2293 25.2894C31.8085 22.9301 30.495 20.8754 28.531 19.5043C26.5665 18.1329 24.1866 17.6094 21.8291 18.0306C16.9634 18.8958 13.7083 23.5655 14.5734 28.4411ZM30.0231 26.8733C30.0193 30.0237 27.7645 32.8233 24.5622 33.3927C22.8218 33.7038 21.064 33.3172 19.6131 32.3045C18.4872 31.5185 17.6525 30.4276 17.1889 29.1647L30.0231 26.8733ZM22.2395 20.3379C22.2399 20.3378 22.2402 20.3378 22.2406 20.3377C22.6332 20.2675 23.0267 20.2329 23.4174 20.2329C24.7585 20.2329 26.0661 20.6417 27.1897 21.426C28.3156 22.212 29.1503 23.3027 29.6139 24.5658L16.7799 26.857C16.784 23.7066 19.0388 20.9071 22.2395 20.3379Z" fill="#FE9015"/>
<path d="M55.226 15.2386L53.9651 8.16048C53.9106 7.8545 53.7369 7.58263 53.4817 7.40485C53.2267 7.22696 52.9119 7.15817 52.6056 7.21243L39.3008 9.58724C38.664 9.70103 38.2397 10.3089 38.3529 10.9457L38.6353 12.5349C38.7486 13.1679 38.6065 13.8097 38.2354 14.3421C37.865 14.8733 37.3138 15.2277 36.6819 15.3402C36.051 15.4533 35.4115 15.3117 34.881 14.9419C34.349 14.571 33.9942 14.0183 33.8814 13.3834L33.5962 11.7958C33.4819 11.1594 32.8722 10.7364 32.2373 10.8495L20.9102 12.8688C20.4342 12.9536 19.9667 13.0624 19.4814 13.2018C18.8594 13.3804 18.5 14.0295 18.6786 14.6514C18.8573 15.2735 19.5067 15.6328 20.1282 15.4542C20.5349 15.3375 20.9249 15.2466 21.321 15.176L31.4967 13.3618L31.5746 13.7956C31.7965 15.0452 32.495 16.1351 33.541 16.8645C34.586 17.5927 35.8482 17.8708 37.0942 17.6473C38.3412 17.4254 39.4293 16.7276 40.1581 15.6824C40.8875 14.6361 41.166 13.3717 40.9427 12.1235L40.8654 11.6885L46.1834 10.7393L47.4401 17.7872L42.5231 20.518C37.0738 22.9942 36.5503 24.1125 35.7217 27.257C35.4223 28.3935 35.0495 29.8079 34.1913 31.7919C32.6622 35.3256 29.4066 37.852 25.4817 38.5506C22.3641 39.107 19.2167 38.4157 16.6195 36.6025C14.0218 34.7892 12.2846 32.0712 11.7281 28.9492C11.5859 28.1528 11.5264 27.3568 11.5438 26.5685C11.5462 26.5306 11.5467 26.4922 11.5453 26.4536C11.6041 24.6132 12.0947 22.8176 13.0021 21.1623C13.3133 20.5949 13.1055 19.8826 12.5379 19.5715C11.9706 19.2606 11.2581 19.468 10.9471 20.0357C10.0188 21.729 9.45474 23.5947 9.27052 25.5014L6.70599 25.9588C4.82396 26.2938 3.50701 27.9619 3.55318 29.8212C2.44517 31.8688 1.67384 34.3564 1.22642 36.8449C1.21271 36.8992 1.20275 36.955 1.19689 37.0123C0.607204 40.4012 0.615642 43.7718 1.18342 46.0073C1.98791 49.1808 3.92127 51.9079 6.92994 54.1129C9.51732 56.0092 12.8503 57.4861 16.8363 58.5025C20.7277 59.4947 25.1193 59.9998 29.4047 59.9998C32.6239 59.9997 35.783 59.7148 38.6247 59.1373C42.3002 58.3915 45.5651 56.5913 47.8184 54.0681C49.9239 51.7103 50.9133 48.9372 50.4653 46.6499C50.1366 44.972 49.0545 43.6495 47.4185 42.9261C45.7385 42.1832 43.5299 42.0629 40.8551 42.5684C36.5846 43.3753 28.897 44.2623 21.2897 44.1035C13.2485 43.9365 7.44135 42.624 4.9381 40.4078C3.91599 39.503 3.45533 38.4634 3.53009 37.2305C3.8097 35.6573 4.23756 34.0604 4.83908 32.5826C5.52533 33.1909 6.42263 33.5502 7.37467 33.5502C7.59603 33.5502 7.82056 33.5307 8.04592 33.4906L10.6008 33.0349C11.6464 35.2167 13.2411 37.1026 15.2777 38.5243C17.6873 40.2063 20.4916 41.0828 23.3685 41.0827C24.2064 41.0827 25.0508 41.0082 25.8928 40.8579C30.5933 40.0213 34.4995 36.9802 36.3418 32.7227C37.2704 30.5763 37.685 29.003 37.9876 27.8543C38.6418 25.3713 38.7972 24.7813 43.5344 22.6327C43.5632 22.6195 43.5916 22.6054 43.6194 22.5899L54.6415 16.4685C55.0789 16.2254 55.3137 15.7313 55.226 15.2386ZM21.2411 46.4467C29.029 46.609 36.9092 45.699 41.2901 44.8712C45.1781 44.1363 47.7481 44.9701 48.1655 47.1005C48.7578 50.1239 45.154 55.4213 38.1583 56.8406C27.3004 59.0474 6.4183 57.1214 3.45451 45.4309C3.23033 44.5482 3.10412 43.3192 3.10588 41.9041C3.19564 41.9915 3.28845 42.0776 3.38455 42.1627C6.38795 44.8215 12.3957 46.2629 21.2411 46.4467ZM7.63424 31.1836C6.83338 31.327 6.06252 30.7881 5.91791 29.9866C5.77482 29.181 6.31248 28.4092 7.11674 28.266L9.24006 27.8872C9.27533 28.38 9.3331 28.872 9.42041 29.3607C9.50783 29.8511 9.62021 30.3328 9.75545 30.8052L7.63424 31.1836ZM49.6058 16.5844L48.4901 10.3276L51.8636 9.72552L52.7722 14.8259L49.6058 16.5844Z" fill="#FE9015"/>
<path d="M34.0132 7.02647C34.114 7.59436 34.6081 7.99362 35.1655 7.99362C35.2335 7.99362 35.3025 7.98764 35.3717 7.97533C36.0089 7.86225 36.4337 7.25393 36.3206 6.6169L35.5575 2.31881C35.4444 1.68166 34.8358 1.25627 34.199 1.36994C33.5619 1.48303 33.1371 2.09135 33.2502 2.72838L34.0132 7.02647Z" fill="#FE9015"/>
<path d="M40.2759 6.97549C40.3867 7.00819 40.4985 7.02389 40.6086 7.02389C41.1144 7.02389 41.5811 6.69378 41.7318 6.18401L43.1155 1.50401C43.2988 0.883503 42.9446 0.231706 42.324 0.0481906C41.7033 -0.134739 41.0517 0.21905 40.8681 0.839675L39.4844 5.51956C39.301 6.14018 39.6553 6.79198 40.2759 6.97549Z" fill="#FE9015"/>
<path d="M28.7887 8.4911C29.0187 8.8 29.3717 8.96325 29.7294 8.96325C29.9726 8.96325 30.218 8.88778 30.4281 8.73122C30.9473 8.34485 31.0547 7.61079 30.6683 7.09165L27.755 3.17899C27.3686 2.65985 26.6344 2.55215 26.1154 2.93887C25.5963 3.32524 25.4888 4.0593 25.8753 4.57844L28.7887 8.4911Z" fill="#FE9015"/>
<path d="M15.2134 17.8857C15.5142 17.8857 15.8153 17.771 16.0445 17.5418C16.5021 17.0842 16.5021 16.3422 16.0445 15.8846C15.5868 15.4271 14.8451 15.4271 14.3874 15.8846L14.3841 15.8879C13.9265 16.3455 13.9282 17.0858 14.3858 17.5433C14.6141 17.7717 14.9137 17.8857 15.2134 17.8857Z" fill="#FE9015"/>
</svg>
