<svg width="60" height="60" viewBox="0 0 60 60" fill="none" xmlns="http://www.w3.org/2000/svg">
<g clip-path="url(#clip0_447_1545)">
<path d="M47.7252 51.51L48.8375 46.9745C51.5606 35.8695 51.5606 24.1301 48.8375 13.0252L47.7252 8.48975L48.9391 3.22956C49.1208 2.44207 48.9365 1.62761 48.4334 0.995154C47.9302 0.362695 47.1782 0 46.3701 0H13.641C12.8328 0 12.0808 0.362695 11.5776 0.995154C11.0746 1.62761 10.8902 2.44207 11.072 3.22956L12.2858 8.48975L11.1736 13.0251C10.7024 14.9467 10.3067 16.9118 9.99761 18.8659C9.9219 19.3453 10.2491 19.7954 10.7284 19.8712C11.1971 19.9454 11.6574 19.6236 11.7339 19.1404C12.0353 17.2346 12.4212 15.3179 12.8808 13.4438L13.8786 9.37498H46.1325L47.1304 13.444C49.7864 24.275 49.7864 35.7249 47.1304 46.556L46.1324 50.6249H43.0905C42.605 50.6249 42.2116 51.0183 42.2116 51.5038C42.2116 51.9893 42.605 52.3827 43.0905 52.3827H46.1226L47.2265 57.1655C47.3542 57.7036 46.9244 58.2457 46.3701 58.2421H13.641C13.0855 58.2457 12.6566 57.7049 12.7846 57.1655L13.8883 52.3827H39.3705C39.856 52.3827 40.2494 51.9893 40.2494 51.5038C40.2494 51.0183 39.856 50.6249 39.3705 50.6249H13.8786L12.8808 46.5559C10.9355 38.6235 10.4039 30.4851 11.3008 22.3668C11.354 21.8844 11.0061 21.45 10.5237 21.3968C10.0412 21.3436 9.60702 21.6915 9.55358 22.1738C8.63401 30.4974 9.17917 38.8416 11.1736 46.9745L12.2858 51.51L11.0719 56.7702C10.6858 58.3819 11.9709 60.0122 13.641 59.9999H46.3701C48.0239 60.0103 49.3231 58.3853 48.9392 56.7702L47.7252 51.51ZM47.2265 2.83441L46.1227 7.61717H13.8883L12.7846 2.83441C12.724 2.57191 12.7855 2.30039 12.9532 2.08957C13.1209 1.87875 13.3714 1.75781 13.6408 1.75781H46.37C46.6394 1.75781 46.89 1.87875 47.0576 2.08957C47.2255 2.30039 47.2869 2.57179 47.2265 2.83441ZM22.7979 35.0686C21.731 35.002 20.6212 35.045 19.5 35.1965C18.5734 35.3218 17.6261 35.5234 16.6844 35.7956C15.8517 36.0364 15.2397 36.7156 15.0873 37.5682C14.9344 38.424 15.2747 39.2764 15.9753 39.7928C16.8166 40.4131 17.6142 41.1011 18.346 41.8376C19.0034 42.4994 19.6225 43.2151 20.1856 43.9647C20.7234 44.6806 21.6024 45.002 22.4592 44.825C23.3238 44.6462 23.9895 44.0019 24.1965 43.1432C24.3516 42.4995 24.4839 41.8485 24.5895 41.2087C24.8057 39.8978 24.917 38.5918 24.9201 37.3266C24.9209 37.0152 24.8565 36.7182 24.7416 36.4469L26.0108 35.1777C27.1358 36.4587 28.0286 37.9553 28.6134 39.5526C28.7823 40.0137 29.2948 40.2391 29.741 40.0757C30.1967 39.9088 30.431 39.404 30.2641 38.9482C29.592 37.1126 28.5597 35.3945 27.2565 33.932L29.7396 31.449C30.8644 32.7297 31.7573 34.2262 32.3423 35.8237C32.5112 36.2848 33.0238 36.5102 33.4699 36.3468C33.9257 36.1798 34.1599 35.6751 33.993 35.2192C33.3207 33.3835 32.2883 31.6654 30.9853 30.2033L33.4683 27.7201C34.5933 29.001 35.4862 30.4975 36.0711 32.0948C36.2399 32.5559 36.7524 32.7813 37.1985 32.618C37.6544 32.4511 37.8886 31.9463 37.7218 31.4906C37.0497 29.6549 36.0174 27.9367 34.7142 26.4744L36.5999 24.5886C37.4083 25.4336 38.1726 26.3335 38.8763 27.2703C39.5525 28.1703 40.6654 28.5794 41.7455 28.3562C42.8359 28.1308 43.6755 27.318 43.9366 26.2351C44.1562 25.3242 44.3431 24.404 44.4923 23.5001C44.7974 21.6491 44.9546 19.8046 44.9593 18.0182C44.963 16.5154 43.7868 15.2645 42.2814 15.1702C40.7826 15.0765 39.2231 15.137 37.6468 15.3502C36.3414 15.5268 35.0072 15.8108 33.681 16.1941C32.6307 16.4977 31.8588 17.3544 31.6666 18.4297C31.4736 19.5095 31.903 20.5852 32.7872 21.2373C33.6785 21.8942 34.5354 22.6044 35.3465 23.3559L33.4709 25.2315C32.0088 23.9285 30.2906 22.896 28.4548 22.2239C27.9987 22.0568 27.4942 22.2912 27.3273 22.7469C27.1604 23.2027 27.3945 23.7075 27.8504 23.8744C29.4478 24.4594 30.9444 25.3523 32.2252 26.4772L29.7421 28.9603C28.2799 27.6571 26.5618 26.6248 24.7262 25.9526C24.2702 25.7855 23.7657 26.02 23.5986 26.4757C23.4317 26.9315 23.6659 27.4362 24.1217 27.6032C25.7191 28.1881 27.2156 29.0811 28.4964 30.206L26.0134 32.689C24.551 31.3859 22.8329 30.3535 20.9972 29.6814C20.5416 29.5148 20.0366 29.7488 19.8697 30.2047C19.7028 30.6604 19.9371 31.1653 20.3929 31.3321C21.9901 31.9169 23.4867 32.8099 24.7677 33.9347L23.4812 35.2212C23.2675 35.1375 23.0384 35.0836 22.7979 35.0686ZM22.8554 40.9227C22.7566 41.5205 22.6331 42.1289 22.4878 42.7313C22.4207 43.0095 22.1967 43.0844 22.1035 43.1037C22.008 43.1233 21.7674 43.1438 21.5911 42.9091C20.9796 42.0951 20.3074 41.3179 19.593 40.5988C18.7981 39.7987 17.9318 39.0515 17.0183 38.378C16.7869 38.2075 16.8009 37.9713 16.8177 37.8776C16.8342 37.7854 16.9017 37.5626 17.1725 37.4843C18.0316 37.236 18.8939 37.0523 19.7354 36.9386C20.4372 36.8437 21.1323 36.7961 21.8116 36.7961C22.107 36.7961 22.3995 36.805 22.688 36.8231C22.9546 36.8398 23.1631 37.0591 23.1624 37.3224C23.1596 38.4934 23.0563 39.7047 22.8554 40.9227ZM33.8307 19.8222C33.4838 19.5665 33.3217 19.1615 33.3973 18.7391C33.4721 18.3211 33.7608 18.0009 34.1697 17.8828C35.4133 17.5232 36.6626 17.2572 37.8829 17.0921C39.345 16.8944 40.7882 16.8382 42.1722 16.9247C42.751 16.9609 43.2034 17.4393 43.2019 18.0137C43.1975 19.706 43.0482 21.4557 42.7582 23.214C42.6161 24.0758 42.4377 24.9536 42.2282 25.823C42.1268 26.2437 41.8135 26.5471 41.3902 26.6347C40.9608 26.7232 40.5465 26.5665 40.2821 26.2144C39.4196 25.0662 38.4712 23.9697 37.4633 22.9552C37.3907 22.8822 37.3165 22.8104 37.2432 22.738C37.2374 22.7319 37.2324 22.7254 37.2264 22.7194C37.2188 22.7118 37.2105 22.7053 37.2026 22.698C36.1528 21.6663 35.0206 20.6994 33.8307 19.8222ZM40.6537 20.171C41.1391 20.171 41.5326 19.7775 41.5326 19.2921C41.5326 18.8067 41.1391 18.4132 40.6537 18.4132C40.1683 18.4132 39.7748 18.8067 39.7748 19.2921C39.7748 19.7776 40.1683 20.171 40.6537 20.171Z" fill="#FE9015"/>
</g>
<defs>
<clipPath id="clip0_447_1545">
<rect width="60" height="60" fill="white"/>
</clipPath>
</defs>
</svg>
