<svg width="60" height="60" viewBox="0 0 60 60" fill="none" xmlns="http://www.w3.org/2000/svg">
<g clip-path="url(#clip0_574_2900)">
<path d="M41.9805 18.1147C35.4004 11.5347 24.694 11.5347 18.1142 18.1147C11.5342 24.6946 11.5342 35.4009 18.1142 41.9807C21.4041 45.2708 25.7257 46.9156 30.0473 46.9156C34.3689 46.9156 38.6904 45.2708 41.9805 41.9807C48.5602 35.4006 48.5602 24.6944 41.9805 18.1147ZM40.7329 40.7334C37.8785 43.5877 34.0838 45.1595 30.0471 45.1595C26.306 45.1595 22.7731 43.8085 20.0036 41.3385L35.4533 25.8889C35.7978 25.5445 35.7978 24.9859 35.4533 24.6417C35.1088 24.2972 34.5504 24.2972 34.206 24.6417L18.7562 40.0912C16.2864 37.3217 14.9352 33.7887 14.9352 30.0476C14.9352 26.0111 16.5071 22.2162 19.3614 19.362C22.2157 16.5078 26.0106 14.9358 30.047 14.9358C33.7881 14.9358 37.3211 16.2869 40.0906 18.7568L36.9695 21.8779C36.6484 22.199 36.6271 22.7295 36.9228 23.0746C37.2526 23.4599 37.8583 23.4838 38.2171 23.1251L41.3379 20.0043C46.6166 25.9314 46.4155 35.0507 40.7329 40.7334Z" fill="#FE9015"/>
<path d="M20.456 48.858L11.1424 39.5445C9.90962 38.3117 8.27064 37.6328 6.52712 37.6328C4.78372 37.6328 3.14462 38.3117 1.91192 39.5445C0.679229 40.7773 0.000244141 42.4162 0.000244141 44.1597C0.000244141 45.9032 0.679111 47.5422 1.91192 48.7749L11.2255 58.0885C12.4582 59.3212 14.0973 60.0002 15.8408 60.0002C17.5841 60.0002 19.2233 59.3213 20.456 58.0885C21.6887 56.8557 22.3677 55.2167 22.3677 53.4733C22.3677 51.7298 21.6888 50.0908 20.456 48.858ZM3.15915 47.5275C2.25962 46.6279 1.76415 45.4319 1.76415 44.1597C1.76415 42.8875 2.25962 41.6915 3.15915 40.7918C4.56224 39.3888 6.75634 39.0005 8.55399 39.847C9.05157 40.0812 9.50614 40.4032 9.89485 40.7918L13.928 44.825L7.19216 51.5608L3.15915 47.5275ZM20.1534 55.5003C19.9193 55.9979 19.5973 56.4525 19.2086 56.8411C17.8055 58.2442 15.6114 58.6325 13.8137 57.786C13.3161 57.5518 12.8616 57.2297 12.4729 56.8411L8.43974 52.808L15.1756 46.0722L19.2087 50.1053C20.6117 51.5085 20.9999 53.7026 20.1534 55.5003Z" fill="#FE9015"/>
<path d="M58.0885 11.2253L48.775 1.91168C47.5422 0.678867 45.9032 0 44.1596 0C42.4159 0 40.7769 0.678867 39.5442 1.91168C38.3116 3.14438 37.6326 4.78336 37.6326 6.52688C37.6326 8.27027 38.3113 9.90938 39.5442 11.1421L48.8578 20.4557C50.0907 21.6884 51.7296 22.3672 53.473 22.3672C55.2164 22.3672 56.8555 21.6884 58.0883 20.4557C59.321 19.223 60 17.5839 60 15.8404C60 14.0972 59.3212 12.4581 58.0885 11.2253ZM40.7917 9.89473C39.8922 8.99508 39.3967 7.79906 39.3967 6.52688C39.3967 5.25469 39.8922 4.05867 40.7917 3.15902C42.1948 1.75594 44.3889 1.3677 46.1866 2.21414C46.684 2.4484 47.1387 2.77043 47.5274 3.15902L51.5604 7.19215L44.8248 13.928L40.7917 9.89473ZM57.7858 17.8675C57.5517 18.365 57.2297 18.8196 56.841 19.2083C55.438 20.6113 53.2439 20.9995 51.4463 20.1532C50.9488 19.9189 50.4941 19.5969 50.1054 19.2083L46.0723 15.1752L52.808 8.43961L56.841 12.4726C58.244 13.8757 58.6321 16.0698 57.7858 17.8675Z" fill="#FE9015"/>
</g>
<defs>
<clipPath id="clip0_574_2900">
<rect width="60" height="60" fill="white"/>
</clipPath>
</defs>
</svg>
