<svg width="58" height="60" viewBox="0 0 58 60" fill="none" xmlns="http://www.w3.org/2000/svg">
<path d="M51.425 54.3659C51.0964 54.695 51.0964 55.2285 51.425 55.5575C51.7537 55.8866 52.2864 55.8866 52.615 55.5575C52.9436 55.2285 52.9436 54.695 52.615 54.3659C52.2864 54.0369 51.7537 54.0369 51.425 54.3659ZM55.3928 50.1927L42.7724 37.5552C41.5804 36.3591 39.9402 35.7558 38.2584 35.8865L33.9194 31.5415L35.6511 29.8075C37.0977 28.3588 37.7227 26.3948 37.528 24.5002L43.8381 20.6969C44.2539 20.4463 44.3878 19.9058 44.1373 19.49C43.8866 19.074 43.3464 18.9403 42.9302 19.1908L37.0863 22.7131C36.8851 22.2151 36.6201 21.7373 36.292 21.2918L40.95 17.6583C41.333 17.3597 41.4012 16.8071 41.1026 16.4243C40.8037 16.0412 40.2512 15.973 39.8685 16.2717L35.0985 19.9924L33.9127 18.8051L38.2141 14.8124C38.57 14.482 38.5906 13.9257 38.2604 13.5697C37.93 13.2137 37.3737 13.1931 37.0177 13.5234L32.6692 17.5598L31.5088 16.3979L35.6766 12.2243C36.0198 11.8807 36.0194 11.3239 35.6758 10.9807C35.3323 10.6377 34.7755 10.6379 34.4324 10.9816L30.2662 15.1535L29.1289 14.0147L33.2967 9.84121C33.6399 9.49759 33.6395 8.94084 33.2959 8.59769C32.9524 8.25466 32.3956 8.25489 32.0525 8.59851L27.8863 12.7704L26.6967 11.5791L30.5466 6.9776C30.8582 6.60514 30.8089 6.05062 30.4365 5.739C30.0641 5.42751 29.5098 5.47675 29.198 5.84921L25.4493 10.3299L24.2762 9.15562L27.8478 4.18469C28.1312 3.79031 28.0411 3.24094 27.6468 2.95758C27.2527 2.67422 26.703 2.76414 26.4197 3.15852L22.9699 7.95981C22.5376 7.64339 22.0717 7.38359 21.5809 7.18417L25.0986 1.3321C25.3489 0.915912 25.2142 0.375689 24.7982 0.125507C24.3819 -0.124558 23.8416 0.00991195 23.5916 0.4261L19.7959 6.74043C19.5726 6.71757 19.3469 6.7055 19.1194 6.7055C17.3717 6.7055 15.7288 7.38699 14.4932 8.6243C14.15 8.96792 14.1504 9.52467 14.4941 9.86782C14.8378 10.2109 15.3945 10.2105 15.7375 9.867C16.6409 8.96241 17.8419 8.46416 19.1194 8.46416C20.1492 8.46416 21.1293 8.78843 21.9438 9.38786L21.1799 10.4511C20.8965 10.8455 20.9866 11.3948 21.381 11.6782C21.7717 11.9588 22.3226 11.8744 22.6081 11.4772L23.2363 10.6029L24.8761 12.2449C24.8761 12.2449 24.8762 12.245 24.8762 12.2451L26.6436 14.0148L25.6291 15.0307C25.286 15.3743 25.2863 15.931 25.63 16.2742C25.8016 16.4456 26.7017 16.4452 26.8734 16.2734L27.8863 15.2592L29.6442 17.0196C29.6445 17.0198 29.6446 17.02 29.6448 17.0202C29.6449 17.0204 29.6452 17.0205 29.6454 17.0206L31.3794 18.757L30.4467 19.6228C30.0908 19.9532 30.0702 20.5095 30.4004 20.8655C30.7314 21.2221 31.2878 21.2414 31.6431 20.9118L32.623 20.0023L34.4003 21.7821C34.4012 21.783 34.4021 21.7838 34.403 21.7848L34.4067 21.7885C34.9438 22.3263 35.3253 22.9613 35.5532 23.6373L34.6381 24.1888C34.2223 24.4394 34.0884 24.9799 34.3389 25.3957C34.504 25.6696 34.7949 25.8212 35.0929 25.8212C35.3514 25.8212 35.5766 25.6858 35.7906 25.5474C35.7059 26.6481 35.2456 27.7249 34.4068 28.5649L32.6768 30.2971L13.0278 10.6212C11.5879 9.1671 9.17588 9.18082 7.73786 10.6218C6.41134 11.951 6.29293 14.0379 7.38135 15.5021L1.78966 19.3356C0.766426 20.0262 0.627032 21.5341 1.50501 22.4034L9.31715 30.226L21.8873 42.813C22.7479 43.6852 24.2664 43.5502 24.9543 42.5283L28.7584 36.9642L30.781 38.9895C30.9527 39.1615 31.1779 39.2474 31.4031 39.2474C31.628 39.2474 31.8528 39.1617 32.0245 38.9903C32.3681 38.6472 32.3684 38.0905 32.0253 37.7469C32.7197 38.2312 9.70426 15.3959 8.98221 14.6731C8.20904 13.8991 8.20915 12.6389 8.98256 11.8639C9.74366 11.1011 11.0225 11.0951 11.7839 11.8641L36.2852 36.3991C35.6795 36.6803 35.1215 37.0684 34.6354 37.5551C32.3929 39.8007 32.3929 43.4543 34.6354 45.6997L47.2559 58.3373C49.4448 60.5514 53.1768 60.5564 55.3928 58.3373C57.6353 56.0919 57.6353 52.4382 55.3928 50.1927ZM8.61174 16.7907L27.4939 35.6981L23.5028 41.5358C23.4467 41.6178 23.3674 41.6366 23.3251 41.6406C23.2735 41.6455 23.1982 41.6372 23.1317 41.5704L20.7006 39.1362L21.7419 38.0935C22.0851 37.7498 22.0847 37.1931 21.7411 36.8501C21.3976 36.5069 20.8409 36.5073 20.4977 36.8509L19.4581 37.8919L15.941 34.37L16.9823 33.3272C17.3254 32.9836 17.3251 32.4269 16.9815 32.0837C16.6377 31.7407 16.0812 31.7409 15.738 32.0845L14.6983 33.1257L11.1812 29.6038L12.2225 28.561C12.5656 28.2174 12.5653 27.6606 12.2217 27.3175C11.8778 26.9744 11.3213 26.9747 10.9783 27.3183L9.9385 28.3595L6.42142 24.8376L7.46283 23.7948C7.80598 23.4511 7.80563 22.8944 7.46201 22.5514C7.11851 22.2082 6.56175 22.2086 6.2186 22.5522L5.17884 23.5932L2.74959 21.1607C2.67901 21.09 2.67514 21.0076 2.67913 20.9648C2.683 20.9221 2.70187 20.8421 2.78417 20.7858L8.61174 16.7907ZM54.1485 57.0947C53.394 57.8502 52.3912 58.2663 51.3243 58.2663C50.2575 58.2663 49.2547 57.8502 48.5001 57.0947L35.8797 44.4572C34.3215 42.8969 34.3215 40.3581 35.8797 38.7978C37.4138 37.2617 39.9903 37.2426 41.5282 38.7978L54.1485 51.4353C55.7067 52.9957 55.7067 55.5344 54.1485 57.0947Z" fill="#FE9015"/>
</svg>
