<svg width="40" height="40" viewBox="0 0 40 40" fill="none" xmlns="http://www.w3.org/2000/svg">
<circle cx="20" cy="20" r="20" fill="#FE9015"/>
<path d="M19.6109 13.3682C21.6438 13.3682 21.8788 13.3784 22.6859 13.409C23.4316 13.4397 23.83 13.5622 24.0957 13.6745C24.4532 13.8175 24.7086 13.9808 24.9742 14.2463C25.2398 14.5118 25.4033 14.767 25.5463 15.1244C25.6485 15.3899 25.7711 15.7983 25.8119 16.5335C25.8528 17.3401 25.8528 17.5749 25.8528 19.6068C25.8528 21.6387 25.8426 21.8735 25.8119 22.6802C25.7813 23.4255 25.6587 23.8238 25.5463 24.0892C25.4033 24.4466 25.2398 24.7019 24.9742 24.9673C24.7086 25.2328 24.4532 25.3962 24.0957 25.5391C23.83 25.6412 23.4214 25.7637 22.6859 25.8046C21.8788 25.8454 21.6438 25.8454 19.6109 25.8454C17.5779 25.8454 17.3429 25.8352 16.5359 25.8046C15.7901 25.774 15.3917 25.6514 15.1261 25.5391C14.7685 25.3962 14.5131 25.2328 14.2475 24.9673C13.9819 24.7019 13.8184 24.4466 13.6754 24.0892C13.5733 23.8238 13.4507 23.4153 13.4098 22.6802C13.3689 21.8735 13.3689 21.6387 13.3689 19.6068C13.3689 17.5749 13.3791 17.3401 13.4098 16.5335C13.4404 15.7881 13.563 15.3899 13.6754 15.1244C13.8184 14.767 13.9819 14.5118 14.2475 14.2463C14.5131 13.9808 14.7685 13.8175 15.1261 13.6745C15.3917 13.5724 15.8003 13.4499 16.5359 13.409C17.3429 13.3682 17.5779 13.3682 19.6109 13.3682ZM19.6109 12C17.5472 12 17.2816 12.0102 16.4746 12.0408C15.6675 12.0817 15.1159 12.2042 14.6255 12.3982C14.1249 12.5922 13.6958 12.8475 13.277 13.2763C12.8581 13.6949 12.5925 14.1238 12.3984 14.6241C12.2145 15.104 12.0817 15.6656 12.0409 16.4722C12 17.2788 12 17.5443 12 19.6068C12 21.6693 12.0102 21.9348 12.0409 22.7414C12.0817 23.5481 12.2043 24.0994 12.3984 24.5895C12.5925 25.0899 12.8479 25.5187 13.277 25.9373C13.6958 26.356 14.1249 26.6214 14.6255 26.8154C15.1056 26.9992 15.6675 27.132 16.4746 27.1728C17.2816 27.2136 17.5472 27.2136 19.6109 27.2136C21.6745 27.2136 21.9401 27.2034 22.7471 27.1728C23.5542 27.132 24.1059 27.0094 24.5962 26.8154C25.0968 26.6214 25.5259 26.3662 25.9447 25.9373C26.3636 25.5085 26.6292 25.0899 26.8233 24.5895C27.0072 24.1096 27.14 23.5481 27.1809 22.7414C27.2217 21.9348 27.2217 21.6693 27.2217 19.6068C27.2217 17.5443 27.2115 17.2788 27.1809 16.4722C27.14 15.6656 27.0174 15.1142 26.8233 14.6241C26.6292 14.1238 26.3738 13.6949 25.9447 13.2763C25.5157 12.8577 25.0968 12.5922 24.5962 12.3982C24.1161 12.2144 23.5542 12.0817 22.7471 12.0408C21.9401 12 21.6745 12 19.6109 12Z" fill="white"/>
<path d="M19.611 15.6963C17.4554 15.6963 15.7085 17.4423 15.7085 19.5967C15.7085 21.7511 17.4554 23.4971 19.611 23.4971C21.7665 23.4971 23.5135 21.7511 23.5135 19.5967C23.5135 17.4423 21.7665 15.6963 19.611 15.6963ZM19.611 22.1391C18.2114 22.1391 17.0774 21.0057 17.0774 19.6069C17.0774 18.2081 18.2114 17.0747 19.611 17.0747C21.0106 17.0747 22.1445 18.2081 22.1445 19.6069C22.1445 21.0057 21.0106 22.1391 19.611 22.1391Z" fill="white"/>
<path d="M23.6768 16.4517C24.1789 16.4517 24.586 16.0449 24.586 15.543C24.586 15.0411 24.1789 14.6343 23.6768 14.6343C23.1746 14.6343 22.7676 15.0411 22.7676 15.543C22.7676 16.0449 23.1746 16.4517 23.6768 16.4517Z" fill="white"/>
</svg>
