<svg width="60" height="60" viewBox="0 0 60 60" fill="none" xmlns="http://www.w3.org/2000/svg">
<g clip-path="url(#clip0_447_1564)">
<path d="M43.0576 26.1018C44.451 25.6867 45.2468 24.2153 44.8317 22.8219L43.0739 16.9221C42.8728 16.2471 42.4209 15.6908 41.8015 15.3558C41.182 15.0207 40.4691 14.9469 39.7941 15.1481C39.1191 15.3492 38.5629 15.8011 38.2277 16.4205C37.8926 17.04 37.8189 17.753 38.02 18.4279L39.7778 24.3277C40.1809 25.6989 41.6808 26.512 43.0576 26.1018ZM40.296 16.8328C40.7524 16.6968 41.2552 16.9646 41.3892 17.4241L43.147 23.3239C43.2853 23.7802 43.0134 24.2808 42.5556 24.4173C42.0973 24.5539 41.5978 24.2861 41.4623 23.826L39.7045 17.9262C39.5657 17.4682 39.8377 16.9693 40.296 16.8328ZM58.0545 29.6537L53.5986 11.4362C53.1165 9.46359 51.3613 8.08594 49.3301 8.08594H42.1164V4.39453C42.1164 1.97133 40.145 0 37.7218 0H22.2782C19.855 0 17.8836 1.97133 17.8836 4.39453V8.08594H10.7191C8.65125 8.08594 6.88875 9.4943 6.43289 11.5109L2.9257 27.0212C2.81859 27.4946 3.11566 27.9653 3.5891 28.0724C4.06266 28.1795 4.53316 27.8823 4.64027 27.409L8.14758 11.8985C8.42098 10.6887 9.47848 9.84375 10.7191 9.84375H49.3301C50.5487 9.84375 51.6019 10.6703 51.8911 11.8538L56.2436 29.6484H37.0174C36.7241 28.8741 35.9768 28.3209 35.1008 28.3209H24.8992C24.0232 28.3209 23.2759 28.8739 22.9826 29.6484H2.05078C0.920039 29.6484 0 30.5685 0 31.6992V34.6289C0 35.7199 0.857109 36.6122 1.93301 36.6737L6.43324 56.5747C6.88934 58.5914 8.65195 60 10.7196 60H49.2805C51.3482 60 53.1108 58.5914 53.5669 56.5747L58.0671 36.6737C59.1429 36.6122 60 35.7199 60 34.6289V31.6992C60 30.604 59.1362 29.709 58.0545 29.6537ZM36.8429 8.08594H23.1571V5.27344H36.8429V8.08594ZM40.3586 8.08594H38.6007V5.09766C38.6007 4.22531 37.8911 3.51562 37.0187 3.51562H22.9813C22.1089 3.51562 21.3993 4.22531 21.3993 5.09766V8.08594H19.6414V4.39453C19.6414 2.94059 20.8242 1.75781 22.2782 1.75781H37.7218C39.1758 1.75781 40.3586 2.94059 40.3586 4.39453V8.08594ZM24.6062 30.3717C24.6062 30.2102 24.7377 30.0787 24.8992 30.0787H35.1008C35.2623 30.0787 35.3938 30.2102 35.3938 30.3717V35.9563C35.3938 36.1178 35.2623 36.2493 35.1008 36.2493H24.8992C24.7377 36.2493 24.6062 36.1178 24.6062 35.9563V30.3717ZM2.61832 34.9219C2.34738 34.9274 1.75852 35.0672 1.75781 34.6289V31.6992C1.75781 31.5377 1.8893 31.4062 2.05078 31.4062H22.8484V34.9219H2.62254H2.61832ZM58.2422 34.6289C58.2332 34.9904 57.6335 34.9284 57.3823 34.9219H57.3757H39.7887C39.3033 34.9219 38.9098 35.3154 38.9098 35.8008C38.9098 36.2862 39.3033 36.6797 39.7887 36.6797H56.2635L51.8523 56.187C51.5785 57.397 50.521 58.2422 49.2804 58.2422H10.7196C9.47906 58.2422 8.42144 57.397 8.14781 56.187L3.73652 36.6797H22.9826C23.2759 37.4541 24.0232 38.0072 24.8992 38.0072H35.1008C36.2316 38.0072 37.1516 37.0871 37.1516 35.9564V31.4062H57.3599L57.3626 31.4065L57.3663 31.4062C57.6227 31.4062 58.2461 31.273 58.2421 31.6992L58.2422 34.6289ZM39.7941 52.0589C41.157 52.465 42.6705 51.6614 43.0739 50.2848L44.8317 44.385C45.0328 43.71 44.9591 42.9971 44.6241 42.3777C44.289 41.7582 43.7327 41.3063 43.0575 41.1052C41.6645 40.6903 40.1931 41.4863 39.7779 42.8793L38.0201 48.7791C37.6048 50.1724 38.4006 51.6437 39.7941 52.0589ZM39.7046 49.281L41.4625 43.3813C41.576 43.0003 41.9266 42.7533 42.3055 42.7533C42.623 42.7533 42.9254 42.932 43.0779 43.2141C43.1896 43.4205 43.2142 43.6582 43.147 43.8831L41.3892 49.7829C41.2546 50.2393 40.7504 50.5097 40.2959 50.3742C40.0709 50.3072 39.8855 50.1565 39.7737 49.95C39.6621 49.7436 39.6375 49.506 39.7046 49.281ZM17.696 26.212C18.8529 26.212 19.8916 25.4372 20.2223 24.3278L21.9802 18.428C22.1812 17.753 22.1075 17.0401 21.7725 16.4207C21.4375 15.8012 20.8812 15.3492 20.2063 15.1482C19.5313 14.947 18.8183 15.0209 18.1989 15.3559C17.5794 15.6909 17.1275 16.2472 16.9264 16.9222L15.1686 22.822C14.6598 24.4741 15.9451 26.212 17.696 26.212ZM16.8531 23.3239L18.6109 17.4241C18.7189 17.0564 19.0699 16.7958 19.452 16.7958C20.0257 16.7958 20.4647 17.3747 20.2955 17.9262L18.5377 23.826C18.403 24.2825 17.899 24.5527 17.4443 24.4173C16.9861 24.2809 16.7142 23.7816 16.8531 23.3239ZM20.2222 42.8793C20.021 42.2043 19.5691 41.6481 18.9498 41.3129C18.3301 40.9775 17.6169 40.9037 16.9424 41.1053C16.2674 41.3064 15.7112 41.7582 15.3761 42.3777C15.0409 42.9971 14.9672 43.7101 15.1683 44.385L16.9261 50.2848C17.2567 51.3942 18.2955 52.1691 19.4523 52.1691C19.7068 52.1691 19.9604 52.132 20.2059 52.0588C21.5993 51.6437 22.3951 50.1723 21.98 48.7789L20.2222 42.8793ZM19.704 50.3743C19.2456 50.5109 18.7463 50.2431 18.6108 49.783L16.853 43.8832C16.7146 43.4188 16.9799 42.9284 17.4446 42.7898C17.8978 42.6548 18.4032 42.9191 18.5377 43.3813L20.2955 49.2811C20.4336 49.7371 20.1619 50.238 19.704 50.3743Z" fill="#FE9015"/>
</g>
<defs>
<clipPath id="clip0_447_1564">
<rect width="60" height="60" fill="white"/>
</clipPath>
</defs>
</svg>
