<svg width="60" height="60" viewBox="0 0 60 60" fill="none" xmlns="http://www.w3.org/2000/svg">
<g clip-path="url(#clip0_568_14859)">
<path d="M26.1243 49.8201C26.1984 47.7948 25.4877 45.8935 24.1125 44.4234L36.878 31.977C37.2305 31.6333 37.2376 31.0831 36.8939 30.748C36.5502 30.4129 35.9859 30.4198 35.6334 30.7635L22.6033 43.4679C22.3351 43.7294 22.1849 44.0745 22.1803 44.4397C22.1758 44.8076 22.3189 45.1522 22.5865 45.4131C22.5868 45.4134 22.5872 45.4138 22.5876 45.4141C23.7805 46.5772 24.4037 48.1354 24.3427 49.802C24.2816 51.4674 23.5424 53.0134 22.261 54.1552C19.8713 56.2844 16.1883 56.3092 13.8764 54.2114C12.2783 52.7621 11.6125 50.5516 12.1387 48.4444C12.2118 48.1514 12.1258 47.8462 11.9111 47.6368C11.6964 47.4275 11.3834 47.3436 11.0829 47.4149C8.92149 47.9279 6.65437 47.279 5.16795 45.7206C4.23147 44.7395 3.66816 43.4466 3.58186 42.0799C3.55173 41.6019 3.12887 41.2478 2.63736 41.2893C2.14593 41.3309 1.77209 41.7522 1.8023 42.2305C1.91338 43.9898 2.64008 45.656 3.84844 46.922C5.47661 48.627 7.82734 49.4862 10.2046 49.3007C10.0215 51.5297 10.8297 53.7356 12.4471 55.3124C12.5115 55.3751 12.5774 55.4371 12.6443 55.4979C15.6225 58.2 20.3668 58.168 23.4455 55.4248C25.0943 53.9554 26.0457 51.965 26.1243 49.8201Z" fill="#FE9015"/>
<rect x="19" y="38.0486" width="9.96828" height="2" rx="1" transform="rotate(-45 19 38.0486)" fill="#FE9015"/>
<rect x="29" y="28.4124" width="4.82594" height="2" rx="1" transform="rotate(-45 29 28.4124)" fill="#FE9015"/>
<path d="M56.0764 23.6094C58.8898 20.6077 58.9228 15.9819 56.1513 13.0782C54.5237 11.3741 52.1724 10.514 49.7952 10.6995C49.9856 8.38179 49.1045 6.08884 47.3555 4.5021C44.3774 1.79994 39.6329 1.83207 36.5542 4.57528C34.9053 6.04465 33.9539 8.03517 33.8754 10.18C33.8012 12.2071 34.5132 14.1098 35.887 15.5767L15.2068 35.74C12.2234 33.0875 7.58494 33.1078 4.4884 35.8419C4.1188 36.1682 4.08305 36.7182 4.40842 37.0702C4.4186 37.0813 4.42903 37.092 4.43972 37.1024C4.76886 37.4233 5.30871 37.4331 5.66667 37.117C8.14177 34.9316 11.886 34.98 14.1937 37.23C14.1941 37.2304 14.1944 37.2307 14.1947 37.231C14.4592 37.4889 14.8127 37.6286 15.1901 37.6241C15.5645 37.6196 15.9185 37.4732 16.1868 37.2117L37.3965 16.5322C37.6685 16.2669 37.8187 15.9169 37.8194 15.5465C37.8202 15.1838 37.677 14.8442 37.4162 14.5899C37.4137 14.5872 37.4114 14.5851 37.4089 14.5827C36.2181 13.4201 35.5961 11.8631 35.657 10.1982C35.7179 8.53284 36.4572 6.98682 37.7386 5.84507C40.1282 3.71572 43.8112 3.69096 46.1232 5.78872C47.7208 7.23643 48.3872 9.4485 47.8611 11.5558C47.7879 11.8488 47.8739 12.1541 48.0886 12.3634C48.3033 12.5727 48.6164 12.6566 48.9169 12.5853C51.0781 12.0723 53.3446 12.7208 54.8319 14.2797C56.9835 16.5338 56.9581 20.1247 54.7742 22.4546C53.6032 23.7039 52.0175 24.4248 50.3094 24.4843C48.602 24.5437 47.0051 23.9372 45.8125 22.7763C45.8101 22.7739 45.8083 22.7721 45.8051 22.7691C45.5443 22.5148 45.196 22.3752 44.824 22.376C44.4441 22.3766 44.0851 22.5231 43.813 22.7883L40.1232 26.386C39.7706 26.7297 39.7635 27.2799 40.1072 27.615C40.4509 27.9501 41.0153 27.9432 41.3678 27.5995L44.7928 24.26C46.2974 25.5995 48.249 26.2937 50.328 26.2213C52.5279 26.1447 54.5694 25.2171 56.0764 23.6094Z" fill="#FE9015"/>
</g>
<defs>
<clipPath id="clip0_568_14859">
<rect width="60" height="60" fill="white"/>
</clipPath>
</defs>
</svg>
