<svg width="24" height="60" viewBox="0 0 24 60" fill="none" xmlns="http://www.w3.org/2000/svg">
<path d="M23.1914 30C23.1914 28.7125 22.7329 27.4931 21.9118 26.5357C22.8864 25.4252 23.4258 24.0157 23.4258 22.5C23.4258 19.1075 20.6658 16.3477 17.2734 16.3477H17.2584C17.1084 16.3477 16.9805 16.2391 16.9805 16.089V0.878906C16.9805 0.393516 16.5871 0 16.1016 0H7.89844C7.41305 0 7.01953 0.393516 7.01953 0.878906V3.70195C7.01953 4.18734 7.41305 4.58086 7.89844 4.58086C8.38383 4.58086 8.77734 4.18734 8.77734 3.70195V1.75781H15.2227V16.089C15.2227 17.2059 16.1321 18.1055 17.2563 18.1055H17.2734C19.6966 18.1055 21.668 20.0768 21.668 22.5C21.668 25.6228 18.4683 27.4496 16.6457 26.7739C13.6499 25.6629 10.3502 25.663 7.35445 26.7739C5.52188 27.4533 2.33203 25.6092 2.33203 22.5C2.33203 20.0768 4.30336 18.1055 6.72656 18.1055H6.74156C7.86164 18.1055 8.77734 17.2126 8.77734 16.089V7.44644C8.77734 6.96105 8.38383 6.56754 7.89844 6.56754C7.41305 6.56754 7.01953 6.96105 7.01953 7.44644V16.089C7.01953 16.2382 6.89344 16.3477 6.73945 16.3477H6.72656C3.3341 16.3477 0.574219 19.1075 0.574219 22.5C0.574219 24.0151 1.1141 25.4245 2.08922 26.535C1.26141 27.4992 0.808594 28.714 0.808594 30C0.808594 31.2875 1.26715 32.5069 2.08816 33.4644C1.11375 34.5748 0.574219 35.9844 0.574219 37.5C0.574219 38.1183 0.665859 38.7291 0.846679 39.3153C0.989765 39.7792 1.48184 40.0392 1.94555 39.8962C2.40937 39.7532 2.66953 39.2612 2.52644 38.7974C2.39742 38.3791 2.33203 37.9426 2.33203 37.5C2.33203 34.3772 5.53172 32.5505 7.35445 33.2261C10.3501 34.3371 13.6496 34.3372 16.6457 33.2261C18.4782 32.5467 21.668 34.3909 21.668 37.5C21.668 39.9232 19.6966 41.8945 17.2734 41.8945H17.2583C16.1406 41.8945 15.2227 42.7852 15.2227 43.911V52.4628C15.2227 52.9482 15.6161 53.3418 16.1016 53.3418C16.5871 53.3418 16.9805 52.9482 16.9805 52.4628V43.911C16.9805 43.7613 17.1073 43.6523 17.2605 43.6523H17.2734C20.6658 43.6523 23.4258 40.8925 23.4258 37.5C23.4258 35.9849 22.8859 34.5755 21.9108 33.465C22.7386 32.5008 23.1914 31.286 23.1914 30ZM16.0343 31.5779C13.4329 32.5427 10.5673 32.5427 7.9657 31.5779C6.61113 31.0754 4.88613 31.3608 3.41918 32.3162C2.87203 31.6752 2.56641 30.8604 2.56641 30C2.56641 29.1401 2.86816 28.328 3.42012 27.6827C4.88766 28.6384 6.61242 28.924 7.9657 28.4221C10.5675 27.4573 13.4331 27.4574 16.0343 28.4221C16.478 28.5866 16.9613 28.6669 17.4625 28.6669C18.4916 28.6669 19.5954 28.3277 20.582 27.6851C21.1284 28.326 21.4337 29.1402 21.4337 30C21.4337 30.8599 21.1321 31.672 20.58 32.3174C19.1123 31.3617 17.3878 31.076 16.0343 31.5779Z" fill="#FE9015"/>
<path d="M16.1016 55.3288C15.6161 55.3288 15.2227 55.7223 15.2227 56.2077V58.2425H8.77736V43.9113C8.77736 42.7943 7.86776 41.8949 6.74358 41.8949H6.72658C5.89115 41.8949 5.07869 41.6598 4.37721 41.2149C3.96705 40.9549 3.42424 41.0765 3.16432 41.4866C2.9044 41.8965 3.02604 42.4395 3.43596 42.6995C4.41951 43.323 5.55729 43.6527 6.72658 43.6527H6.74147C6.89135 43.6527 7.01955 43.7608 7.01955 43.9113V59.1214C7.01955 59.6068 7.41307 60.0003 7.89846 60.0003H16.1016C16.5871 60.0003 16.9805 59.6068 16.9805 59.1214V56.2077C16.9805 55.7223 16.5871 55.3288 16.1016 55.3288Z" fill="#FE9015"/>
</svg>
