<svg width="161" height="73" viewBox="0 0 161 73" fill="none" xmlns="http://www.w3.org/2000/svg">
<path fill-rule="evenodd" clip-rule="evenodd" d="M23.165 39.5234C22.014 39.5212 20.8819 39.8158 19.879 40.3786C18.9634 39.5559 17.838 39.0006 16.6264 38.7737C15.4147 38.5467 14.1638 38.6569 13.0109 39.0921C11.858 39.5273 10.8478 40.2708 10.0913 41.2407C9.33482 42.2106 8.86126 43.3695 8.72269 44.5901C8.58411 45.8107 8.78586 47.0457 9.30579 48.1595C9.82572 49.2733 10.6437 50.2228 11.6699 50.9036C12.696 51.5844 13.8907 51.9702 15.1226 52.0187C16.3545 52.0672 17.576 51.7764 18.6528 51.1783C19.4623 51.9025 20.4365 52.4197 21.4914 52.6852C22.5462 52.9506 23.65 52.9564 24.7076 52.7021C25.7652 52.4477 26.7449 51.9408 27.562 51.2251C28.3791 50.5094 29.0093 49.6064 29.3981 48.594C29.7868 47.5815 29.9226 46.4901 29.7936 45.4137C29.6646 44.3373 29.2747 43.3084 28.6576 42.4156C28.0405 41.5228 27.2147 40.793 26.2514 40.2892C25.2881 39.7853 24.2162 39.5225 23.1282 39.5234" fill="white"/>
<path fill-rule="evenodd" clip-rule="evenodd" d="M47.0264 18.6205C45.9953 18.6201 44.9816 18.8853 44.0836 19.3902C43.2612 18.6555 42.2514 18.161 41.1653 17.9609C40.0792 17.7609 38.9587 17.863 37.927 18.2561C36.8954 18.6492 35.9924 19.318 35.3174 20.1891C34.6424 21.0602 34.2215 22.0999 34.1009 23.1938C33.9803 24.2878 34.1647 25.3936 34.6338 26.39C35.1029 27.3863 35.8386 28.2345 36.76 28.8413C37.6815 29.4482 38.753 29.7902 39.8568 29.8299C40.9606 29.8695 42.054 29.6051 43.0169 29.0659C43.7424 29.7134 44.6151 30.1754 45.5597 30.4122C46.5043 30.6489 47.4925 30.6533 48.4392 30.4249C49.3859 30.1966 50.2626 29.7423 50.9939 29.1012C51.7252 28.4602 52.2891 27.6516 52.6371 26.7452C52.985 25.8387 53.1066 24.8616 52.9912 23.8979C52.8759 22.9343 52.5271 22.013 51.975 21.2135C51.4229 20.414 50.684 19.7602 49.8219 19.3085C48.9598 18.8568 48.0004 18.6207 47.0264 18.6205Z" fill="white"/>
<path fill-rule="evenodd" clip-rule="evenodd" d="M64.9898 65.7165C61.0907 61.9293 58.0008 55.5643 56.0635 47.9043L55.9409 47.3668C55.8019 46.7966 55.6711 46.2224 55.5485 45.6442L55.4627 45.351C54.1186 38.7908 53.6119 32.0876 53.9545 25.4008C53.1296 22.8447 52.5869 20.2065 52.336 17.5331C51.6371 17.411 51.024 17.2766 50.411 17.13C49.7979 16.9834 49.1848 16.8124 48.535 16.6047C48.6648 16.3316 48.7321 16.0333 48.7321 15.7312C48.7321 15.429 48.6648 15.1307 48.535 14.8576C48.1415 15.1888 47.6778 15.4268 47.1787 15.5538C46.6796 15.6807 46.1582 15.6933 45.6535 15.5907C46.5363 15.4074 47.0023 14.369 46.6344 13.1473C46.2543 14.369 44.0963 15.0043 42.441 14.2835L41.6808 13.9292C40.4546 13.355 39.4247 12.8052 38.5664 12.341C37.4167 13.0019 36.3034 13.7237 35.2312 14.5034C29.4316 36.5793 30.8294 57.3113 38.6399 67.8545C36.016 68.6974 37.1563 72.0082 39.486 71.1286C39.7488 71.6402 40.1842 72.0432 40.7157 72.2667C41.2472 72.4901 41.8407 72.5197 42.3919 72.3503C42.7151 72.2662 43.0097 72.0971 43.2448 71.8606C43.48 71.6242 43.647 71.3292 43.7284 71.0064C46.5976 70.3467 44.8442 65.8265 42.1099 67.3413C41.4452 66.4207 40.8936 65.4241 40.4669 64.3726C39.4395 61.7561 38.7195 59.0299 38.3211 56.2484C37.9817 54.5026 37.8786 52.7194 38.0146 50.9463C38.8361 47.3545 46.5976 48.2464 48.3755 51.0929C49.688 53.2898 51.142 55.3996 52.7284 57.409C54.2978 59.437 55.8796 61.2451 57.2774 62.7478C60.0607 65.7409 62.182 67.5735 62.182 67.5735C59.0921 69.5159 61.9735 73.6819 64.6343 71.6417C64.9949 71.8793 65.4058 72.0306 65.8348 72.084C66.2638 72.1374 66.6994 72.0914 67.1076 71.9495C67.5159 71.8076 67.8857 71.5737 68.1883 71.266C68.4909 70.9583 68.7181 70.5852 68.8522 70.1757C68.9706 69.585 68.8658 68.9715 68.5579 68.4531C70.1642 66.4739 67.3931 63.8107 65.0757 65.7409L64.9898 65.7165ZM34.4343 23.4828C34.4009 22.447 34.6765 21.4245 35.2262 20.5447C35.7759 19.665 36.575 18.9673 37.5226 18.5399C38.4701 18.1126 39.5236 17.9747 40.5498 18.1438C41.576 18.3128 42.5288 18.7812 43.2879 19.4897C44.047 20.1982 44.5782 21.1151 44.8144 22.1243C45.0507 23.1336 44.9813 24.19 44.615 25.16C44.2488 26.1299 43.6022 26.97 42.7569 27.5739C41.9116 28.1778 40.9056 28.5184 39.8661 28.5528C39.1752 28.5756 38.4866 28.4625 37.8396 28.22C37.1926 27.9775 36.6 27.6104 36.0955 27.1395C35.591 26.6686 35.1847 26.1033 34.8996 25.4759C34.6146 24.8484 34.4564 24.1711 34.4343 23.4828ZM43.0173 36.1272L41.693 34.9788L41.1168 35.6508C38.4805 34.0626 37.2421 29.2369 37.2421 29.2369C41.7421 31.8391 49.2706 31.045 49.2706 31.045C49.2706 31.045 46.0704 35.8096 43.0295 36.115L43.0173 36.1272ZM48.6698 29.6523C47.9781 29.6759 47.2925 29.5157 46.6835 29.188C46.4589 29.1194 46.2589 28.9879 46.1072 28.8093C45.388 28.2359 44.8943 27.4287 44.7124 26.529C44.5305 25.6293 44.6721 24.6946 45.1124 23.8885C45.5526 23.0824 46.2634 22.4563 47.1204 22.1198C47.9774 21.7834 48.9258 21.758 49.7996 22.0482C50.6734 22.3385 51.4169 22.9257 51.8999 23.7072C52.3828 24.4886 52.5745 25.4145 52.4412 26.3226C52.308 27.2306 51.8584 28.0631 51.1711 28.6741C50.4838 29.2851 49.6027 29.6357 48.6821 29.6645L48.6698 29.6523Z" fill="#F49822"/>
<path fill-rule="evenodd" clip-rule="evenodd" d="M43.7636 46.2548C41.4339 45.0332 39.4598 41.7102 40.9925 37.2877C41.3888 36.874 41.7159 36.3997 41.9612 35.8827C42.047 35.7117 42.1206 35.5284 42.1941 35.3452C42.2383 36.1259 42.4605 36.8863 42.844 37.5686C43.7145 41.2337 46.3875 40.745 47.7486 42.8952C48.9747 44.8621 46.9025 47.9163 43.7513 46.2548" fill="#CC1721"/>
<path fill-rule="evenodd" clip-rule="evenodd" d="M41.3137 38.717C43.0671 42.2966 45.7279 41.1604 47.6407 43.0907C47.8186 43.2703 47.9675 43.4764 48.0821 43.7015C48.0273 43.4153 47.9191 43.1418 47.7633 42.8952C46.4023 40.745 43.717 41.2337 42.8587 37.5686C42.4752 36.8863 42.253 36.1259 42.2088 35.3452C42.1353 35.5284 42.0617 35.7117 41.9759 35.8827C41.7308 36.3998 41.4037 36.8742 41.0072 37.2877C40.9214 37.532 40.8478 37.7763 40.7865 38.0207C40.9443 38.2727 41.1249 38.5099 41.326 38.7292" fill="#A31C25"/>
<path fill-rule="evenodd" clip-rule="evenodd" d="M39.2407 24.5821C39.2796 24.7506 39.2684 24.9267 39.2086 25.089C39.1488 25.2512 39.043 25.3927 38.904 25.4962C38.765 25.5996 38.5988 25.6606 38.4256 25.6716C38.2525 25.6827 38.0799 25.6434 37.9287 25.5585C37.7776 25.4736 37.6545 25.3467 37.5744 25.1934C37.4943 25.0401 37.4606 24.8668 37.4775 24.6948C37.4944 24.5228 37.5611 24.3593 37.6695 24.2243C37.7779 24.0894 37.9234 23.9887 38.0882 23.9346C37.6894 23.8589 37.2769 23.9083 36.9075 24.076C36.5381 24.2438 36.23 24.5215 36.0257 24.871C35.8214 25.2205 35.731 25.6246 35.7668 26.0275C35.8027 26.4303 35.9631 26.8122 36.226 27.1205C36.4888 27.4287 36.8411 27.6481 37.2344 27.7484C37.6276 27.8487 38.0424 27.825 38.4216 27.6806C38.8008 27.5361 39.1257 27.278 39.3514 26.9419C39.5772 26.6058 39.6927 26.2081 39.6822 25.8038C39.6663 25.3521 39.4928 24.9201 39.1917 24.5821" fill="#322726"/>
<path fill-rule="evenodd" clip-rule="evenodd" d="M47.8228 27.4897C47.8228 27.8137 47.6936 28.1245 47.4636 28.3536C47.2337 28.5827 46.9218 28.7114 46.5966 28.7114C46.4627 28.7337 46.3259 28.7337 46.192 28.7114C45.9674 28.6428 45.7674 28.5113 45.6157 28.3327C45.4408 28.1226 45.3415 27.8603 45.3337 27.5875C45.3337 27.2634 45.4629 26.9527 45.6928 26.7236C45.9228 26.4945 46.2346 26.3658 46.5598 26.3658H46.805C46.6876 26.4009 46.5853 26.4741 46.5143 26.5736C46.4432 26.6732 46.4075 26.7935 46.4127 26.9155C46.4127 27.0646 46.4721 27.2075 46.5779 27.3129C46.6837 27.4183 46.8271 27.4775 46.9767 27.4775C47.1263 27.4775 47.2698 27.4183 47.3755 27.3129C47.4813 27.2075 47.5407 27.0646 47.5407 26.9155C47.5455 26.879 47.5455 26.8421 47.5407 26.8056C47.7297 27.0188 47.8381 27.291 47.8473 27.5752" fill="#322726"/>
<path fill-rule="evenodd" clip-rule="evenodd" d="M52.7286 57.4088H52.4834C48.4442 58.1421 44.2931 57.9878 40.32 56.9568C39.6446 56.7518 38.9848 56.4987 38.3459 56.1993C38.0026 54.4706 37.8912 52.7041 38.0148 50.9461C38.8363 47.3543 46.5978 48.2462 48.3758 51.0927C49.6882 53.2896 51.1422 55.3994 52.7286 57.4088Z" fill="#C94918"/>
<path fill-rule="evenodd" clip-rule="evenodd" d="M69.2324 40.3053C68.4963 42.1936 67.3045 43.872 65.7624 45.1921C63.936 46.9772 61.5335 48.0594 58.9818 48.2463C57.9925 48.2784 57.0042 48.159 56.0513 47.892L55.9287 47.3545L55.5363 45.6319L55.4628 45.3509C57.2104 45.0209 58.8556 44.286 60.2655 43.2055C61.6754 42.1251 62.8105 40.7294 63.5791 39.1311C64.3478 37.5329 64.7283 35.777 64.6901 34.0051C64.6519 32.2333 64.196 30.4953 63.3592 28.9314C64.5571 29.6034 65.6082 30.5072 66.4505 31.5898C67.2927 32.6724 67.9093 33.9119 68.2637 35.2353C68.5351 34.5577 68.7644 33.8641 68.9504 33.1584C69.3065 35.8246 69.0465 38.5365 68.1902 41.0872L69.2324 40.3053Z" fill="#C94918"/>
<path fill-rule="evenodd" clip-rule="evenodd" d="M41.7546 10.7038C40.6227 11.1368 39.5313 11.6682 38.493 12.292C37.3433 12.9529 36.23 13.6747 35.1579 14.4544C33.1213 15.9332 31.2028 17.567 29.4195 19.3411C28.2056 10.4472 31.9577 0.148392 33.7478 0.148392C34.0053 0.148392 34.2138 0.356079 34.3732 0.808103C35.5993 4.47317 41.73 10.7038 41.73 10.7038" fill="#C94918"/>
<path fill-rule="evenodd" clip-rule="evenodd" d="M41.7536 10.7038L41.6064 13.8801C40.3803 13.3059 39.3503 12.7562 38.492 12.2919C39.5303 11.6682 40.6217 11.1368 41.7536 10.7038Z" fill="#AA3D19"/>
<path fill-rule="evenodd" clip-rule="evenodd" d="M64.4763 20.0741C61.7708 24.0876 59.6335 28.4534 58.1248 33.0485C56.2484 30.7941 54.8323 28.1962 53.9559 25.4007C53.131 22.8446 52.5882 20.2064 52.3374 17.533C52.3374 16.9711 52.227 16.4091 52.1903 15.8471C52.1743 15.6276 52.2132 15.4077 52.3034 15.2069C52.3937 15.006 52.5324 14.8306 52.7073 14.6963C52.8822 14.562 53.0878 14.4729 53.3057 14.4371C53.5236 14.4013 53.747 14.4198 53.9559 14.491C56.212 15.2118 60.1602 16.4213 63.385 17.1665C63.684 17.2361 63.9615 17.3774 64.1933 17.578C64.4252 17.7786 64.6045 18.0325 64.7156 18.3177C64.8267 18.603 64.8663 18.9109 64.831 19.2148C64.7958 19.5187 64.6866 19.8095 64.513 20.0619" fill="#FE9015"/>
<path fill-rule="evenodd" clip-rule="evenodd" d="M42.5373 64.2991C41.7649 65.2886 40.5019 64.409 40.4529 64.3724C39.4255 61.7558 38.7055 59.0296 38.3071 56.2482C38.9461 56.5475 39.6058 56.8006 40.2812 57.0056C40.178 58.9014 40.3724 60.8016 40.8575 62.6376C42.0837 62.0267 43.3098 63.3095 42.5373 64.3113" fill="#C94918"/>
<path fill-rule="evenodd" clip-rule="evenodd" d="M56.3456 64.7512C56.1169 64.7962 55.8801 64.7752 55.6629 64.6908C55.4457 64.6064 55.2572 64.4621 55.1194 64.2748C54.114 65.8263 52.2503 63.6884 54.0649 62.7232C53.3682 61.02 52.8425 59.2521 52.4955 57.4456H52.7407C54.3102 59.4736 55.8919 61.2817 57.2897 62.7843C58.0131 63.6517 57.1794 64.6046 56.3824 64.7879" fill="#C94918"/>
<path fill-rule="evenodd" clip-rule="evenodd" d="M43.4077 71.6905C34.6162 62.6011 32.6789 44.8134 36.6394 27.441C35.8111 26.7962 35.1956 25.9191 34.8724 24.9225C34.5491 23.926 34.5329 22.8559 34.8259 21.8501C35.1188 20.8443 35.7075 19.9491 36.5159 19.2798C37.3243 18.6105 38.3154 18.1978 39.3614 18.095C39.9132 16.5679 40.4772 15.1263 41.1148 13.6481C40.1707 13.1839 39.1898 12.6707 38.4909 12.292C37.3412 12.953 36.2279 13.6748 35.1557 14.4544C29.4296 36.5792 30.8397 57.3112 38.638 67.8544C35.8669 68.7829 37.2034 72.057 39.5086 71.1774C39.7725 71.697 40.214 72.1057 40.7535 72.3297C41.2931 72.5537 41.8952 72.5783 42.4513 72.3991C42.821 72.2633 43.15 72.0363 43.4077 71.7393" fill="#E67B07"/>
<path fill-rule="evenodd" clip-rule="evenodd" d="M37.7922 31.0204C35.0211 32.3032 33.7459 34.7954 33.7581 35.7972C33.7704 36.799 33.8808 39.56 38.0129 39.4623C39.239 39.1324 40.9802 39.0102 42.3412 35.1864C42.1573 37.0922 42.6722 39.8532 45.8112 40.2319C46.4903 40.4151 47.2025 40.441 47.8933 40.3076C48.584 40.1742 49.2349 39.885 49.7962 39.4623C50.3531 38.9177 50.7406 38.2248 50.9124 37.4664C51.0842 36.7081 51.033 35.9164 50.7648 35.1864C50.164 32.8529 47.0864 31.8389 47.0864 31.8389L37.7922 31.0204Z" fill="#FCCA7E"/>
<path fill-rule="evenodd" clip-rule="evenodd" d="M47.3332 35.5774C47.3355 35.645 47.3177 35.7118 47.282 35.7693C47.2463 35.8268 47.1943 35.8725 47.1326 35.9006C47.0708 35.9287 47.0021 35.9379 46.9351 35.927C46.8681 35.9162 46.8058 35.8858 46.7561 35.8397C46.7064 35.7937 46.6716 35.7339 46.6559 35.6681C46.6403 35.6023 46.6446 35.5333 46.6683 35.4699C46.692 35.4066 46.7341 35.3516 46.7891 35.312C46.8441 35.2724 46.9097 35.25 46.9776 35.2475C47.0227 35.2459 47.0676 35.2531 47.1099 35.2688C47.1522 35.2845 47.191 35.3084 47.224 35.339C47.257 35.3697 47.2837 35.4065 47.3024 35.4474C47.3211 35.4883 47.3316 35.5325 47.3332 35.5774Z" fill="#C3793A"/>
<path fill-rule="evenodd" clip-rule="evenodd" d="M49.2217 34.2213C49.2234 34.2662 49.2161 34.311 49.2004 34.3532C49.1846 34.3953 49.1607 34.4339 49.1299 34.4668C49.0992 34.4997 49.0622 34.5263 49.0212 34.5449C48.9801 34.5636 48.9358 34.574 48.8907 34.5756C48.8229 34.578 48.7558 34.5602 48.6981 34.5247C48.6404 34.4891 48.5945 34.4373 48.5663 34.3757C48.5381 34.3142 48.5289 34.2457 48.5398 34.179C48.5506 34.1122 48.5811 34.0501 48.6274 34.0006C48.6736 33.9511 48.7336 33.9164 48.7997 33.9008C48.8657 33.8853 48.9349 33.8896 48.9985 33.9132C49.0621 33.9368 49.1173 33.9787 49.157 34.0335C49.1968 34.0884 49.2193 34.1537 49.2217 34.2213Z" fill="#C3793A"/>
<path fill-rule="evenodd" clip-rule="evenodd" d="M48.732 36.2004C48.7344 36.2679 48.7166 36.3347 48.6809 36.3923C48.6452 36.4498 48.5932 36.4955 48.5314 36.5236C48.4697 36.5516 48.401 36.5608 48.3339 36.55C48.2669 36.5392 48.2047 36.5088 48.155 36.4627C48.1053 36.4166 48.0704 36.3569 48.0548 36.2911C48.0392 36.2252 48.0435 36.1563 48.0672 36.0929C48.0909 36.0295 48.1329 35.9746 48.188 35.935C48.243 35.8954 48.3086 35.873 48.3764 35.8705C48.4215 35.8689 48.4665 35.8761 48.5088 35.8918C48.5511 35.9075 48.5898 35.9313 48.6229 35.962C48.6559 35.9926 48.6825 36.0294 48.7013 36.0703C48.72 36.1112 48.7304 36.1554 48.732 36.2004Z" fill="#C3793A"/>
<path fill-rule="evenodd" clip-rule="evenodd" d="M49.0484 38.1062C49.0508 38.1738 49.033 38.2406 48.9973 38.2981C48.9616 38.3557 48.9095 38.4014 48.8478 38.4294C48.786 38.4575 48.7173 38.4667 48.6503 38.4559C48.5833 38.4451 48.521 38.4147 48.4713 38.3686C48.4216 38.3225 48.3868 38.2628 48.3712 38.1969C48.3555 38.1311 48.3598 38.0622 48.3835 37.9988C48.4073 37.9354 48.4493 37.8805 48.5043 37.8409C48.5594 37.8013 48.6249 37.7788 48.6928 37.7764C48.7379 37.7747 48.7829 37.782 48.8251 37.7977C48.8674 37.8134 48.9062 37.8372 48.9392 37.8679C48.9722 37.8985 48.9989 37.9353 49.0176 37.9762C49.0363 38.0171 49.0468 38.0613 49.0484 38.1062Z" fill="#C3793A"/>
<path fill-rule="evenodd" clip-rule="evenodd" d="M47.0378 37.3366C47.0394 37.3816 47.0322 37.4264 47.0164 37.4685C47.0007 37.5106 46.9767 37.5492 46.946 37.5822C46.9152 37.6151 46.8783 37.6416 46.8372 37.6603C46.7962 37.6789 46.7518 37.6893 46.7067 37.6909C46.6389 37.6933 46.5719 37.6756 46.5141 37.64C46.4564 37.6044 46.4105 37.5526 46.3824 37.4911C46.3542 37.4295 46.3449 37.3611 46.3558 37.2943C46.3667 37.2275 46.3972 37.1655 46.4434 37.116C46.4897 37.0665 46.5496 37.0317 46.6157 37.0162C46.6818 37.0006 46.751 37.0049 46.8146 37.0285C46.8782 37.0521 46.9333 37.094 46.9731 37.1489C47.0128 37.2037 47.0353 37.269 47.0378 37.3366Z" fill="#C3793A"/>
<path fill-rule="evenodd" clip-rule="evenodd" d="M50.1417 36.5424C50.1433 36.5874 50.136 36.6322 50.1203 36.6743C50.1045 36.7164 50.0806 36.7551 50.0498 36.788C50.0191 36.8209 49.9821 36.8474 49.9411 36.8661C49.9 36.8847 49.8557 36.8952 49.8106 36.8967C49.7195 36.8967 49.6322 36.8607 49.5678 36.7965C49.5035 36.7324 49.4673 36.6454 49.4673 36.5547C49.4673 36.4639 49.5035 36.3769 49.5678 36.3128C49.6322 36.2486 49.7195 36.2126 49.8106 36.2126C49.8557 36.2109 49.9007 36.2182 49.943 36.2339C49.9852 36.2496 50.024 36.2734 50.057 36.3041C50.09 36.3347 50.1167 36.3715 50.1354 36.4124C50.1542 36.4533 50.1646 36.4975 50.1662 36.5424" fill="#C3793A"/>
<path fill-rule="evenodd" clip-rule="evenodd" d="M36.884 34.3556C36.8197 34.3758 36.7509 34.3767 36.6861 34.3581C36.6213 34.3396 36.5634 34.3024 36.5197 34.2513C36.4759 34.2002 36.4482 34.1374 36.4401 34.0707C36.4319 34.0041 36.4437 33.9365 36.4738 33.8764C36.504 33.8163 36.5512 33.7664 36.6096 33.7329C36.6681 33.6994 36.7351 33.6838 36.8024 33.688C36.8697 33.6922 36.9342 33.716 36.988 33.7565C37.0418 33.7971 37.0824 33.8525 37.1047 33.9158C37.12 33.9591 37.1264 34.005 37.1235 34.0508C37.1206 34.0966 37.1085 34.1413 37.088 34.1823C37.0674 34.2234 37.0387 34.2599 37.0037 34.2896C36.9686 34.3194 36.9279 34.3418 36.884 34.3556Z" fill="#C3793A"/>
<path fill-rule="evenodd" clip-rule="evenodd" d="M36.9736 36.1151C36.9093 36.1352 36.8405 36.1361 36.7757 36.1176C36.7109 36.099 36.653 36.0619 36.6093 36.0108C36.5655 35.9597 36.5378 35.8968 36.5297 35.8302C36.5215 35.7635 36.5333 35.6959 36.5634 35.6358C36.5936 35.5757 36.6408 35.5258 36.6992 35.4923C36.7577 35.4588 36.8247 35.4432 36.892 35.4474C36.9593 35.4516 37.0238 35.4754 37.0776 35.516C37.1314 35.5565 37.172 35.6119 37.1943 35.6752C37.2096 35.7185 37.216 35.7644 37.2131 35.8102C37.2102 35.856 37.1981 35.9007 37.1776 35.9418C37.157 35.9828 37.1283 36.0193 37.0933 36.0491C37.0582 36.0788 37.0175 36.1013 36.9736 36.1151Z" fill="#C3793A"/>
<path fill-rule="evenodd" clip-rule="evenodd" d="M37.7793 37.5077C37.7154 37.5301 37.6462 37.5332 37.5806 37.5166C37.5149 37.5 37.4557 37.4644 37.4103 37.4143C37.3649 37.3641 37.3354 37.3018 37.3255 37.235C37.3156 37.1682 37.3258 37.1 37.3547 37.039C37.3836 36.978 37.43 36.9268 37.4881 36.892C37.5461 36.8572 37.6132 36.8403 37.6809 36.8433C37.7485 36.8464 37.8138 36.8694 37.8684 36.9094C37.923 36.9493 37.9645 37.0045 37.9877 37.0679C38.0033 37.1104 38.0102 37.1555 38.0081 37.2007C38.006 37.2459 37.995 37.2902 37.9756 37.3311C37.9562 37.372 37.9289 37.4087 37.8952 37.439C37.8615 37.4693 37.8221 37.4927 37.7793 37.5077Z" fill="#C3793A"/>
<path fill-rule="evenodd" clip-rule="evenodd" d="M38.6278 35.9073C38.5635 35.9274 38.4947 35.9283 38.4299 35.9098C38.3651 35.8912 38.3072 35.8541 38.2634 35.803C38.2197 35.7519 38.192 35.689 38.1839 35.6224C38.1757 35.5557 38.1874 35.4881 38.2176 35.428C38.2477 35.3679 38.295 35.318 38.3534 35.2845C38.4118 35.251 38.4789 35.2354 38.5462 35.2396C38.6134 35.2438 38.678 35.2677 38.7318 35.3082C38.7855 35.3487 38.8261 35.4041 38.8485 35.4675C38.8638 35.5107 38.8702 35.5566 38.8673 35.6024C38.8644 35.6482 38.8523 35.6929 38.8317 35.734C38.8111 35.775 38.7825 35.8115 38.7474 35.8413C38.7124 35.871 38.6717 35.8935 38.6278 35.9073Z" fill="#C3793A"/>
<path fill-rule="evenodd" clip-rule="evenodd" d="M35.4528 35.9073C35.3885 35.9274 35.3197 35.9283 35.2549 35.9098C35.1901 35.8912 35.1322 35.8541 35.0884 35.803C35.0447 35.7519 35.017 35.689 35.0089 35.6224C35.0007 35.5557 35.0124 35.4881 35.0426 35.428C35.0727 35.3679 35.12 35.318 35.1784 35.2845C35.2368 35.251 35.3039 35.2354 35.3712 35.2396C35.4385 35.2438 35.503 35.2677 35.5568 35.3082C35.6105 35.3487 35.6511 35.4041 35.6735 35.4675C35.6888 35.5107 35.6952 35.5566 35.6923 35.6024C35.6894 35.6482 35.6773 35.6929 35.6567 35.734C35.6362 35.775 35.6075 35.8115 35.5725 35.8413C35.5374 35.871 35.4967 35.8935 35.4528 35.9073Z" fill="#C3793A"/>
<path fill-rule="evenodd" clip-rule="evenodd" d="M35.8444 37.4954C35.7517 37.5327 35.648 37.5317 35.556 37.4928C35.464 37.4539 35.3913 37.3801 35.3539 37.2877C35.3165 37.1954 35.3175 37.092 35.3566 37.0004C35.3957 36.9088 35.4697 36.8363 35.5624 36.7991C35.6477 36.7731 35.7398 36.7812 35.8192 36.8218C35.8986 36.8623 35.9591 36.932 35.9877 37.0162C36.0164 37.1004 36.0111 37.1924 35.9729 37.2727C35.9347 37.353 35.8666 37.4154 35.7831 37.4466" fill="#C3793A"/>
<path fill-rule="evenodd" clip-rule="evenodd" d="M49.2189 31.0449C49.2189 31.0449 45.4546 36.7257 42.1808 36.0782C38.907 35.4308 37.1904 29.2246 37.1904 29.2246C41.6903 31.8268 49.2189 31.0327 49.2189 31.0327" fill="#111314"/>
<path fill-rule="evenodd" clip-rule="evenodd" d="M40.6017 31.0204C42.2443 31.3919 43.9204 31.5966 45.6044 31.6312C43.9211 32.0913 42.1236 31.8719 40.6017 31.0204Z" fill="white"/>
<path fill-rule="evenodd" clip-rule="evenodd" d="M48.876 51.9479L48.361 51.0927C46.5953 48.2339 38.8216 47.3421 38.0123 50.9461C37.868 52.7181 37.9629 54.5013 38.2943 56.2482C38.9333 56.5476 39.593 56.8007 40.2684 57.0057C40.624 57.1156 40.9918 57.2133 41.3474 57.2989C40.4033 52.9985 44.5599 51.8257 48.8882 51.9479" fill="#AA3D19"/>
<path fill-rule="evenodd" clip-rule="evenodd" d="M65.7738 45.2165C67.3159 43.8964 68.5077 42.218 69.2438 40.3297L68.2016 41.0872C69.0575 38.5279 69.3134 35.8072 68.9496 33.134C68.7637 33.8397 68.5343 34.5333 68.2629 35.2109C68.0023 34.1938 67.5889 33.2217 67.0368 32.3277C68.0913 40.1465 63.4687 46.4626 55.842 46.7803L55.9769 47.3545L56.0995 47.892C57.0524 48.159 58.0407 48.2784 59.03 48.2463C61.5817 48.0594 63.9842 46.9772 65.8106 45.1921" fill="#AA3D19"/>
<path fill-rule="evenodd" clip-rule="evenodd" d="M20.2472 37.923C20.2472 37.418 20.2472 36.9253 20.2472 36.4448C20.2472 35.9805 20.2472 35.5285 20.2472 35.0887C20.2472 34.0625 20.0878 33.1096 19.9652 32.2177C19.8671 31.558 19.7527 30.9309 19.6219 30.3363C19.3304 29.1222 18.9197 27.9396 18.3957 26.8056C18.1252 26.1866 17.8054 25.5901 17.4393 25.022C15.5879 22.1999 13.2091 21.6257 11.6151 22.8352C10.0212 24.0446 10.389 25.6695 11.3577 27.5509C11.6151 28.0395 11.9217 28.5527 12.2527 29.0658C12.7677 29.8965 13.344 30.7639 13.8958 31.6435C14.1492 32.0508 14.3903 32.458 14.6192 32.8652C15.0445 33.6112 15.4055 34.3918 15.6982 35.1986C15.9934 36.0019 16.1549 36.8479 16.1764 37.7031L20.2472 37.923Z" fill="#4E9CC7"/>
<path fill-rule="evenodd" clip-rule="evenodd" d="M20.2356 36.2371C18.955 35.7353 17.5312 35.7353 16.2506 36.2371C16.1705 35.8942 16.0723 35.5557 15.9564 35.2231V35.1131C17.2929 34.0869 19.6348 34.6978 20.2111 34.9054C20.2111 34.9054 20.2111 35.7973 20.2111 36.2371" fill="#A2D6F3"/>
<path fill-rule="evenodd" clip-rule="evenodd" d="M19.8926 32.1443C19.8926 32.1443 16.9131 30.9226 14.9145 32.9262C14.6938 32.5108 14.4608 32.1077 14.2278 31.7045C16.1529 29.2611 19.5616 30.2996 19.5616 30.2996C19.6965 30.886 19.7946 31.5212 19.9049 32.1443" fill="#A2D6F3"/>
<path fill-rule="evenodd" clip-rule="evenodd" d="M18.3936 26.7567H18.1606C18.1606 26.7567 14.4086 26.5002 12.6307 29.2001C12.3242 28.687 12.0299 28.1861 11.7847 27.6974C13.5135 24.9853 17.4127 24.9853 17.4127 24.9853C17.7826 25.5511 18.1104 26.1432 18.3936 26.7567Z" fill="#A2D6F3"/>
<path fill-rule="evenodd" clip-rule="evenodd" d="M16.7653 32.2543C15.343 28.5892 11.8607 24.0934 13.749 22.3464C13.0957 22.2209 12.419 22.3523 11.8607 22.7129C9.7395 24.0812 10.4752 25.816 11.4806 27.7218C11.7381 28.2105 12.0692 28.7236 12.4002 29.2612C12.9275 30.0919 13.4915 30.9593 14.0433 31.8511C14.3008 32.2665 14.4724 32.5719 14.7054 32.9995C15.1149 33.7169 15.4596 34.4692 15.7354 35.2474C16.0326 36.0586 16.1941 36.913 16.2136 37.7763L18.3471 37.8496C17.9858 35.9498 17.4565 34.0856 16.7653 32.2787" fill="#006FA1"/>
<path fill-rule="evenodd" clip-rule="evenodd" d="M17.5509 34.539C16.9623 34.5656 16.3948 34.7654 15.9202 35.1132V35.2232C16.0362 35.5557 16.1345 35.8942 16.2144 36.2372C16.7343 35.9868 17.3045 35.8573 17.882 35.8585C17.7716 35.4309 17.649 34.9911 17.5264 34.539" fill="#4E9CC7"/>
<path fill-rule="evenodd" clip-rule="evenodd" d="M15.9428 30.4097C15.275 30.6868 14.6917 31.1333 14.2507 31.7047C14.4837 32.0956 14.7167 32.4865 14.9374 32.9263C15.3992 32.4484 15.9782 32.0989 16.6172 31.9123C16.4088 31.4237 16.1635 30.9228 15.906 30.4097" fill="#4E9CC7"/>
<path fill-rule="evenodd" clip-rule="evenodd" d="M13.713 25.9017C12.9465 26.3225 12.2975 26.9272 11.8247 27.6609C12.0699 28.1496 12.3642 28.6383 12.6707 29.1636C13.1249 28.4904 13.7401 27.9404 14.4609 27.5632C14.1789 26.989 13.9214 26.4393 13.713 25.9017Z" fill="#4E9CC7"/>
<path fill-rule="evenodd" clip-rule="evenodd" d="M26.4388 67.9155C31.0717 56.4182 32.5815 43.9074 30.8161 31.6436C30.0671 33.8442 28.9612 35.9077 27.5423 37.752C26.5982 37.752 23.8639 37.8131 20.1854 37.752C17.3775 37.6787 14.0547 37.5321 10.4989 37.2145C9.23551 35.9157 7.8967 34.6919 6.48935 33.5494C8.15691 37.7154 9.86126 56.4927 2.81091 66.9992C2.55821 66.7847 2.24813 66.6484 1.91877 66.6071C1.58941 66.5657 1.25509 66.6211 0.956883 66.7664C0.658672 66.9118 0.409546 67.1407 0.240097 67.4251C0.0706484 67.7095 -0.0117456 68.0371 0.00303295 68.3675C0.0104782 68.7334 0.147458 69.0848 0.389772 69.3598C0.632086 69.6347 0.964141 69.8155 1.32727 69.8702C1.38487 70.1936 1.55935 70.4848 1.81773 70.6887C2.15036 70.8867 2.52668 71.0002 2.91364 71.0194C3.3006 71.0385 3.68636 70.9628 4.03706 70.7987C4.21927 71.0826 4.49859 71.291 4.82326 71.3853C5.14792 71.4797 5.49591 71.4535 5.80271 71.3118C6.04929 71.2167 6.26873 71.0628 6.44184 70.8637C6.61495 70.6645 6.73646 70.4262 6.79574 70.1694C6.85502 69.9127 6.85026 69.6454 6.78189 69.3909C6.71352 69.1364 6.58361 68.9025 6.40352 68.7096C7.17682 67.6815 7.8618 66.5904 8.45119 65.4477C8.80677 64.7758 9.11331 64.116 9.40759 63.493C10.5234 61.0496 11.4553 59.0583 14.1283 57.2502C18.7386 54.1471 24.2562 56.0285 24.1214 60.4021C24.0916 61.2974 24.0138 62.1905 23.8884 63.0776C23.7442 63.984 23.5477 64.8814 23.2998 65.7653C23.1358 66.4222 22.9269 67.0671 22.6745 67.6956C22.4114 67.6451 22.1397 67.6621 21.8849 67.7449C21.6301 67.8278 21.4007 67.9737 21.2181 68.1691C21.0354 68.3645 20.9056 68.603 20.8408 68.862C20.776 69.1211 20.7783 69.3923 20.8475 69.6503C20.9109 69.8631 21.0207 70.0592 21.1691 70.2247C21.3176 70.3902 21.501 70.5208 21.7061 70.6072C21.9113 70.6937 22.1331 70.7338 22.3557 70.7246C22.5782 70.7155 22.796 70.6573 22.9933 70.5543C23.1858 70.8015 23.4363 70.9976 23.7229 71.1255C24.0094 71.2533 24.3231 71.3089 24.6363 71.2873C24.8862 71.2775 25.1309 71.2133 25.3533 71.0993C25.5757 70.9854 25.7704 70.8244 25.9238 70.6276C26.1394 70.7422 26.3808 70.7999 26.6251 70.7955C26.8694 70.791 27.1085 70.7244 27.3198 70.602C27.531 70.4797 27.7074 70.3056 27.8322 70.0962C27.9569 69.8869 28.026 69.6493 28.0328 69.4059C28.0328 68.7951 27.7262 67.6712 26.402 67.9644L26.4388 67.9155ZM15.7345 49.7979C14.7095 49.8311 13.6976 49.5608 12.8267 49.0212C11.9558 48.4815 11.265 47.6967 10.8417 46.766C10.4183 45.8353 10.2814 44.8004 10.4483 43.7922C10.6151 42.784 11.0782 41.8476 11.779 41.1016C12.4798 40.3555 13.3869 39.8332 14.3855 39.6007C15.3842 39.3682 16.4296 39.4358 17.3897 39.7952C18.3498 40.1545 19.1814 40.7894 19.7794 41.6195C20.3774 42.4497 20.715 43.4378 20.7495 44.4591C20.7724 45.1378 20.6608 45.8144 20.4211 46.4501C20.1814 47.0859 19.8183 47.6683 19.3526 48.1641C18.8868 48.66 18.3275 49.0595 17.7067 49.3398C17.0859 49.6201 16.4157 49.7758 15.7345 49.7979ZM20.7372 51.0195C20.8053 51.2771 20.9252 51.5182 21.0896 51.7282C21.254 51.9382 21.4595 52.1127 21.6936 52.2412C20.9334 54.6846 19.4252 54.0738 19.6704 52.0702C19.9183 51.9941 20.1444 51.8602 20.3299 51.6796C20.5155 51.499 20.6551 51.2769 20.7372 51.0318C19.6214 50.3721 18.2113 48.906 20.8475 49.016C22.4906 49.1504 22.6009 49.6146 20.7372 50.9707V51.0195ZM25.041 49.5413H24.6486H24.4402C24.2023 49.5467 23.968 49.483 23.7658 49.3581C22.764 49.0716 21.9078 48.4186 21.3688 47.5297C20.8299 46.6409 20.6479 45.582 20.8594 44.5651C21.0709 43.5483 21.6603 42.6487 22.5094 42.0465C23.3585 41.4443 24.4047 41.1841 25.4382 41.318C26.4718 41.4518 27.4164 41.9699 28.0828 42.7684C28.7491 43.5668 29.088 44.5867 29.0316 45.6237C28.9752 46.6606 28.5275 47.638 27.7784 48.3599C27.0292 49.0819 26.0339 49.4952 24.9919 49.5169L25.041 49.5413Z" fill="#4E9CC7"/>
<path fill-rule="evenodd" clip-rule="evenodd" d="M21.6919 52.1801C20.9317 54.6235 19.4235 54.0126 19.6687 52.0091C19.9166 51.933 20.1427 51.7991 20.3282 51.6185C20.5138 51.4379 20.6534 51.2158 20.7355 50.9706C20.8036 51.2282 20.9235 51.4693 21.0879 51.6793C21.2523 51.8893 21.4578 52.0638 21.6919 52.1923" fill="#CE3B43"/>
<path fill-rule="evenodd" clip-rule="evenodd" d="M24.1095 60.402C24.0797 61.2974 24.0019 62.1905 23.8765 63.0775C23.3247 63.2363 22.7607 63.3707 22.1844 63.4685C18.3072 64.096 14.3596 64.1659 10.4624 63.6762L9.38342 63.5296C10.4992 61.0862 11.4311 59.0948 14.1041 57.2867C18.7144 54.1836 24.2321 56.065 24.0972 60.4387" fill="#A2D6F3"/>
<path fill-rule="evenodd" clip-rule="evenodd" d="M19.8188 42.0157C19.8227 42.0604 19.8227 42.1054 19.8188 42.1501C19.8256 42.2912 19.7927 42.4314 19.7238 42.5549C19.6548 42.6784 19.5526 42.7802 19.4287 42.8488C19.3047 42.9174 19.1639 42.9501 19.0223 42.9432C18.8807 42.9363 18.7438 42.8901 18.6272 42.8097C18.5105 42.7294 18.4187 42.6181 18.3622 42.4885C18.3057 42.3589 18.2867 42.2162 18.3074 42.0764C18.328 41.9366 18.3875 41.8054 18.4791 41.6975C18.5706 41.5896 18.6907 41.5094 18.8256 41.4659H18.4946C18.1157 41.4746 17.7511 41.6117 17.4608 41.8544C17.1706 42.0972 16.972 42.4313 16.8977 42.8015C16.8235 43.1718 16.8781 43.5563 17.0524 43.8915C17.2268 44.2268 17.5106 44.4928 17.8571 44.6459C18.2035 44.7989 18.5919 44.8298 18.9584 44.7335C19.3248 44.6372 19.6474 44.4194 19.873 44.116C20.0985 43.8125 20.2137 43.4416 20.1994 43.0643C20.185 42.687 20.0422 42.3257 19.7943 42.0401" fill="#2C3243"/>
<path fill-rule="evenodd" clip-rule="evenodd" d="M28.7673 44.288C28.7731 44.5738 28.6781 44.8526 28.4989 45.0758C28.3196 45.299 28.0675 45.4526 27.7864 45.5097H27.5779C27.34 45.5151 27.1057 45.4514 26.9035 45.3264C26.7258 45.2215 26.5775 45.0736 26.4724 44.8963C26.3674 44.719 26.309 44.5182 26.3027 44.3124C26.3027 43.9884 26.4319 43.6777 26.6619 43.4486C26.8918 43.2194 27.2037 43.0907 27.5289 43.0907H27.7741C27.6741 43.1227 27.585 43.1818 27.5168 43.2615C27.4487 43.3412 27.4043 43.4382 27.3885 43.5417C27.3728 43.6452 27.3864 43.7511 27.4278 43.8473C27.4692 43.9435 27.5367 44.0263 27.6228 44.0863C27.7088 44.1463 27.81 44.1812 27.9149 44.187C28.0198 44.1928 28.1242 44.1693 28.2165 44.1192C28.3087 44.069 28.385 43.9942 28.4368 43.9031C28.4887 43.8121 28.5139 43.7084 28.5098 43.6038C28.5147 43.5673 28.5147 43.5304 28.5098 43.4939C28.6962 43.7039 28.8044 43.9713 28.8163 44.2513" fill="#2C3243"/>
<path fill-rule="evenodd" clip-rule="evenodd" d="M9.25969 65.179C9.16681 65.3025 9.03882 65.3953 8.89232 65.4454C8.74583 65.4955 8.5876 65.5006 8.43817 65.46C8.79375 64.7881 9.10029 64.1284 9.39457 63.5053L10.4736 63.6519L10.2406 64.4704C10.964 65.0568 9.92181 66.1197 9.27195 65.179" fill="#006FA1"/>
<path fill-rule="evenodd" clip-rule="evenodd" d="M23.8755 63.0775C23.7353 63.9836 23.5429 64.881 23.2992 65.7652C23.1931 65.7556 23.0913 65.7191 23.0033 65.6592C22.9153 65.5993 22.8441 65.5181 22.7965 65.4231C22.7721 65.5041 22.7284 65.578 22.6691 65.6386C22.6098 65.6991 22.5368 65.7445 22.4561 65.7709C22.3754 65.7973 22.2896 65.8039 22.2058 65.7901C22.1221 65.7764 22.0429 65.7427 21.975 65.6919C21.6072 65.472 21.5336 64.91 22.1712 64.7145C22.2472 64.3108 22.2472 63.8965 22.1712 63.4928C22.7475 63.3829 23.3115 63.2485 23.8633 63.1019" fill="#006FA1"/>
<path fill-rule="evenodd" clip-rule="evenodd" d="M10.9295 54.6356L7.36139 55.4542C7.45948 54.9085 7.5494 54.3587 7.63114 53.8049L10.9295 54.6356Z" fill="#A2D6F3"/>
<path fill-rule="evenodd" clip-rule="evenodd" d="M9.00111 58.2886L6.75726 58.3619C6.86353 57.9302 6.96571 57.4986 7.0638 57.0669L9.00111 58.2886Z" fill="#A2D6F3"/>
<path fill-rule="evenodd" clip-rule="evenodd" d="M7.56729 61.4283H5.8139C5.94878 61.0374 6.08366 60.6464 6.20627 60.2066L7.56729 61.4283Z" fill="#A2D6F3"/>
<path fill-rule="evenodd" clip-rule="evenodd" d="M30.8152 31.6436C30.0662 33.8442 28.9603 35.9077 27.5414 37.752H26.7076C27.1708 39.3061 27.5474 40.8845 27.8357 42.48C28.485 43.1262 28.8991 43.9699 29.0124 44.8773C29.1256 45.7847 28.9316 46.7038 28.461 47.4889C29.0443 55.6454 27.4093 63.8078 23.7281 71.1163C24.0287 71.2492 24.3558 71.3119 24.6845 71.2996C24.9344 71.2897 25.179 71.2255 25.4014 71.1116C25.6238 70.9976 25.8185 70.8366 25.9719 70.6399C26.1876 70.7544 26.429 70.8122 26.6733 70.8077C26.9176 70.8032 27.1567 70.7366 27.3679 70.6143C27.5792 70.4919 27.7555 70.3178 27.8803 70.1085C28.0051 69.8991 28.0741 69.6615 28.0809 69.4182C28.0809 68.8073 27.7744 67.6834 26.4501 67.9766C31.0831 56.4793 32.5929 43.9685 30.8275 31.7047" fill="#006FA1"/>
<path fill-rule="evenodd" clip-rule="evenodd" d="M29.9213 55.6374C29.8109 56.2116 29.6883 56.7736 29.5657 57.3356L25.8873 56.2116L29.9213 55.6374Z" fill="#A2D6F3"/>
<path fill-rule="evenodd" clip-rule="evenodd" d="M29.1729 58.9605C29.0749 59.3758 28.9645 59.779 28.8541 60.1822L26.4019 58.7894L29.1729 58.9605Z" fill="#A2D6F3"/>
<path fill-rule="evenodd" clip-rule="evenodd" d="M28.303 62.1368C28.1886 62.5196 28.0701 62.8983 27.9475 63.273L26.2799 61.9658L28.303 62.1368Z" fill="#A2D6F3"/>
<path fill-rule="evenodd" clip-rule="evenodd" d="M29.5631 57.3356C29.6857 56.7736 29.8083 56.2116 29.9187 55.6374L28.2634 55.8695C28.2634 56.2238 28.1775 56.5659 28.1285 56.908L29.5631 57.3356Z" fill="#4E9CC7"/>
<path fill-rule="evenodd" clip-rule="evenodd" d="M28.8675 60.1943C28.9778 59.7911 29.0882 59.3758 29.1863 58.9726L27.8375 58.8871L27.7149 59.5346L28.8675 60.1943Z" fill="#4E9CC7"/>
<path fill-rule="evenodd" clip-rule="evenodd" d="M27.9444 63.2732C28.067 62.8985 28.1855 62.5198 28.3 62.137L27.1351 62.0393L27.0002 62.5402L27.9444 63.2732Z" fill="#4E9CC7"/>
<path fill-rule="evenodd" clip-rule="evenodd" d="M23.9136 63.0776C24.039 62.1905 24.1168 61.2974 24.1466 60.4021C24.2815 56.3583 19.6466 54.1715 15.1712 56.6393C22.1235 55.5764 22.6507 62.7477 18.5063 63.9694C19.741 63.8981 20.9697 63.7472 22.1848 63.5174C22.7611 63.4074 23.3251 63.273 23.8646 63.1264" fill="#006FA1"/>
<path fill-rule="evenodd" clip-rule="evenodd" d="M20.6638 49.016C20.3617 49.0903 20.0444 49.0756 19.7506 48.9737C19.4567 48.8718 19.1989 48.687 19.0085 48.4418C18.3787 49.0414 17.5999 49.4631 16.7524 49.6635C16.7108 49.9468 16.7275 50.2356 16.8014 50.5123C16.8753 50.789 17.0049 51.0478 17.1822 51.2731C17.3596 51.4984 17.581 51.6855 17.8331 51.8229C18.0852 51.9603 18.3627 52.0453 18.6488 52.0727C18.9348 52.1 19.2235 52.0691 19.4972 51.982C19.7709 51.8948 20.024 51.7531 20.2411 51.5655C20.4582 51.3779 20.6348 51.1483 20.7602 50.8907C20.8855 50.633 20.957 50.3527 20.9703 50.0666C20.9939 49.7029 20.885 49.3429 20.6638 49.0526" fill="#A2D6F3"/>
<path fill-rule="evenodd" clip-rule="evenodd" d="M20.8461 49.3335C21.1482 49.4078 21.4654 49.3932 21.7593 49.2912C22.0531 49.1893 22.311 49.0045 22.5014 48.7593C23.2139 49.1844 24.0155 49.4395 24.8433 49.5046C24.8433 49.639 24.8433 50.2131 24.8433 50.3475C24.8433 50.9097 24.6192 51.4488 24.2203 51.8463C23.8213 52.2438 23.2802 52.4672 22.716 52.4672C22.1518 52.4672 21.6107 52.2438 21.2117 51.8463C20.8127 51.4488 20.5886 50.9097 20.5886 50.3475C20.565 49.9838 20.6739 49.6238 20.8952 49.3335" fill="#A2D6F3"/>
<path fill-rule="evenodd" clip-rule="evenodd" d="M20.7383 50.9706C19.6225 50.3719 18.2124 48.9059 20.8487 49.0159C22.4427 49.1014 22.553 49.5656 20.6893 50.9217" fill="#111314"/>
<path fill-rule="evenodd" clip-rule="evenodd" d="M21.4103 49.358C21.4103 49.4191 21.1283 49.468 20.785 49.4558C20.4417 49.4435 20.1719 49.3825 20.1719 49.3092C20.1719 49.2359 20.4539 49.1992 20.7973 49.2114C21.1406 49.2236 21.4103 49.2847 21.4103 49.358Z" fill="white"/>
<path d="M10.5955 51.6914C13.1461 50.7452 15.8438 50.2532 18.5654 50.2376C16.317 50.6539 14.1968 51.5867 12.3734 52.962" stroke="#F5F5F5" stroke-width="0.273239" stroke-miterlimit="10"/>
<path d="M29.4274 52.803C27.4464 51.5267 25.1981 50.7201 22.8552 50.4452C24.6993 50.8935 26.3732 51.8654 27.674 53.2428" stroke="#F5F5F5" stroke-width="0.273239" stroke-miterlimit="10"/>
<path fill-rule="evenodd" clip-rule="evenodd" d="M56.8463 15.4074L53.9526 14.4912C53.7458 14.4274 53.5266 14.4147 53.3138 14.454C53.101 14.4933 52.9009 14.5836 52.7309 14.717C52.5608 14.8504 52.4258 15.0229 52.3374 15.2198C52.2491 15.4167 52.2101 15.632 52.2237 15.8472C52.2237 16.4092 52.2728 16.9712 52.3709 17.5332C52.6098 20.2052 53.1401 22.8433 53.9526 25.4008C54.8344 28.1928 56.2547 30.7865 58.1338 33.0364C56.9076 28.5039 55.3014 20.8195 56.9076 15.4074" fill="#AA3D19"/>
<path fill-rule="evenodd" clip-rule="evenodd" d="M34.3341 0.808103C34.2115 0.356079 33.9908 0.148392 33.7456 0.148392C31.9554 0.148392 28.2034 10.4472 29.4295 19.3655C30.7467 18.0689 32.1343 16.8454 33.5862 15.7005C32.7769 10.2762 32.4459 3.98449 34.5549 1.29678C34.4935 1.15018 34.4322 0.991356 34.3832 0.856971" fill="#AA3D19"/>
<path fill-rule="evenodd" clip-rule="evenodd" d="M41.3125 38.7171C41.9937 41.1624 43.523 43.2878 45.6285 44.7156C43.9859 43.11 42.783 41.1123 42.134 38.9126L41.3125 38.7171Z" fill="#A31C25"/>
<path fill-rule="evenodd" clip-rule="evenodd" d="M52.3231 17.5331C51.6242 17.4109 51.0111 17.2765 50.398 17.1299L50.1038 17.0566C50.9848 20.0053 52.2811 22.8146 53.9539 25.4007C53.1297 22.8486 52.587 20.2145 52.3353 17.5453" fill="#E67B07"/>
<path fill-rule="evenodd" clip-rule="evenodd" d="M161.001 67.1475L156.697 67.3919L155.839 61.8087L151.67 61.9309L150.444 67.514L145.429 67.3919L150.799 42.7015L157.212 42.9459L161.001 67.1475ZM155.299 56.641L153.901 47.515L152.234 56.8853L155.299 56.641ZM144.374 62.0653V71.0936H140.549V67.4285H130.74V71.0936H126.914V62.0653H129.366C129.942 56.8515 130.249 51.6117 130.286 46.3666C130.286 44.7173 130.286 43.4223 130.384 42.7015L142.229 42.8604L142.609 62.0653H144.374ZM133.339 62.0653H136.784L136.478 48.1991H134.197C134.038 53.2814 133.829 58.2781 133.314 62.0653H133.339ZM112.335 44.4241C117.24 44.4241 125.577 44.4241 126.117 51.2778C126.212 52.2176 126.074 53.1662 125.718 54.0412C125.361 54.9162 124.795 55.6912 124.069 56.2989C122.359 57.6208 120.294 58.4073 118.135 58.5591V67.4896H112.335V44.4241ZM122.402 51.5344C122.23 49.5186 120.832 48.5901 118.135 48.1503V55.1383C119.352 55.037 120.519 54.6154 121.519 53.9166C121.856 53.6289 122.114 53.2603 122.269 52.8456C122.423 52.4309 122.469 51.9838 122.402 51.5466V51.5344ZM96.7753 55.6637C96.7753 48.0281 99.436 44.302 104.868 44.302C105.509 44.2958 106.145 44.4193 106.738 44.665C107.33 44.9106 107.866 45.2734 108.313 45.7313C110.189 47.5883 110.937 51.0701 110.496 55.7858C109.883 62.5784 107.418 66.0236 103.262 66.0236C96.7753 66.0358 96.7753 59.8052 96.7753 55.6759V55.6637ZM100.699 55.3216C100.699 60.2083 101.484 61.0024 103.36 61.0024C105.812 61.0024 106.572 57.3374 106.842 55.1994C107.222 51.7543 106.462 49.7996 105.616 49.091C105.437 48.9323 105.205 48.8452 104.966 48.8466C103.495 48.8833 100.699 48.8833 100.699 55.3338V55.3216ZM77.8681 67.5385L77.77 42.7138L81.5955 42.7749L85.8135 54.3442L90.2889 42.9215L94.1145 42.8237L95.1077 67.1475L91.184 67.2697L90.6077 52.6094L86.9293 60.6481H84.477L81.7182 54.5397L81.7917 67.5385H77.8681ZM154.159 38.7433L154.085 30.8023L148.286 39.7328L144.607 37.8148L151.633 27.0151C146.066 25.6834 145.355 22.0184 145.355 20.2469C145.396 19.3668 145.657 18.5107 146.115 17.7573C146.574 17.0038 147.215 16.3771 147.979 15.9344C150.516 14.366 153.511 13.6986 156.476 14.0408H159.824L160.032 38.7433H154.159ZM154.024 23.5333V17.8524C152.785 17.989 151.594 18.407 150.542 19.0741C150.137 19.3551 149.659 19.7827 149.659 20.2958C149.573 21.041 149.573 23.0324 154.012 23.5211L154.024 23.5333ZM143.614 38.4012L139.31 38.6455L138.452 33.0624L134.283 33.1846L133.057 38.7677L128.042 38.6455L133.437 13.8819L139.85 14.1263L143.614 38.4012ZM137.913 27.8825L136.515 18.7687L134.859 28.1146L137.913 27.8825ZM126.988 19.9904H122.598L122.733 37.2406H117.828L117.693 19.9904H113.071V15.1036H127L126.988 19.9904ZM97.1676 23.802C104.439 24.4862 105.285 28.6888 105.285 30.5091C105.242 31.3305 104.995 32.1286 104.567 32.832C104.139 33.5355 103.543 34.1225 102.832 34.5407C100.843 35.7647 98.5492 36.4081 96.2112 36.3976C95.7558 36.396 95.3011 36.3633 94.8502 36.2999H91.6745L91.5028 16.0688L97.0327 16.0077L97.1676 23.802ZM100.527 31.6575C100.932 31.3765 101.386 30.9733 101.386 30.5091C101.386 29.7639 101.386 27.9069 97.2535 27.4427V32.7448C98.413 32.633 99.5322 32.2613 100.527 31.6575ZM111.759 15.3968H106.474V36.3121H111.697L111.759 15.3968ZM83.9252 18.0357C81.8408 18.0357 79.4866 22.0672 79.4866 26.5875C79.4866 30.7412 80.6146 32.757 82.4171 32.757C84.8694 32.757 85.4579 32.0118 86.2794 29.3485C87.4649 29.7488 88.6274 30.2137 89.7617 30.7412C89.3571 35.518 86.586 39.1464 82.6991 39.1464C78.8122 39.1464 73.6869 35.0171 73.6869 26.2088C73.6869 17.4004 79.928 13.6254 84.5873 13.6254C85.811 13.7192 86.9821 14.1603 87.9621 14.8964C88.942 15.6325 89.6899 16.6328 90.1173 17.7791L87.0396 19.9904C86.2794 19.3062 86.0097 18.0357 83.9252 18.0357Z" fill="#0171A3"/>
</svg>
