<svg width="38" height="60" viewBox="0 0 38 60" fill="none" xmlns="http://www.w3.org/2000/svg">
<path d="M35.0011 39.3184C34.1384 36.4423 34.1384 33.4016 35.0011 30.5255L36.9345 24.081C38.2354 19.7447 37.3281 15.0416 34.5077 11.5005C33.8418 10.6643 32.914 10.1127 31.8863 9.92051V4.39453C31.8863 1.97133 29.9149 0 27.4917 0H10.5089C8.08569 0 6.11436 1.97133 6.11436 4.39453V9.92051C5.0865 10.1127 4.15885 10.6643 3.49299 11.5004C0.672514 15.0416 -0.234752 19.7446 1.06615 24.081L2.99951 30.5255C3.86224 33.4016 3.86224 36.4423 2.99951 39.3184L1.06615 45.7629C0.926694 46.2279 1.19048 46.7179 1.65537 46.8573C2.12037 46.9969 2.61021 46.733 2.74978 46.2681L4.68314 39.8235C5.64502 36.6169 5.64502 33.227 4.68314 30.0204L2.74978 23.5759C1.61447 19.7912 2.40619 15.6864 4.86795 12.5957C5.37104 11.964 6.12268 11.6017 6.93033 11.6017H31.0703C31.8779 11.6017 32.6296 11.964 33.1328 12.5958C35.5944 15.6865 36.3863 19.7912 35.2508 23.5759L33.3175 30.0205C32.3556 33.2271 32.3556 36.617 33.3175 39.8236L35.2508 46.2681C36.3861 50.0528 35.5944 54.1576 33.1327 57.2483C32.6296 57.88 31.8779 58.2423 31.0703 58.2423H6.93033C6.12268 58.2423 5.37103 57.88 4.86783 57.2483C3.13334 55.0705 2.20088 52.3379 2.24224 49.5538C2.24951 49.0684 1.86185 48.6691 1.37646 48.662C0.885914 48.6548 0.491694 49.0424 0.484663 49.5278C0.437319 52.7175 1.5056 55.8484 3.49287 58.3434C4.33135 59.3964 5.58432 60.0002 6.93033 60.0002H31.0703C32.4163 60.0002 33.6693 59.3964 34.5076 58.3436C37.3281 54.8024 38.2354 50.0994 36.9345 45.763L35.0011 39.3184ZM14.8987 1.75781H23.1019V3.38109C23.1019 3.77836 22.7787 4.10156 22.3814 4.10156H15.6192C15.2218 4.10156 14.8987 3.77836 14.8987 3.38109V1.75781ZM30.1284 9.84375H7.87217V4.39453C7.87217 2.94059 9.05506 1.75781 10.5089 1.75781H13.1409V3.38109C13.1409 4.74762 14.2527 5.85938 15.6192 5.85938H22.3813C23.7478 5.85938 24.8596 4.74762 24.8596 3.38109V1.75781H27.4916C28.9454 1.75781 30.1283 2.94059 30.1283 4.39453L30.1284 9.84375ZM30.0311 31.8745C29.6241 31.4658 29.0542 31.2407 28.4262 31.2407C27.5563 31.2407 26.6459 31.654 25.9286 32.3746C24.6417 33.667 24.4229 35.4723 25.4306 36.4843C25.8376 36.8931 26.4075 37.1182 27.0354 37.1182C27.9053 37.1182 28.8158 36.7049 29.5331 35.9843C30.8198 34.6917 31.0386 32.8864 30.0311 31.8745ZM28.2875 34.744C27.802 35.2209 27.0796 35.649 26.6762 35.244C26.447 35.0139 26.527 34.2647 27.1741 33.6148C27.6666 33.1202 28.4126 32.7403 28.7854 33.1147C29.0146 33.3449 28.9345 34.0941 28.2875 34.744ZM8.46737 35.8148C9.18491 36.5354 10.0953 36.9487 10.9652 36.9487C11.5931 36.9487 12.1631 36.7236 12.5699 36.315C13.5777 35.303 13.3589 33.4977 12.0722 32.2052C11.3546 31.4846 10.4442 31.0713 9.57432 31.0713C8.94643 31.0713 8.37643 31.2964 7.96967 31.7052C6.96186 32.7171 7.18053 34.5223 8.46737 35.8148ZM9.21537 32.9452C9.60444 32.5545 10.3598 32.9763 10.8266 33.4453C11.4736 34.0952 11.5536 34.8444 11.3243 35.0747C10.9423 35.4582 10.2146 35.0572 9.71307 34.5746C9.06584 33.9246 8.98604 33.1755 9.21537 32.9452ZM16.7312 25.9622C16.2367 25.5776 15.6498 25.405 15.0808 25.4769C13.6643 25.6548 12.7315 27.2154 12.9573 29.0297C13.0833 30.0418 13.5503 30.9291 14.2383 31.4641C14.6596 31.7917 15.1472 31.9652 15.6347 31.9652C17.2196 31.9652 18.2453 30.2968 18.0122 28.3966C17.8861 27.3846 17.4192 26.4973 16.7312 25.9622ZM15.6695 30.2054C15.1318 30.2729 14.7879 29.5065 14.7015 28.8127C14.5881 27.9012 14.9802 27.2612 15.2998 27.221C15.3122 27.2195 15.3246 27.2187 15.3369 27.2187C15.4567 27.2187 15.5728 27.2882 15.6519 27.3498C15.8972 27.5405 16.1877 27.9728 16.2676 28.6138C16.3812 29.5253 15.9892 30.1652 15.6695 30.2054ZM23.7625 31.4643C24.4505 30.9293 24.9173 30.042 25.0434 29.0298C25.2693 27.2155 24.3364 25.6549 22.9199 25.477C22.3501 25.4052 21.7639 25.5778 21.2695 25.9623C20.5815 26.4973 20.1146 27.3846 19.9885 28.3968C19.7627 30.2111 20.6955 31.7716 22.1121 31.9495C22.6966 32.0229 23.2689 31.8479 23.7625 31.4643ZM21.7328 28.6138C21.8127 27.9728 22.1032 27.5406 22.3485 27.3498C22.4358 27.2817 22.5694 27.2044 22.7007 27.2209C23.0204 27.2611 23.4124 27.9011 23.299 28.8124C23.2099 29.5284 22.885 30.2749 22.331 30.2053C22.0113 30.1652 21.6193 29.5253 21.7328 28.6138ZM13.0528 43.2879C13.7558 43.9941 14.691 44.383 15.6858 44.383C16.6806 44.383 17.6157 43.9942 18.3189 43.2879C18.5011 43.1048 18.7431 43.0041 19.0003 43.0041C19.2575 43.0041 19.4996 43.1048 19.6817 43.2879C20.3848 43.9941 21.32 44.383 22.3148 44.383C23.3096 44.383 24.2448 43.9942 24.9479 43.2879C26.2903 41.9394 26.407 39.801 25.2191 38.3136L22.775 35.2532C21.8521 34.0973 20.4762 33.4345 19.0003 33.4345C17.5244 33.4345 16.1485 34.0973 15.2256 35.2532L12.7815 38.3136C11.5936 39.8009 11.7103 41.9394 13.0528 43.2879ZM14.1549 39.4105L16.599 36.35C17.1867 35.6142 18.0618 35.1923 19.0002 35.1923C19.9386 35.1923 20.8138 35.6143 21.4014 36.35L23.8454 39.4105C24.4752 40.1992 24.4137 41.3329 23.702 42.0477C23.3312 42.4201 22.8384 42.6252 22.3146 42.6252C21.7908 42.6252 21.298 42.4201 20.9272 42.0477C20.4125 41.5308 19.7283 41.2463 19.0001 41.2463C18.2719 41.2463 17.5874 41.5309 17.0729 42.0477C16.7021 42.4201 16.2094 42.6252 15.6855 42.6252C15.1617 42.6252 14.6689 42.4201 14.2983 42.0477C13.5868 41.3329 13.5252 40.1992 14.1549 39.4105Z" fill="#FE9015"/>
</svg>
