<svg width="60" height="60" viewBox="0 0 60 60" fill="none" xmlns="http://www.w3.org/2000/svg">
<g clip-path="url(#clip0_1630_62)">
<path d="M58.6262 3.48408C56.7952 1.65153 53.8291 1.65059 51.9969 3.48443L41.4154 14.0854C38.2367 11.6977 33.6529 11.9049 30.7028 14.8565L21.5078 24.0504C20.8393 23.8779 20.151 23.7897 19.453 23.7897C15.3157 23.7897 11.8842 26.8681 11.3286 30.8547C11.1088 30.8322 10.8871 30.8209 10.6641 30.8209C7.11017 30.8209 4.21885 33.7122 4.21885 37.2661C4.21885 37.4626 4.22834 37.6579 4.24581 37.852H1.17191C0.790711 37.852 0.433412 38.0374 0.213807 38.349C-0.00568137 38.6606 -0.0599382 39.0595 0.068497 39.4184L6.39651 57.1134C6.56326 57.5796 7.00482 57.8907 7.49993 57.8907H15.9373L14.5 56.1683C14.5 56.1683 10.8234 55.547 8.32538 55.547L2.83548 40.1957H57.1635L51.6736 55.547H8.32538L15.9373 57.8907H44.0618H52.4991C52.9942 57.8907 53.4358 57.5796 53.6026 57.1134L59.9306 39.4184C60.059 39.0595 60.0047 38.6606 59.7853 38.349C59.5656 38.0374 59.2083 37.852 58.8271 37.852H55.6952C55.136 33.9606 51.8361 30.9447 47.8204 30.8271C50.2471 27.8765 50.2703 23.6763 48.0447 20.7137L58.6254 10.1124C60.4571 8.28212 60.4592 5.31557 58.6262 3.48408ZM53.3187 37.852H6.60463C6.57721 37.6591 6.56244 37.4635 6.56244 37.2661C6.56244 35.0045 8.40237 33.1646 10.6639 33.1646C11.1354 33.1646 11.5968 33.2435 12.0352 33.3993C12.8118 33.6751 13.6278 33.0823 13.5987 32.2538C13.4757 28.7909 16.2206 26.1334 19.4528 26.1334C22.7201 26.1334 25.3121 28.79 25.3121 31.9927C25.3121 32.6399 25.8369 33.1646 26.484 33.1646C27.1311 33.1646 27.6558 32.6399 27.6558 31.9927C27.6558 31.224 27.5505 30.4734 27.3443 29.7491C27.7409 29.661 28.1523 29.6299 28.5727 29.6617C29.6647 29.7488 30.6582 30.2587 31.3701 31.0975C31.8011 31.6053 32.5685 31.6521 33.0581 31.2005C34.1427 30.1999 35.5535 29.6489 37.0305 29.6489C39.5867 29.6489 41.7641 31.2953 42.5609 33.5674C42.8141 34.2893 43.682 34.5795 44.3182 34.1536C45.3041 33.4944 46.4375 33.1643 47.5772 33.1643C50.407 33.1646 52.7743 35.1807 53.3187 37.852ZM56.9676 8.45555L45.6171 19.8284C45.1603 20.2861 45.1605 21.0274 45.6179 21.4848C47.9076 23.7744 47.9082 27.4806 45.6177 29.7709L44.0762 31.3132C43.257 29.944 42.0511 28.8375 40.6225 28.1375L42.3031 26.457C42.7607 25.9994 42.7607 25.2574 42.3031 24.7996C41.8453 24.342 41.1036 24.342 40.6457 24.7996L38.0716 27.3737C37.7266 27.33 37.3787 27.3053 37.0307 27.3053C35.3398 27.3053 33.7108 27.8214 32.3427 28.7755C31.9099 28.417 31.4349 28.1199 30.9287 27.8881L37.3319 21.4847C37.7896 21.0271 37.7896 20.2851 37.3319 19.8275C36.8742 19.3699 36.1324 19.3699 35.6746 19.8275L28.1956 27.3066C27.5754 27.311 26.9577 27.4046 26.3671 27.5834C25.7143 26.5642 24.8402 25.6981 23.8196 25.0526L32.3598 16.5135C34.6494 14.2229 38.3553 14.2226 40.6454 16.5135C41.1032 16.9717 41.8459 16.9712 42.3034 16.5129L53.6548 5.14049C54.5582 4.23641 56.0414 4.21332 56.9685 5.1412C57.8781 6.04985 57.8915 7.53236 56.9676 8.45555Z" fill="#FE9015"/>
</g>
<defs>
<clipPath id="clip0_1630_62">
<rect width="60" height="60" fill="white"/>
</clipPath>
</defs>
</svg>
