<svg width="60" height="60" viewBox="0 0 60 60" fill="none" xmlns="http://www.w3.org/2000/svg">
<g clip-path="url(#clip0_447_1561)">
<path d="M25.3252 22.9791C25.3252 23.4645 25.7187 23.858 26.2041 23.858C26.6895 23.858 27.083 23.4645 27.083 22.9791C27.083 22.3851 27.5662 21.9018 28.1603 21.9018C28.6457 21.9018 29.0392 21.5083 29.0392 21.0229C29.0392 20.5375 28.6457 20.144 28.1603 20.144C26.597 20.144 25.3252 21.4158 25.3252 22.9791ZM58.5352 47.9848H57.182L52.7004 28.7598C52.2341 26.7598 50.4742 25.363 48.4206 25.363H11.5794C11.0732 25.363 10.585 25.4482 10.1293 25.6062C9.95965 22.3438 12.4952 19.5995 15.7581 19.4998C16.0354 19.4914 16.2923 19.3525 16.4514 19.1252C16.6104 18.8978 16.6528 18.6088 16.5657 18.3455C16.3712 17.7569 16.2727 17.1439 16.2727 16.5236C16.2727 13.3159 18.8823 10.7064 22.0898 10.7064C22.6419 10.7064 23.1908 10.7852 23.7213 10.9406C24.1338 11.0615 24.5727 10.8663 24.7596 10.4795C25.7251 8.48173 27.7821 7.19079 30 7.19079C32.2179 7.19079 34.2749 8.48173 35.2403 10.4794C35.4272 10.866 35.8662 11.0613 36.2786 10.9404C36.8091 10.785 37.358 10.7063 37.91 10.7063C41.1177 10.7063 43.7272 13.3158 43.7272 16.5235C43.7272 17.1436 43.6286 17.7566 43.4341 18.3454C43.3471 18.6087 43.3895 18.8977 43.5485 19.125C43.7075 19.3524 43.9645 19.4912 44.2418 19.4997C46.6267 19.5727 48.6998 21.066 49.5238 23.3043C49.6915 23.7597 50.1963 23.9932 50.6522 23.8255C51.1077 23.6578 51.341 23.1526 51.1734 22.6971C50.2262 20.1239 48.0109 18.3066 45.368 17.8509C45.4459 17.4139 45.4852 16.9702 45.4852 16.5236C45.4852 12.3467 42.087 8.9486 37.9102 8.9486C37.4298 8.9486 36.9512 8.99442 36.4805 9.08501C35.119 6.84568 32.6476 5.43298 30 5.43298C27.3524 5.43298 24.881 6.84568 23.5195 9.08501C23.0488 8.99442 22.5702 8.9486 22.0898 8.9486C17.9129 8.9486 14.5148 12.3467 14.5148 16.5236C14.5148 16.9703 14.5541 17.4141 14.632 17.8513C13.0679 18.1224 11.6306 18.8773 10.5053 20.0346C9.12352 21.4555 8.3625 23.3301 8.3625 25.3126C8.3625 25.7575 8.40223 26.2009 8.47922 26.6371C7.91074 27.2029 7.49332 27.929 7.29961 28.7598L2.81801 47.9848H1.46484C0.65707 47.9848 0 48.6418 0 49.4496V53.1025C0 53.9102 0.65707 54.5673 1.46484 54.5673H58.5352C59.3429 54.5673 60 53.9102 60 53.1025V49.4496C60 48.6418 59.3429 47.9848 58.5352 47.9848ZM58.2422 52.8095H1.75781V49.7426H8.76738C9.25277 49.7426 9.64629 49.3491 9.64629 48.8637C9.64629 48.3783 9.25277 47.9848 8.76738 47.9848H4.62293L9.01149 29.159C9.29016 27.959 10.3504 27.1224 11.5794 27.1208H48.4206C49.6528 27.1208 50.7087 27.959 50.9885 29.159L55.3771 47.9848H12.283C11.7976 47.9848 11.4041 48.3783 11.4041 48.8637C11.4041 49.3491 11.7976 49.7426 12.283 49.7426H56.4816C56.4823 49.7426 56.4829 49.7427 56.4836 49.7427C56.4846 49.7427 56.4855 49.7426 56.4866 49.7426H58.2422V52.8095ZM23.0654 16.0771C23.5434 15.993 23.8628 15.5372 23.7785 15.0591C23.6944 14.5811 23.239 14.2618 22.7605 14.346C20.8417 14.6839 19.5554 16.5198 19.8934 18.4387C19.9685 18.8652 20.3393 19.1653 20.7579 19.1653C20.8085 19.1653 20.8598 19.1609 20.9114 19.1519C21.3894 19.0677 21.7088 18.612 21.6245 18.1339C21.4548 17.1695 22.1011 16.2469 23.0654 16.0771ZM35.9904 39.1632C36.4011 39.5739 36.9473 39.7736 37.5341 39.7736C38.3311 39.7736 39.2031 39.405 39.9116 38.6965C40.4585 38.1497 40.8251 37.4727 40.944 36.7901C41.0807 36.0059 40.8745 35.2715 40.3784 34.7753C39.8823 34.2792 39.1481 34.0731 38.3636 34.2095C37.6811 34.3285 37.0039 34.6951 36.4571 35.2419C35.2269 36.4722 35.0218 38.1946 35.9904 39.1632ZM37.7002 36.4849C38.0162 36.1689 38.7761 35.6591 39.1355 36.0183C39.4187 36.3013 38.9827 37.144 38.6688 37.4535C38.0972 38.0252 37.4264 38.1131 37.2336 37.9202C37.0406 37.7274 37.1284 37.0566 37.7002 36.4849ZM33.1635 34.962C34.4198 34.962 35.5171 33.7892 35.7196 32.1706C35.8155 31.4032 35.6893 30.6437 35.3643 30.0319C34.9907 29.3289 34.3771 28.8758 33.6807 28.7888C32.3208 28.6182 31.0879 29.838 30.8719 31.5644C30.7759 32.3317 30.9021 33.0912 31.2272 33.703C31.6421 34.484 32.3559 34.962 33.1635 34.962ZM32.6161 31.7824C32.7131 31.0067 33.161 30.5312 33.4351 30.5312C33.4445 30.5312 33.4536 30.5318 33.4625 30.5329C33.8742 30.583 34.0339 31.4827 33.9752 31.9524C33.8749 32.7545 33.4011 33.2357 33.1287 33.2019C32.6735 33.1456 32.5583 32.2443 32.6161 31.7824ZM36.3274 17.3082C36.3274 17.7936 36.7209 18.1871 37.2063 18.1871C37.8004 18.1871 38.2836 18.6704 38.2836 19.2644C38.2836 19.7498 38.6772 20.1433 39.1625 20.1433C39.6479 20.1433 40.0414 19.7498 40.0414 19.2644C40.0414 17.7011 38.7696 16.4293 37.2063 16.4293C36.7209 16.4293 36.3274 16.8227 36.3274 17.3082ZM20.0884 38.5383C20.7969 39.2469 21.6688 39.6154 22.4659 39.6154C23.0527 39.6154 23.5989 39.4157 24.0096 39.0051C24.9782 38.0364 24.7731 36.3141 23.5429 35.0838C22.9961 34.5369 22.3191 34.1704 21.6364 34.0514C20.8523 33.9151 20.1179 34.121 19.6216 34.6171C19.1255 35.1133 18.9192 35.8477 19.0559 36.6319C19.1749 37.3144 19.5415 37.9915 20.0884 38.5383ZM20.8646 35.8601C20.9617 35.7632 21.1755 35.7554 21.3347 35.7831C21.6592 35.8396 22.011 36.0378 22.2998 36.3269C22.8716 36.8985 22.9594 37.5693 22.7666 37.762C22.5739 37.9549 21.9029 37.867 21.3313 37.2954C21.0423 37.0064 20.8441 36.6546 20.7877 36.3302C20.7512 36.1205 20.7799 35.9448 20.8646 35.8601ZM27.0893 34.9461C27.7856 34.8591 28.3992 34.4059 28.7728 33.703C29.0979 33.0912 29.2241 32.3317 29.1281 31.5644C28.9123 29.838 27.6789 28.6182 26.3193 28.7888C25.6229 28.8758 25.0093 29.3289 24.6357 30.0319C24.3107 30.6437 24.1845 31.4032 24.2804 32.1706C24.4945 33.8814 25.7023 35.1196 27.0893 34.9461ZM26.5373 30.533C26.5462 30.5319 26.5554 30.5314 26.5648 30.5314C26.8389 30.5314 27.2868 31.0069 27.3838 31.7826C27.4412 32.2419 27.3599 33.143 26.8711 33.2021C26.6 33.2349 26.125 32.7547 26.0245 31.9525C25.9696 31.512 26.0542 30.5918 26.5373 30.533ZM30.2864 12.4048C30.6904 12.4306 31.0602 12.6122 31.3275 12.9161C31.5013 13.1136 31.7439 13.2145 31.9877 13.2145C32.194 13.2145 32.4009 13.1423 32.568 12.9954C32.9324 12.6748 32.9679 12.1193 32.6473 11.755C32.0696 11.0986 31.271 10.7064 30.3986 10.6506C29.5262 10.5954 28.684 10.8822 28.0276 11.4598C27.6632 11.7804 27.6277 12.3359 27.9483 12.7002C28.269 13.0647 28.8244 13.1001 29.1887 12.7796C29.4926 12.512 29.8827 12.3787 30.2864 12.4048ZM26.4196 37.9334L24.1283 40.7898C22.9954 42.2023 23.1064 44.2328 24.3868 45.5132C25.0561 46.1825 25.9461 46.5512 26.8928 46.5512C27.8394 46.5512 28.7293 46.1825 29.3987 45.5132C29.5594 45.3525 29.7729 45.2641 30 45.2641C30.2271 45.2641 30.4407 45.3526 30.6013 45.5132C31.2705 46.1825 32.1606 46.5512 33.1072 46.5512C34.0539 46.5512 34.9438 46.1825 35.6132 45.5132C36.8936 44.2328 37.0047 42.2023 35.8717 40.7898L33.5804 37.9334C32.7047 36.8415 31.3997 36.2154 30 36.2154C28.6003 36.2154 27.2953 36.8415 26.4196 37.9334ZM30 37.9731C30.8637 37.9731 31.6689 38.3595 32.2092 39.0332L34.5005 41.8896C35.0715 42.6014 35.0155 43.6249 34.3703 44.2702C34.0329 44.6075 33.5844 44.7933 33.1073 44.7933C32.6303 44.7933 32.1818 44.6075 31.8444 44.2702C31.3359 43.7617 30.6681 43.5075 30.0001 43.5075C29.3323 43.5075 28.6643 43.7617 28.1558 44.2702C27.8184 44.6075 27.37 44.7933 26.8929 44.7933C26.4158 44.7933 25.9673 44.6075 25.63 44.2702C24.9847 43.6249 24.9287 42.6014 25.4998 41.8896L27.791 39.0332C28.3311 38.3595 29.1363 37.9731 30 37.9731Z" fill="#FE9015"/>
</g>
<defs>
<clipPath id="clip0_447_1561">
<rect width="60" height="60" fill="white"/>
</clipPath>
</defs>
</svg>
