<svg width="36" height="60" viewBox="0 0 36 60" fill="none" xmlns="http://www.w3.org/2000/svg">
<path d="M25.5976 6.93865L29.5325 8.90493C29.96 9.11927 30.4918 8.95145 30.7116 8.51165C30.9286 8.07747 30.7525 7.54954 30.3183 7.33251L26.3834 5.36623C25.9492 5.1492 25.4213 5.32533 25.2043 5.75951C24.9872 6.1938 25.1634 6.72173 25.5976 6.93865ZM26.3833 3.63162L30.3182 1.66534C30.7524 1.44831 30.9285 0.920494 30.7115 0.486198C30.4945 0.052019 29.9667 -0.124113 29.5324 0.0929174L25.5974 2.0592C25.1633 2.27623 24.9871 2.80404 25.2042 3.23834C25.4237 3.67744 25.957 3.84525 26.3833 3.63162ZM33.9374 53.0753V47.7476C33.9374 47.2621 33.5439 46.8687 33.0585 46.8687C32.5731 46.8687 32.1796 47.2621 32.1796 47.7476V52.5082C31.7655 52.4924 4.24288 52.4831 3.82031 52.5082V22.1404C4.07741 22.1648 7.16471 22.1485 7.42698 22.1485C7.91237 22.1485 8.30588 21.755 8.30588 21.2696C8.30588 20.7842 7.91237 20.3907 7.42698 20.3907H4.05468C2.95617 20.3907 2.0625 19.497 2.0625 18.3985C2.0625 17.3 2.95617 16.4063 4.05468 16.4063H7.40893H7.40998H28.5699C28.5708 16.4063 28.5719 16.4066 28.5728 16.4066C28.5738 16.4066 28.5747 16.4063 28.5756 16.4063H31.9452C33.0438 16.4063 33.9374 17.3 33.9374 18.3985C33.9374 19.497 33.0438 20.3907 31.9452 20.3907H10.9426C10.4572 20.3907 10.0637 20.7842 10.0637 21.2696C10.0637 21.755 10.4572 22.1485 10.9426 22.1485C11.1342 22.1485 31.9961 22.1545 32.1796 22.1404V44.2319C32.1796 44.7174 32.5731 45.1108 33.0585 45.1108C33.5439 45.1108 33.9374 44.7174 33.9374 44.2319V21.5733C34.9923 20.909 35.6952 19.7347 35.6952 18.3985C35.6952 16.3307 34.013 14.6485 31.9452 14.6485H29.2062L28.1833 11.5821C27.7437 10.2645 26.5153 9.3793 25.1262 9.3793H22.2686V4.39463C22.2686 3.90924 21.8751 3.51572 21.3897 3.51572H16.368C14.9141 3.51572 13.7313 4.69849 13.7313 6.15244V9.37919H10.8737C9.48467 9.37919 8.25619 10.2644 7.81662 11.582L6.7937 14.6484H4.05468C1.98691 14.6484 0.304688 16.3306 0.304688 18.3984C0.304688 19.7344 1.00758 20.9089 2.0625 21.5732V53.0753C1.00758 53.7396 0.304688 54.9139 0.304688 56.2501C0.304688 58.3179 1.98691 60.0001 4.05468 60.0001H31.9452C34.013 60.0001 35.6952 58.3179 35.6952 56.2501C35.6952 54.9139 34.9923 53.7396 33.9374 53.0753ZM15.4891 6.15244C15.4891 5.66775 15.8833 5.27353 16.368 5.27353H20.5108V9.37919H15.4891V6.15244ZM9.48408 12.1384C9.68388 11.5394 10.2423 11.1371 10.8737 11.1371H25.1261C25.7575 11.1371 26.3159 11.5395 26.5157 12.1384L27.3531 14.6485H8.64666L9.48408 12.1384ZM31.9452 58.2422H4.05468C2.95617 58.2422 2.0625 57.3485 2.0625 56.25C2.0625 55.1515 2.95617 54.2578 4.05468 54.2578H31.9452C33.0438 54.2578 33.9374 55.1515 33.9374 56.25C33.9374 57.3485 33.0438 58.2422 31.9452 58.2422ZM18 25.5632C11.5149 25.5632 6.23893 30.8392 6.23893 37.3242C6.23893 43.8383 11.5351 49.0852 18 49.0852C24.485 49.0852 29.761 43.8093 29.761 37.3242C29.7609 30.8628 24.5374 25.5632 18 25.5632ZM7.99674 37.3242C7.99674 31.8085 12.4841 27.321 18 27.321C20.6886 27.321 23.1309 28.3892 24.9303 30.121L21.0801 33.9712C20.8751 33.8165 20.664 33.6761 20.4476 33.5513C20.565 32.5224 20.2143 31.4718 19.4659 30.7245L18.7487 30.006C18.4057 29.6625 17.8494 29.662 17.5057 30.005C17.1622 30.3479 17.1616 30.9044 17.5046 31.248L18.2229 31.9675C18.4761 32.2203 18.6358 32.5441 18.6916 32.886C17.9909 32.7468 17.2878 32.7505 16.631 32.9021C16.5385 32.3724 16.2886 31.8841 15.9004 31.4959C15.9004 31.4958 15.9004 31.4958 15.9004 31.4958C14.8725 30.468 13.1996 30.4679 12.1715 31.4959C11.1573 32.5102 11.1507 34.2038 12.1715 35.2246C12.5597 35.6127 13.0481 35.8628 13.5778 35.9552C13.4261 36.6119 13.4224 37.315 13.5616 38.0157C13.2195 37.9598 12.8955 37.7998 12.642 37.546L11.9238 36.8288C11.5802 36.4857 11.0237 36.486 10.6808 36.8298C10.3379 37.1733 10.3383 37.7298 10.6817 38.0727L11.3992 38.789C12.0531 39.4438 12.9379 39.7955 13.8375 39.7955C13.9671 39.7955 14.0968 39.7854 14.2263 39.7707C14.3512 39.9873 14.4918 40.199 14.6468 40.4043L10.7966 44.2544C9.0649 42.4552 7.99674 40.0129 7.99674 37.3242ZM21.0643 36.4728C21.9724 37.8163 22.0146 39.4486 21.0694 40.3937C20.1243 41.3387 18.492 41.2968 17.1485 40.3887L21.0643 36.4728ZM15.9055 39.1457C14.9975 37.8021 14.9553 36.1698 15.9004 35.2247C16.3671 34.7581 17.0013 34.5319 17.6857 34.5319C18.3873 34.5319 19.1412 34.7702 19.8214 35.2299L15.9055 39.1457ZM14.6574 33.9818C14.3193 34.3198 13.7515 34.3186 13.4145 33.9817C13.0765 33.6437 13.0765 33.0769 13.4145 32.7389C13.7573 32.3963 14.3148 32.3963 14.6574 32.7388C14.9946 33.0756 14.9956 33.6436 14.6574 33.9818ZM28.0031 37.3242C28.0031 42.84 23.5157 47.3274 17.9998 47.3274C15.8055 47.3274 13.7752 46.6153 12.1243 45.4128L15.8895 41.6475C16.0944 41.8022 16.3061 41.9408 16.5223 42.0656C16.4054 43.0947 16.7561 44.1461 17.5051 44.8949L18.2223 45.6121C18.5655 45.9552 19.122 45.9553 19.4652 45.6121C19.8084 45.2687 19.8084 44.7123 19.4652 44.3691L18.748 43.6519C18.4948 43.3989 18.335 43.075 18.2787 42.733C18.6164 42.8001 18.9546 42.8349 19.2878 42.8349C20.4263 42.8349 21.5077 42.4413 22.3123 41.6366C23.3525 40.5965 23.7042 39.0937 23.4083 37.6029C23.7505 37.6591 24.0745 37.819 24.3276 38.0723L25.0448 38.7894C25.388 39.1326 25.9445 39.1327 26.2877 38.7894C26.6309 38.4461 26.6309 37.8897 26.2877 37.5464L25.5705 36.8294C24.822 36.0808 23.7713 35.7299 22.7426 35.8464C22.6178 35.6302 22.4774 35.419 22.3228 35.2141L26.0882 31.4486C27.2911 33.0998 28.0031 35.1299 28.0031 37.3242Z" fill="#FE9015"/>
</svg>
