<svg width="60" height="60" viewBox="0 0 60 60" fill="none" xmlns="http://www.w3.org/2000/svg">
<path d="M29.433 42.2563C30.9329 42.0687 31.6529 40.3223 31.4718 38.8744C31.2558 37.1481 30.0226 35.929 28.6629 36.0988C27.3037 36.2688 26.4082 37.7543 26.6242 39.4807C26.8383 41.1916 28.0462 42.4297 29.433 42.2563ZM28.8811 37.843C28.89 37.842 28.8991 37.8414 28.9085 37.8414C29.1826 37.8414 29.6305 38.3169 29.7275 39.0926C29.7846 39.5483 29.7021 40.453 29.2148 40.5122C28.9441 40.545 28.4686 40.0649 28.3683 39.2626C28.2681 38.4602 28.6106 37.8769 28.8811 37.843ZM8.26172 10.8398C7.77633 10.8398 7.38281 11.2334 7.38281 11.7188C7.38281 12.2041 7.77633 12.5977 8.26172 12.5977C8.74711 12.5977 9.14062 12.2041 9.14062 11.7188C9.14062 11.2334 8.74711 10.8398 8.26172 10.8398ZM17.0508 10.8398C16.5654 10.8398 16.1719 11.2334 16.1719 11.7188C16.1719 12.2041 16.5654 12.5977 17.0508 12.5977C17.5362 12.5977 17.9297 12.2041 17.9297 11.7188C17.9297 11.2334 17.5362 10.8398 17.0508 10.8398ZM35.5072 42.2721C36.7636 42.2721 37.8608 41.0993 38.0633 39.4807C38.2793 37.7544 37.3838 36.2688 36.0246 36.0988C34.6654 35.9279 33.4317 37.148 33.2157 38.8744C33.0219 40.423 33.8469 42.2721 35.5072 42.2721ZM34.9598 39.0925C35.0602 38.2903 35.5362 37.8103 35.8063 37.8429C36.0769 37.8768 36.4193 38.4602 36.319 39.2625C36.2187 40.0646 35.7446 40.5449 35.4724 40.5121C35.0212 40.4576 34.902 39.555 34.9598 39.0925ZM48.6914 10.8398C48.206 10.8398 47.8125 11.2334 47.8125 11.7188C47.8125 12.2041 48.206 12.5977 48.6914 12.5977C49.1768 12.5977 49.5703 12.2041 49.5703 11.7188C49.5703 11.2334 49.1768 10.8398 48.6914 10.8398ZM57.9492 7.03125H44.7266C44.5836 6.03914 43.7303 5.27344 42.6993 5.27344H39.8084C38.7773 5.27344 37.9239 6.03914 37.781 7.03125H34.74C34.5468 6.57703 34.3245 6.13441 34.0729 5.7068C32.0026 2.18672 28.1879 0 24.1172 0H17.7035C14.4138 0.00046875 11.1695 2.71348 11.1234 6.15234V7.03125H2.05078C0.920039 7.03125 0 7.95129 0 9.08203V14.0039C0 15.1346 0.920039 16.0547 2.05078 16.0547H11.1234V16.9336C11.1234 16.9561 11.1243 16.9787 11.126 17.0012C11.3893 20.4132 14.2785 23.0859 17.7035 23.0859H24.1172C27.6818 23.0859 31.0502 21.409 33.2227 18.6284V29.9709C32.6414 29.9371 32.0461 29.937 31.4648 29.9709V24.1179C31.4648 23.6325 31.0713 23.239 30.5859 23.239C30.1005 23.239 29.707 23.6325 29.707 24.1179V30.1764C22.6736 31.4263 17.316 37.5853 17.316 44.9722C17.316 53.2586 24.0574 60 32.3438 60C40.6301 60 47.3715 53.2586 47.3715 44.9722C47.3715 37.5852 42.0139 31.4263 34.9805 30.1764V16.0547H37.7809C37.9239 17.0468 38.7772 17.8125 39.8082 17.8125H42.6991C43.7302 17.8125 44.5836 17.0468 44.7265 16.0547H57.9492C59.08 16.0547 60 15.1346 60 14.0039V9.08203C60 7.95129 59.08 7.03125 57.9492 7.03125ZM2.05078 14.2969C1.8893 14.2969 1.75781 14.1654 1.75781 14.0039V9.08203C1.75781 8.92055 1.8893 8.78906 2.05078 8.78906H26.0353C26.5207 8.78906 26.9142 8.39555 26.9142 7.91016C26.9142 7.42477 26.5207 7.03125 26.0353 7.03125H16.4132V6.3007C16.5487 5.70375 17.0869 5.27344 17.7035 5.27344H24.1172C25.6315 5.27344 27.0932 5.82082 28.2336 6.81551C29.3786 7.81148 30.1127 9.18094 30.3227 10.6641H25.3008C24.8154 10.6641 24.4219 11.0576 24.4219 11.543C24.4219 12.0284 24.8154 12.4219 25.3008 12.4219H30.325C30.2334 13.078 30.0395 13.7091 29.7514 14.2969H2.05078ZM28.4682 16.0547C28.3917 16.1284 28.3137 16.2011 28.2329 16.2713C27.0932 17.2651 25.6315 17.8125 24.1172 17.8125H17.7035C17.1034 17.8125 16.5778 17.405 16.425 16.8332V16.0547H28.4682ZM32.5576 16.488C30.8019 19.4735 27.5678 21.3281 24.1172 21.3281H17.7035C15.2019 21.3281 13.0901 19.3849 12.8812 16.8983V16.0547H14.6672V16.9336C14.7001 18.3841 16.3252 19.5737 17.7035 19.5703H24.1172C26.2501 19.5721 28.2884 18.7219 29.7927 17.2191C31.3062 15.707 32.1408 13.6963 32.1443 11.5562C32.1443 11.5518 32.145 11.5475 32.145 11.5431C32.145 11.5382 32.1443 11.5334 32.1443 11.5284C32.1401 9.21094 31.136 7.01051 29.3883 5.49C27.9282 4.21676 26.0564 3.51562 24.1172 3.51562H17.7035C16.3328 3.51609 14.6948 4.65902 14.6554 6.15234V7.03125H12.8812V6.18762C13.0901 3.70102 15.2019 1.75781 17.7035 1.75781H24.1172C27.5677 1.75781 30.8018 3.61242 32.5577 6.59812C33.4375 8.09297 33.9023 9.80285 33.9023 11.543C33.9023 13.2831 33.4375 14.993 32.5576 16.488ZM45.6137 44.9722C45.6137 52.2893 39.6608 58.2422 32.3438 58.2422C25.0267 58.2422 19.0738 52.2893 19.0738 44.9722C19.0738 36.1159 25.7087 31.7957 32.3438 31.8496C38.9788 31.9035 45.6137 36.3318 45.6137 44.9722ZM37.7576 14.2969H35.3252C35.5459 13.3997 35.6602 12.4751 35.6602 11.543C35.6602 10.6109 35.5459 9.68625 35.3252 8.78906H37.7576V14.2969ZM42.9922 15.7617C42.9922 15.9232 42.8607 16.0547 42.6993 16.0547H39.8084C39.4144 16.0528 39.504 15.4301 39.5156 15.1758L39.5154 7.32422C39.5154 7.16273 39.6469 7.03125 39.8084 7.03125H42.6993C42.8607 7.03125 42.9922 7.16273 42.9922 7.32422V15.7617ZM52.7644 13.448C51.8787 14.0033 50.8577 14.2969 49.8117 14.2969H44.75V8.78906H49.8117C51.784 8.78906 53.6228 9.85723 54.6103 11.5434C54.1595 12.3162 53.5279 12.9691 52.7644 13.448ZM58.2422 14.0039C58.2422 14.1654 58.1107 14.2969 57.9492 14.2969H54.5684C55.3325 13.6432 55.9559 12.838 56.3968 11.9254C56.5137 11.6837 56.5136 11.402 56.3967 11.1604C55.9504 10.2374 55.3178 9.43523 54.5582 8.78918H57.9492C58.1107 8.78918 58.2422 8.92066 58.2422 9.08215V14.0039ZM38.3341 46.4732C39.4228 47.5618 41.1635 47.0984 42.2554 46.0065C43.4856 44.7763 43.6907 43.0539 42.722 42.0853C41.6216 40.9849 39.8371 41.5158 38.8009 42.552C37.7556 43.5973 37.2412 45.3803 38.3341 46.4732ZM40.0439 43.795C40.36 43.4789 41.1199 42.9689 41.4791 43.3282C41.6719 43.5211 41.5841 44.1919 41.0125 44.7635C40.4408 45.3352 39.77 45.423 39.5771 45.2302C39.2479 44.9012 39.7255 44.1134 40.0439 43.795ZM35.9242 45.2434C35.0484 44.1517 33.7434 43.5254 32.3438 43.5254C30.9441 43.5254 29.6391 44.1517 28.7633 45.2434L26.4721 48.0998C25.3391 49.5123 25.4502 51.5428 26.7306 52.8232C28.1123 54.205 30.3607 54.205 31.7425 52.8232C31.9031 52.6625 32.1166 52.5742 32.3438 52.5742C32.5709 52.5742 32.7845 52.6625 32.945 52.8232C33.636 53.5141 34.5435 53.8595 35.451 53.8595C36.3585 53.8595 37.266 53.514 37.9569 52.8232C39.2373 51.5428 39.3484 49.5123 38.2154 48.0998L35.9242 45.2434ZM36.7139 51.5802C36.0176 52.2765 34.8844 52.2765 34.1879 51.5802C33.6795 51.0717 33.0115 50.8175 32.3436 50.8175C31.6758 50.8175 31.0078 51.0717 30.4993 51.5802C29.803 52.2765 28.6698 52.2765 27.9734 51.5802C27.3281 50.935 27.2721 49.9114 27.8432 49.1996L30.1344 46.3432C30.6748 45.6695 31.48 45.2831 32.3436 45.2831C33.2073 45.2831 34.0125 45.6695 34.5529 46.3432L36.8441 49.1996C37.4153 49.9116 37.3593 50.935 36.7139 51.5802ZM25.8866 42.3939C24.8613 41.3686 23.0491 40.8434 21.9654 41.9271C20.9968 42.8957 21.2018 44.6181 22.432 45.8483C23.5352 46.9515 25.253 47.4152 26.3532 46.315C27.4323 45.2361 26.904 43.4113 25.8866 42.3939ZM25.1104 45.0721C24.9176 45.265 24.2468 45.1772 23.675 44.6054C23.1034 44.0338 23.0156 43.3629 23.2084 43.1701C23.5614 42.817 24.3934 43.3867 24.6437 43.6369C24.9679 43.961 25.4552 44.7271 25.1104 45.0721Z" fill="#FE9015"/>
</svg>
