<svg width="60" height="60" viewBox="0 0 60 60" fill="none" xmlns="http://www.w3.org/2000/svg">
<path d="M23.0965 25.1786C25.277 24.4643 26.8853 22.2167 26.8853 19.5306V18.406C26.8853 17.9289 26.4884 17.5422 25.9993 17.5422C25.5096 17.5422 25.113 17.9289 25.113 18.406V19.5306C25.113 21.8346 23.5589 23.7088 21.6482 23.7088H20.4185C20.3291 23.5033 20.2645 23.2859 20.1443 23.0953C19.786 22.5296 19.7779 21.8529 20.123 21.3298C25.6608 12.9371 16.6191 4.02269 8.41179 7.95937C7.97232 8.16979 7.79152 8.68755 8.00782 9.11578C8.22341 9.54401 8.75493 9.72051 9.19392 9.50917C15.7608 6.36066 23.2311 13.4452 18.6335 20.3947C17.9155 21.4823 17.9167 22.8651 18.6358 24.0026C19.2083 24.907 19.2128 26.1225 18.6366 27.0348C17.9538 28.1141 17.8563 29.5006 18.722 30.7758C19.8468 32.444 20.2512 34.5256 19.8321 36.4879C18.4728 42.85 9.92778 44.3828 6.2592 39.0179C0.359715 30.391 0.196188 20.899 6.25613 12.0241C6.52733 11.6266 6.41705 11.0903 6.01001 10.8262C5.60249 10.5615 5.05228 10.6695 4.78131 11.0666C-1.49114 20.2519 -1.69679 30.4985 4.78486 39.9763C9.31769 46.6051 19.8877 44.7014 21.5665 36.8407C22.0654 34.5039 21.6588 32.0303 20.1324 29.7221C19.781 29.1919 19.7853 28.5091 20.1445 27.9413C20.3736 27.5786 20.547 27.1855 20.6637 26.7736H21.7587C24.7746 26.7736 27.2277 29.1656 27.2277 32.1062V51.1362C27.2277 51.6133 27.6243 52 28.114 52C28.6031 52 29 51.6133 29 51.1362V32.1062C29 28.6598 26.4506 25.7928 23.0965 25.1786Z" fill="#FE9015"/>
<path d="M54.3837 11.066C54.1216 10.6689 53.5906 10.5609 53.1974 10.8256C52.8041 11.0902 52.6974 11.626 52.9595 12.0235C58.6613 20.672 58.8021 30.1645 52.9565 39.0177C51.6048 41.065 49.3413 42.2874 46.9006 42.2874C41.225 42.2874 37.6201 35.9444 40.9986 30.6595C41.6994 29.5639 41.7026 28.1749 41.0061 27.0344C40.4527 26.1277 40.4511 24.9122 41.0066 24.0022C41.7012 22.8647 41.7024 21.4819 41.0089 20.3935C36.6058 13.5048 43.7227 6.3298 50.123 9.50858C50.5471 9.71993 51.06 9.5425 51.2682 9.11518C51.4773 8.68695 51.3025 8.16918 50.8784 7.95876C42.9563 4.02387 34.2206 12.9363 39.5701 21.3287C39.9039 21.8525 39.8961 22.5292 39.5502 23.0949C39.4341 23.2855 39.372 23.5029 39.2856 23.7085H38.0979C36.253 23.7085 34.7525 21.8342 34.7525 19.5301V18.4056C34.7525 17.9284 34.37 17.5417 33.8971 17.5417C33.4245 17.5417 33.0414 17.9284 33.0414 18.4056V19.5301C33.0414 22.2163 34.5946 24.4639 36.6997 25.1782C33.4613 25.7924 31 28.6595 31 32.1059V51.1361C31 51.6133 31.383 52 31.8555 52C32.3282 52 32.711 51.6133 32.711 51.1361V32.1059C32.711 29.1657 35.0795 26.7733 37.9914 26.7733H39.0487C39.1615 27.1851 39.3288 27.579 39.55 27.941C39.8879 28.4943 39.9325 29.1574 39.494 29.827C35.6023 35.8043 39.5995 44.0153 46.9006 44.0153C49.9146 44.0153 52.7107 42.5052 54.3803 39.9764C60.4426 30.794 60.6353 20.5484 54.3837 11.066Z" fill="#FE9015"/>
</svg>
