<svg width="60" height="60" viewBox="0 0 60 60" fill="none" xmlns="http://www.w3.org/2000/svg">
<path d="M15.0755 39.4608C16.0703 39.4608 17.0055 39.072 17.7086 38.3657C17.8908 38.1827 18.1328 38.0819 18.39 38.0819C18.6473 38.0819 18.8894 38.1827 19.0715 38.3657H19.0716C19.7746 39.0719 20.7097 39.4608 21.7045 39.4608C22.6993 39.4608 23.6345 39.072 24.3375 38.3658C25.6801 37.0175 25.7967 34.8789 24.6089 33.3915L22.1649 30.331C21.2418 29.1752 19.8659 28.5123 18.3899 28.5124C16.9141 28.5124 15.5383 29.1753 14.6153 30.331L12.1713 33.3915C10.9834 34.8788 11.1001 37.0172 12.4426 38.3657C13.1457 39.072 14.0807 39.4608 15.0755 39.4608ZM13.5448 34.4883L15.9889 31.4279C16.5766 30.6922 17.4516 30.2702 18.39 30.2702C19.3285 30.2702 20.2037 30.6922 20.7913 31.4279L23.2353 34.4883C23.8651 35.277 23.8035 36.4108 23.0918 37.1255C22.721 37.4979 22.2282 37.703 21.7044 37.703C21.1806 37.703 20.6878 37.4979 20.317 37.1255H20.3172C19.8025 36.6086 19.1181 36.3241 18.3899 36.3241C17.6617 36.3241 16.9772 36.6087 16.4628 37.1255C16.092 37.4979 15.5992 37.703 15.0754 37.703C14.5516 37.703 14.0588 37.4979 13.6881 37.1255C12.9766 36.4108 12.9151 35.277 13.5448 34.4883ZM23.1521 26.5421C23.8402 26.0072 24.307 25.1198 24.4331 24.1077C24.6589 22.2935 23.7262 20.7329 22.3097 20.5549C21.7397 20.4832 21.1536 20.6557 20.6592 21.0403C19.9712 21.5753 19.5044 22.4626 19.3783 23.4746C19.1524 25.2888 20.0851 26.8494 21.5018 27.0274C22.086 27.1009 22.6589 26.9258 23.1521 26.5421ZM21.1226 23.6918C21.2243 23.0171 21.5654 22.2329 22.0907 22.299C22.4104 22.3392 22.8022 22.9792 22.6888 23.8905C22.5996 24.607 22.2722 25.3527 21.7208 25.2834C21.4013 25.2432 21.0092 24.6032 21.1226 23.6918ZM26.4252 32.196C27.2951 32.196 28.2055 31.7827 28.9228 31.0621H28.9229C30.2096 29.7696 30.4284 27.9644 29.4207 26.9524C29.0137 26.5437 28.4438 26.3185 27.8158 26.3185C26.946 26.3185 26.0355 26.7319 25.3182 27.4524C24.0314 28.7449 23.8126 30.5502 24.8203 31.5622C25.2272 31.9709 25.7972 32.196 26.4252 32.196ZM26.5639 28.6926C27.0546 28.1999 27.8021 27.8181 28.1751 28.1926C28.4043 28.4227 28.3243 29.1719 27.6772 29.8218H27.6773C27.1883 30.3016 26.4679 30.7255 26.066 30.3219C25.8368 30.0917 25.9167 29.3427 26.5639 28.6926ZM57.0173 33.301H32.083C30.4381 33.301 29.1 34.6328 29.1 36.2699C29.1 37.625 30.0171 38.7699 31.2656 39.1246L32.2315 50.5345H3.18434L6.55569 9.46495H30.2244L31.961 30.6178C31.9986 31.077 32.3831 31.4248 32.8359 31.4248C32.86 31.4248 32.8844 31.4239 32.9088 31.4218C33.3926 31.3821 33.7525 30.9577 33.7128 30.474L31.9346 8.81503L35.0584 4.03873C35.5203 3.33268 35.4494 2.43878 34.882 1.81452C34.3175 1.1932 33.4389 1.03781 32.696 1.42827C32.694 1.42921 32.6921 1.43027 32.6901 1.43132C32.1482 1.71421 31.5023 1.71339 30.9607 1.42874L29.0333 0.415896C27.9781 -0.138515 26.7185 -0.138515 25.6633 0.415896L23.7361 1.42874C23.1932 1.71421 22.5445 1.71421 22.0016 1.42874L20.0746 0.415896C19.0194 -0.138515 17.7597 -0.138515 16.7045 0.415896L14.7776 1.42863C14.2347 1.71409 13.5865 1.71409 13.0431 1.42863L11.116 0.415896C10.061 -0.138632 8.80099 -0.138632 7.74595 0.415896L5.81893 1.42863C5.27601 1.71409 4.62738 1.71409 4.08445 1.42863C3.34149 1.03828 2.46306 1.19343 1.89833 1.81476C1.33091 2.43901 1.26002 3.33291 1.72185 4.03896L4.84535 8.81468L1.35904 51.285L0.0429153 57.318C-0.10931 58.0182 0.14979 58.7224 0.7192 59.1558C1.28627 59.5875 2.0304 59.6501 2.66181 59.3187L4.08516 58.5708C4.62785 58.2851 5.27589 58.2851 5.81905 58.5711L7.7456 59.5836C8.80146 60.1384 10.0616 60.1383 11.1155 59.5837L13.0439 58.5708C13.5868 58.2851 14.2348 58.2852 14.778 58.5711L16.7042 59.5833C17.7596 60.1389 19.0198 60.1388 20.0747 59.5836L22.0013 58.5709C22.5447 58.2854 23.1929 58.2852 23.7361 58.5711L25.663 59.5832C26.1909 59.8611 26.7698 59.9999 27.3488 59.9999C27.9275 59.9999 28.5062 59.8611 29.0334 59.5836L30.9611 58.5711C31.3908 58.3454 31.5562 57.814 31.3305 57.3843C31.1047 56.9546 30.5734 56.7889 30.1437 57.0149L28.2153 58.0278C27.6724 58.3135 27.0245 58.3135 26.4811 58.0274L24.5541 57.0153C23.4994 56.4602 22.2393 56.4601 21.1834 57.0151L19.2563 58.0279C18.7138 58.3136 18.0658 58.3137 17.5224 58.0277L15.5962 57.0154C14.5407 56.4597 13.2803 56.4598 12.2258 57.0151L10.2975 58.0279C9.75512 58.3134 9.10684 58.3134 8.56333 58.0277L6.63713 57.0154C5.58175 56.4597 4.32152 56.4598 3.26661 57.0152L1.84419 57.7626C1.82802 57.771 1.81244 57.7792 1.78372 57.7574C1.7515 57.7329 1.75654 57.71 1.7604 57.6923L2.93837 52.2924H32.3804L32.6922 55.9761C32.8865 58.27 34.7691 59.9998 37.0711 59.9998H52.0287C54.2931 59.9998 56.2165 58.2323 56.4075 55.9761L57.8344 39.1247C59.083 38.7701 60 37.625 60 36.27C60.0002 34.6328 58.6621 33.301 57.0173 33.301ZM3.1929 3.07698C3.17567 3.05049 3.16524 3.03444 3.19911 2.99717C3.22864 2.96459 3.23836 2.96963 3.26672 2.98475C4.32164 3.53916 5.58163 3.53928 6.63678 2.98475L8.5638 1.97202C9.10673 1.68655 9.75535 1.68655 10.2983 1.97202L12.2253 2.98475C13.2805 3.53916 14.5402 3.53916 15.5954 2.98475L17.5223 1.97202C18.0654 1.68655 18.7138 1.68667 19.2567 1.97202L21.1839 2.98487C22.2388 3.53928 23.4987 3.53916 24.5538 2.98487L26.481 1.97202C27.024 1.68667 27.6723 1.68667 28.2156 1.97202L30.143 2.98498C31.1982 3.5394 32.4577 3.5394 33.5129 2.98498L33.5184 2.98205C33.5431 2.96916 33.5532 2.96623 33.5813 2.99694C33.6152 3.0342 33.6047 3.05026 33.5875 3.07674L30.5588 7.70715H6.22135L3.1929 3.07698ZM54.6561 55.8277C54.5414 57.1815 53.3875 58.2419 52.0288 58.2419H37.0714C35.6901 58.2419 34.5605 57.204 34.444 55.8276L34.3074 54.2138H54.7928L54.6561 55.8277ZM54.9416 52.456H34.1586L33.5294 45.0247H55.5708L54.9416 52.456ZM55.7196 43.2669H33.3806L33.0395 39.2389H56.0608L55.7196 43.2669ZM57.0173 37.4809H57.004C57.0028 37.4809 57.0015 37.4809 57.0004 37.4809H32.083C31.4074 37.4809 30.8578 36.9377 30.8578 36.2698C30.8578 35.602 31.4074 35.0587 32.083 35.0587H57.0173C57.6928 35.0587 58.2424 35.602 58.2424 36.2698C58.2424 36.9377 57.6927 37.4809 57.0173 37.4809ZM8.96423 26.1491C8.33634 26.1491 7.76634 26.3742 7.35959 26.7829C6.35178 27.795 6.57057 29.6002 7.85728 30.8927H7.8574C8.57482 31.6133 9.48524 32.0266 10.3551 32.0266C10.983 32.0266 11.553 31.8015 11.9598 31.3928C12.9676 30.3808 12.7488 28.5756 11.4621 27.2831C10.7445 26.5624 9.83422 26.1491 8.96423 26.1491ZM10.7142 30.1525C10.3334 30.5348 9.61051 30.1411 9.10298 29.6525H9.10309C8.45599 29.0026 8.37595 28.2534 8.60528 28.0231C8.99142 27.6354 9.74774 28.0523 10.2165 28.5233C10.8635 29.1732 10.9435 29.9223 10.7142 30.1525ZM16.1209 21.0402C15.6264 20.6556 15.0395 20.483 14.4706 20.5549C13.054 20.7329 12.1212 22.2934 12.3471 24.1077C12.473 25.1198 12.94 26.0071 13.628 26.542C14.0493 26.8695 14.537 27.0432 15.0245 27.0432C16.6102 27.0432 17.6352 25.3753 17.4019 23.4746C17.2759 22.4625 16.8089 21.5752 16.1209 21.0402ZM15.0595 25.2834C14.5224 25.3509 14.1774 24.5816 14.0914 23.8907C13.9779 22.9793 14.3701 22.3392 14.6896 22.299C15.2806 22.2247 15.5552 23.0223 15.6576 23.6919C15.771 24.6033 15.379 25.2432 15.0595 25.2834Z" fill="#FE9015"/>
</svg>
