<svg width="60" height="60" viewBox="0 0 60 60" fill="none" xmlns="http://www.w3.org/2000/svg">
<path fill-rule="evenodd" clip-rule="evenodd" d="M11.2511 13.5938H49.2033L59.1652 26.1633L52.5667 47.8125H9.28941L9.06843 47.6816C8.89209 47.5771 8.77827 47.4394 8.72449 47.3703C8.65878 47.2857 8.60176 47.1954 8.55369 47.1124C8.45705 46.9455 8.35767 46.7402 8.25798 46.5156C8.05686 46.0625 7.8197 45.4513 7.5587 44.7319C7.0351 43.2886 6.39326 41.3475 5.71876 39.2236C4.36872 34.9725 2.87525 29.9495 1.912 26.6209L1.78174 26.1708L11.2511 13.5938ZM12.1865 15.4688L4.69192 25.4228H56.1858L48.2968 15.4688H12.1865ZM56.8592 27.2978H4.06143C5.01146 30.5513 6.31559 34.9083 7.5058 38.656C8.17804 40.7728 8.81079 42.6853 9.32129 44.0924C9.57735 44.7983 9.79712 45.3615 9.97176 45.755C10.002 45.823 10.0298 45.8838 10.0553 45.9375H51.178L56.8592 27.2978Z" fill="#FE9015"/>
<path fill-rule="evenodd" clip-rule="evenodd" d="M33.8128 34.3062L32.7438 33.7461C31.94 33.3248 31.0052 33.0807 30.0044 33.0807C29.002 33.0807 28.0607 33.3256 27.2584 33.7461L26.1897 34.3061L24.375 32.8952V37.884C24.375 40.6853 26.8075 43.125 30 43.125C33.1925 43.125 35.625 40.6853 35.625 37.884V32.8965L33.8128 34.3062ZM37.5 29.0625V37.884C37.5 41.814 34.1324 45 30 45C25.8676 45 22.5 41.814 22.5 37.884V29.0625L26.388 32.0853C27.4574 31.5249 28.6971 31.2057 30.0044 31.2057C31.3117 31.2057 32.5448 31.5249 33.6141 32.0853L37.5 29.0625Z" fill="#FE9015"/>
<path fill-rule="evenodd" clip-rule="evenodd" d="M45.0281 26.0226L47.8406 14.7726L49.6596 15.2273L46.8471 26.4773L45.0281 26.0226ZM13.6135 26.4412L11.2698 15.1912L13.1054 14.8088L15.4491 26.0588L13.6135 26.4412Z" fill="#FE9015"/>
</svg>
