<svg width="24" height="23" viewBox="0 0 24 23" fill="none" xmlns="http://www.w3.org/2000/svg">
<g clip-path="url(#clip0_938_277)">
<path d="M12.0016 1.98927C7.89749 1.98927 4.57812 5.04366 4.57812 8.82018C4.57812 13.9434 12.0016 21.5062 12.0016 21.5062C12.0016 21.5062 19.4251 13.9434 19.4251 8.82018C19.4251 5.04366 16.1057 1.98927 12.0016 1.98927ZM6.69912 8.82018C6.69912 6.12685 9.07464 3.94095 12.0016 3.94095C14.9286 3.94095 17.3041 6.12685 17.3041 8.82018C17.3041 11.6306 14.2499 15.8365 12.0016 18.4615C9.79578 15.856 6.69912 11.6013 6.69912 8.82018Z" fill="#FE9015"/>
<path d="M11.9982 11.3096C13.3132 11.3096 14.3793 10.2879 14.3793 9.02772C14.3793 7.7675 13.3132 6.74589 11.9982 6.74589C10.6832 6.74589 9.61719 7.7675 9.61719 9.02772C9.61719 10.2879 10.6832 11.3096 11.9982 11.3096Z" fill="#FE9015"/>
</g>
<defs>
<clipPath id="clip0_938_277">
<rect width="24" height="23" fill="white"/>
</clipPath>
</defs>
</svg>
