<svg width="38" height="60" viewBox="0 0 38 60" fill="none" xmlns="http://www.w3.org/2000/svg">
<path d="M35.0011 39.3184C34.1384 36.4423 34.1384 33.4016 35.0011 30.5255L36.9345 24.081C38.2354 19.7447 37.3281 15.0416 34.5077 11.5005C33.8418 10.6643 32.914 10.1127 31.8863 9.92051V4.39453C31.8863 1.97133 29.9149 0 27.4917 0H10.5089C8.08569 0 6.11436 1.97133 6.11436 4.39453V9.92051C5.0865 10.1127 4.15885 10.6643 3.49299 11.5004C0.672514 15.0416 -0.234752 19.7446 1.06615 24.081L2.99951 30.5255C3.86224 33.4016 3.86224 36.4423 2.99951 39.3184L1.06615 45.7629C0.926694 46.2279 1.19048 46.7179 1.65537 46.8573C2.12037 46.9969 2.61021 46.733 2.74978 46.2681L4.68314 39.8235C5.64502 36.6169 5.64502 33.227 4.68314 30.0204L2.74978 23.5759C1.61447 19.7912 2.40619 15.6864 4.86795 12.5957C5.37104 11.964 6.12268 11.6017 6.93033 11.6017H31.0703C31.8779 11.6017 32.6296 11.964 33.1328 12.5958C35.5944 15.6865 36.3863 19.7912 35.2508 23.5759L33.3175 30.0205C32.3556 33.2271 32.3556 36.617 33.3175 39.8236L35.2508 46.2681C36.3861 50.0528 35.5944 54.1576 33.1327 57.2483C32.6296 57.88 31.8779 58.2423 31.0703 58.2423H6.93033C6.12268 58.2423 5.37103 57.88 4.86783 57.2483C3.13334 55.0705 2.20088 52.3379 2.24224 49.5538C2.24951 49.0684 1.86185 48.6691 1.37646 48.662C0.885914 48.6548 0.491694 49.0424 0.484663 49.5278C0.437319 52.7175 1.5056 55.8484 3.49287 58.3434C4.33135 59.3964 5.58432 60.0002 6.93033 60.0002H31.0703C32.4163 60.0002 33.6693 59.3964 34.5076 58.3436C37.3281 54.8024 38.2354 50.0994 36.9345 45.763L35.0011 39.3184ZM14.8987 1.75781H23.1019V3.38109C23.1019 3.77836 22.7787 4.10156 22.3814 4.10156H15.6192C15.2218 4.10156 14.8987 3.77836 14.8987 3.38109V1.75781ZM30.1284 9.84375H7.87217V4.39453C7.87217 2.94059 9.05506 1.75781 10.5089 1.75781H13.1409V3.38109C13.1409 4.74762 14.2527 5.85938 15.6192 5.85938H22.3813C23.7478 5.85938 24.8596 4.74762 24.8596 3.38109V1.75781H27.4916C28.9454 1.75781 30.1283 2.94059 30.1283 4.39453L30.1284 9.84375Z" fill="#FE9015"/>
<path fill-rule="evenodd" clip-rule="evenodd" d="M23.067 28.5933L21.9267 27.9958C21.0694 27.5465 20.0722 27.2861 19.0047 27.2861C17.9355 27.2861 16.9314 27.5473 16.0756 27.9958L14.9357 28.5931L13 27.0882V32.4096C13 35.3977 15.5946 38 19 38C22.4054 38 25 35.3977 25 32.4096V27.0896L23.067 28.5933ZM27 23V32.4096C27 36.6016 23.4079 40 19 40C14.5921 40 11 36.6016 11 32.4096V23L15.1473 26.2243C16.2879 25.6266 17.6103 25.2861 19.0047 25.2861C20.3991 25.2861 21.7145 25.6266 22.8551 26.2243L27 23Z" fill="#FE9015"/>
</svg>
