<svg width="60" height="60" viewBox="0 0 60 60" fill="none" xmlns="http://www.w3.org/2000/svg">
<path d="M16.7202 25.0382L16.64 25.9353L15.6878 25.9216C14.7992 25.9089 12.9088 26.0572 10.9098 26.4157C8.88257 26.7793 6.93064 27.3275 5.80614 28.0331L5.23662 28.3904L13.8257 37.7974L14.248 37.3289C15.1211 36.3602 15.9466 34.5404 16.5887 32.6191C17.2215 30.7257 17.619 28.9124 17.7116 28.0785L17.8109 27.1832L18.7628 27.2151C22.2715 27.3326 30.2247 27.0056 35.6833 22.4292C39.7448 19.024 40.9505 15.8433 41.2779 13.8545C41.6772 11.4274 41.0331 9.14803 39.6945 7.72142C38.3583 6.2974 36.0421 5.42124 33.4441 5.50556C31.3143 5.57469 27.8278 6.32556 23.7674 9.7298C18.3088 14.3062 17.0157 21.7311 16.7202 25.0382Z" stroke="#FE9015" stroke-width="2"/>
<path d="M44.2178 34.9618L44.298 34.0647L45.2502 34.0784C46.1388 34.0911 48.0292 33.9428 50.0282 33.5843C52.0554 33.2207 54.0074 32.6725 55.1319 31.9669L55.7014 31.6096L47.1123 22.2026L46.69 22.6711C45.8169 23.6398 44.9914 25.4596 44.3493 27.381C43.7165 29.2743 43.319 31.0876 43.2264 31.9215L43.1271 32.8168L42.1752 32.7849C38.6665 32.6674 30.7133 32.9944 25.2547 37.5708C21.1931 40.976 19.9875 44.1567 19.6601 46.1455C19.2608 48.5726 19.9049 50.852 21.2435 52.2786C22.5796 53.7026 24.8958 54.5788 27.4939 54.4944C29.6237 54.4253 33.1102 53.6744 37.1706 50.2702C42.6292 45.6938 43.9223 38.2689 44.2178 34.9618Z" stroke="#FE9015" stroke-width="2"/>
<path d="M36.4107 10.544C36.9455 11.114 36.8967 11.9955 36.281 12.5117C35.6654 13.0278 34.7337 12.9684 34.1988 12.3984C33.664 11.8283 33.7128 10.9468 34.3284 10.4307C34.9441 9.91453 35.8758 9.97395 36.4107 10.544Z" stroke="#FE9015" stroke-width="2"/>
<path d="M24.5273 49.456C23.9925 48.886 24.0413 48.0045 24.6569 47.4883C25.2726 46.9722 26.2043 47.0316 26.7392 47.6016C27.274 48.1717 27.2252 49.0532 26.6095 49.5693C25.9939 50.0855 25.0622 50.0261 24.5273 49.456Z" stroke="#FE9015" stroke-width="2"/>
</svg>
