<svg width="60" height="60" viewBox="0 0 60 60" fill="none" xmlns="http://www.w3.org/2000/svg">
<g clip-path="url(#clip0_574_2920)">
<path d="M32.7776 11.7735C33.1617 11.6206 33.566 11.5415 33.9792 11.5381C34.4076 11.5306 34.8335 11.6138 35.2357 11.7737C35.3422 11.816 35.452 11.836 35.56 11.836C35.9095 11.836 36.2401 11.6261 36.3771 11.2816C36.5564 10.8305 36.3361 10.3195 35.885 10.1402C35.2707 9.89597 34.6234 9.77538 33.9648 9.78042C33.3331 9.78558 32.7151 9.90675 32.1279 10.1403C31.6768 10.3197 31.4566 10.8309 31.6361 11.2818C31.8157 11.7328 32.3265 11.9528 32.7776 11.7735ZM24.4418 11.8361C24.5498 11.8361 24.6598 11.8161 24.7664 11.7737C25.1507 11.6208 25.555 11.5416 25.9682 11.5382C26.3961 11.5325 26.8224 11.6138 27.2245 11.7738C27.6756 11.9531 28.1865 11.7326 28.3659 11.2818C28.5452 10.8307 28.325 10.3197 27.874 10.1403C27.2598 9.89609 26.6129 9.77808 25.9537 9.78054C25.3221 9.7857 24.7041 9.90675 24.1168 10.1404C23.6658 10.3198 23.4456 10.8309 23.625 11.2819C23.7619 11.6264 24.0923 11.8361 24.4418 11.8361ZM51.5868 17.2276H43.3909C43.5093 15.7832 43.3312 13.7405 42.6335 12.0424C43.5082 11.0545 44.2314 9.95363 44.7851 8.76265C46.1936 5.73313 46.1793 2.9068 45.9195 1.06919C45.8384 0.495911 45.3604 0.0552874 44.7832 0.0210687C43.3585 -0.0633061 41.9681 0.118334 40.6509 0.560833C38.0872 1.42228 36.3574 3.08739 35.2815 4.50008C33.6785 3.78805 31.8995 3.37157 30.0009 3.37157C28.1024 3.37157 26.3232 3.78805 24.7203 4.50008C23.6444 3.08739 21.9146 1.42228 19.3509 0.560833C18.0339 0.118451 16.6437 -0.0631889 15.2188 0.0210687C14.6414 0.0552874 14.1634 0.496029 14.0823 1.06919C13.8224 2.90692 13.8082 5.73324 15.2167 8.76265C15.7704 9.95363 16.4936 11.0544 17.3682 12.0423C16.8622 13.2451 16.567 15.2743 16.5715 16.1803C16.5792 17.7658 16.8669 19.3348 17.4138 20.7433H8.41502C5.71409 20.7433 3.51659 22.9407 3.51659 25.6417V36.5636H1.75879V25.6417C1.75879 21.9715 4.74472 18.9855 8.41502 18.9855H13.8291C14.3145 18.9855 14.708 18.5921 14.708 18.1066C14.708 17.6211 14.3145 17.2277 13.8291 17.2277H8.41502C3.77558 17.2277 0.000976562 21.0022 0.000976562 25.6417V47.4034C0.000976562 54.3497 5.65222 60.001 12.5986 60.001H47.4032C54.3496 60.001 60.0009 54.3497 60.0009 47.4034V25.6417C60.0009 21.002 56.2263 17.2276 51.5868 17.2276ZM41.2107 2.22712C42.1759 1.90274 43.1905 1.74829 44.2326 1.75966C44.3741 3.16637 44.3504 5.52852 43.1913 8.02168C42.811 8.83964 42.3372 9.60792 41.7806 10.319C40.6367 8.37628 38.945 6.60066 36.8636 5.33082C37.7872 4.18368 39.198 2.90329 41.2107 2.22712ZM30.0009 5.12926C35.8869 5.12926 40.452 9.7189 41.4651 14.1561C41.6778 15.0877 41.6743 15.8199 41.6727 16.1717L41.6724 16.2551C41.6724 22.39 36.4366 27.381 30.001 27.381C23.5655 27.381 18.3297 22.3899 18.3297 16.2551L18.3294 16.1718C18.3278 15.8199 18.3243 15.0876 18.537 14.1557V14.1558C19.5499 9.71878 24.1151 5.12926 30.0009 5.12926ZM18.1357 39.0438C18.6653 37.1187 19.3106 35.2111 20.0585 33.3694C20.5459 32.1705 21.081 30.987 21.6591 29.8267L28.0301 34.1016C27.1281 34.725 26.536 35.7631 26.536 36.9367C26.536 38.8389 28.0904 40.3865 30.001 40.3865C31.9117 40.3865 33.466 38.8389 33.466 36.9367C33.466 35.8013 32.9121 34.7925 32.0594 34.1635L38.5687 30.29C39.0601 31.3016 39.5206 32.3291 39.9433 33.369C40.6913 35.211 41.3367 37.1186 41.8662 39.0437C41.5849 39.6226 41.4268 40.2721 41.4268 40.9579V46.2313C41.4268 47.6851 40.244 48.868 38.7901 48.868H21.212C19.758 48.868 18.5753 47.6851 18.5753 46.2313V40.9579C18.5752 40.2723 18.417 39.6229 18.1357 39.0438ZM28.2936 36.9368C28.2936 36.0038 29.0594 35.2447 30.0008 35.2447C30.9422 35.2447 31.708 36.0039 31.708 36.9368C31.708 37.8697 30.9422 38.6288 30.0008 38.6288C29.0596 38.6288 28.2936 37.8697 28.2936 36.9368ZM30.029 33.3263L22.4755 28.2579C22.6567 27.9239 22.8419 27.5927 23.0299 27.2635C25.0632 28.453 27.4501 29.1389 30.0009 29.1389C32.5517 29.1389 34.9386 28.4529 36.9718 27.2635C37.2456 27.7436 37.5126 28.2286 37.7718 28.7187L30.029 33.3263ZM16.8106 8.02156C15.6515 5.52852 15.6278 3.16626 15.7692 1.75954C16.8099 1.74782 17.826 1.90286 18.7911 2.227C20.8038 2.90329 22.2146 4.18368 23.1382 5.33059C21.0568 6.60043 19.365 8.37605 18.2213 10.3188C17.6646 9.60769 17.1907 8.83941 16.8106 8.02156ZM5.2744 25.6416C5.2744 23.9099 6.68323 22.501 8.41502 22.501H18.2589C19.1024 23.9543 20.2302 25.2358 21.5701 26.2755C20.3842 28.3377 19.3287 30.4973 18.4301 32.7078C17.8073 34.2412 17.2529 35.8184 16.7746 37.4136C16.0471 36.8797 15.1502 36.5636 14.1808 36.5636H5.27452V25.6416H5.2744ZM58.2431 47.4033C58.2431 53.3804 53.3804 58.2431 47.4032 58.2431H12.5986C6.62147 58.2431 1.75879 53.3804 1.75879 47.4033V38.3213H14.1806C15.6346 38.3213 16.8174 39.5042 16.8174 40.958V46.2314C16.8174 48.6546 18.7887 50.6259 21.2119 50.6259H38.79C41.2132 50.6259 43.1845 48.6546 43.1845 46.2314V40.958C43.1845 39.5042 44.3673 38.3213 45.8212 38.3213H58.2431V47.4033ZM58.2431 36.5635H56.4852V25.6416C56.4852 22.9406 54.2879 20.7432 51.5868 20.7432H45.1181C44.6327 20.7432 44.2392 21.1366 44.2392 21.6221C44.2392 22.1076 44.6327 22.501 45.1181 22.501H51.5868C53.3185 22.501 54.7274 23.9098 54.7274 25.6416V36.5635H45.8212C44.8516 36.5635 43.9549 36.8797 43.2274 37.4135C42.749 35.8183 42.1946 34.241 41.5718 32.7074C41.0172 31.3433 40.4013 29.9993 39.7338 28.6846C39.7291 28.6743 39.7234 28.6642 39.7182 28.654C39.3088 27.8489 38.88 27.055 38.4322 26.2751C40.7727 24.4589 42.4658 21.9049 43.1252 18.9854H51.5868C55.257 18.9854 58.2431 21.9713 58.2431 25.6416V36.5635ZM27.0193 15.7924C26.7185 16.3224 26.7254 16.9515 27.0381 17.4747L28.5575 20.0187C28.7005 20.2581 28.8949 20.4517 29.122 20.5908V21.2983C29.122 21.7202 28.7746 22.0632 28.3475 22.0632C27.9205 22.0632 27.573 21.72 27.573 21.2983C27.573 20.8128 27.1795 20.4194 26.6941 20.4194C26.2087 20.4194 25.8152 20.8128 25.8152 21.2983C25.8152 22.6893 26.9512 23.821 28.3475 23.821C28.979 23.821 29.5569 23.5889 30.0009 23.2066C30.4449 23.5888 31.0228 23.821 31.6543 23.821C33.0507 23.821 34.1866 22.6893 34.1866 21.2983C34.1866 20.8128 33.7931 20.4194 33.3077 20.4194C32.8223 20.4194 32.4288 20.8128 32.4288 21.2983C32.4288 21.7202 32.0813 22.0632 31.6543 22.0632C31.2273 22.0632 30.8798 21.72 30.8798 21.2983V20.5908C31.1069 20.4517 31.3013 20.2583 31.4443 20.0188L32.9638 17.4747C33.2763 16.9513 33.2833 16.3224 32.9825 15.7924C32.6849 15.268 32.1246 14.9422 31.5204 14.9422H28.4815C27.8773 14.9422 27.3169 15.2681 27.0193 15.7924ZM31.379 16.7L30.0009 19.0074L28.6228 16.7H31.379Z" fill="#FE9015"/>
</g>
<defs>
<clipPath id="clip0_574_2920">
<rect width="60" height="60" fill="white"/>
</clipPath>
</defs>
</svg>
