<svg width="60" height="60" viewBox="0 0 60 60" fill="none" xmlns="http://www.w3.org/2000/svg">
<g clip-path="url(#clip0_574_2994)">
<path d="M42.4623 14.0943L38.3954 11.6541V9.27598H41.2721C41.7585 9.27598 42.1528 8.88164 42.1528 8.39531V0.880664C42.1528 0.394336 41.7585 0 41.2721 0H18.7281C18.2417 0 17.8474 0.394336 17.8474 0.880664V8.39531C17.8474 8.88164 18.2417 9.27598 18.7281 9.27598H21.6048V11.6541L17.5379 14.0944C13.5424 14.2271 10.3328 17.5189 10.3328 21.5461V55.3622C10.3328 57.9196 12.4134 60.0001 14.9707 60.0001H45.0294C47.5868 60.0001 49.6673 57.9195 49.6673 55.3622V21.546C49.6675 17.5188 46.4577 14.227 42.4623 14.0943ZM38.3954 1.76121H40.3915V7.51465H38.3954V1.76121ZM30.8808 1.76121H36.6342V7.51465H30.8808V1.76121ZM23.366 1.76121H29.1194V7.51465H23.366V1.76121ZM19.6087 7.51465V1.76121H21.6048V7.51465H19.6087ZM47.9061 55.3621C47.9061 56.9482 46.6155 58.2388 45.0294 58.2388H14.9708C13.3847 58.2388 12.0941 56.9482 12.0941 55.3621V51.546H47.9062V55.3621H47.9061ZM47.9061 23.4833H41.272C40.7857 23.4833 40.3914 23.8777 40.3914 24.364C40.3914 24.8503 40.7857 25.2446 41.272 25.2446H47.9061V49.7848H12.0941V25.2446H37.0452C37.5315 25.2446 37.9259 24.8503 37.9259 24.364C37.9259 23.8777 37.5315 23.4833 37.0452 23.4833H12.0941V21.546C12.0941 18.4059 14.6488 15.8513 17.7888 15.8513C17.9484 15.8513 18.105 15.8078 18.242 15.7257L22.9386 12.9077C23.2038 12.7486 23.3661 12.462 23.3661 12.1526V9.27598H36.6342V12.1527C36.6342 12.462 36.7965 12.7487 37.0617 12.9079L41.7584 15.7259C41.8952 15.8079 42.0519 15.8514 42.2115 15.8514C45.3516 15.8514 47.9062 18.4061 47.9062 21.5461V23.4833H47.9061Z" fill="#FE9015"/>
<path d="M30.0001 34.7549C26.0185 34.7549 22.7791 37.9943 22.7791 41.976C22.7791 45.6154 25.4786 47.7881 30.0001 47.7881C34.5217 47.7881 37.2212 45.6154 37.2212 41.976C37.2212 37.9943 33.9818 34.7549 30.0001 34.7549ZM30.0001 46.0269C27.9611 46.0269 24.5403 45.5006 24.5403 41.976C24.5403 38.9654 26.9896 36.5161 30.0001 36.5161C33.0107 36.5161 35.46 38.9654 35.46 41.976C35.46 45.5006 32.0392 46.0269 30.0001 46.0269Z" fill="#FE9015"/>
<path d="M26.4773 27.7109C24.6773 27.7109 23.4832 29.937 23.4832 31.4096C23.4832 33.0607 24.8262 34.4038 26.4773 34.4038C28.1283 34.4038 29.4714 33.0607 29.4714 31.4096C29.4714 29.937 28.2773 27.7109 26.4773 27.7109ZM26.4773 32.6424C25.7975 32.6424 25.2444 32.0894 25.2444 31.4095C25.2444 30.5766 25.9473 29.4721 26.4773 29.4721C27.0073 29.4721 27.7102 30.5766 27.7102 31.4095C27.7102 32.0894 27.1572 32.6424 26.4773 32.6424Z" fill="#FE9015"/>
<path d="M33.5227 27.7109C31.7227 27.7109 30.5286 29.937 30.5286 31.4096C30.5286 33.0607 31.8716 34.4038 33.5227 34.4038C35.1738 34.4038 36.5168 33.0607 36.5168 31.4096C36.5168 29.937 35.3227 27.7109 33.5227 27.7109ZM33.5227 32.6424C32.8429 32.6424 32.2898 32.0894 32.2898 31.4095C32.2898 30.5766 32.9927 29.4721 33.5227 29.4721C34.0527 29.4721 34.7556 30.5766 34.7556 31.4095C34.7555 32.0894 34.2025 32.6424 33.5227 32.6424Z" fill="#FE9015"/>
<path d="M39.1584 31.9375C37.3584 31.9375 36.1643 34.1636 36.1643 35.6362C36.1643 37.2872 37.5074 38.6303 39.1584 38.6303C40.8095 38.6303 42.1526 37.2872 42.1526 35.6362C42.1526 34.1636 40.9584 31.9375 39.1584 31.9375ZM39.1584 36.8691C38.4786 36.8691 37.9255 36.3161 37.9255 35.6362C37.9255 34.8033 38.6284 33.6988 39.1584 33.6988C39.6885 33.6988 40.3914 34.8033 40.3914 35.6362C40.3913 36.316 39.8383 36.8691 39.1584 36.8691Z" fill="#FE9015"/>
<path d="M20.8416 31.9375C19.0416 31.9375 17.8474 34.1636 17.8474 35.6362C17.8474 37.2872 19.1905 38.6303 20.8416 38.6303C22.4926 38.6303 23.8357 37.2872 23.8357 35.6362C23.8357 34.1636 22.6416 31.9375 20.8416 31.9375ZM20.8416 36.8691C20.1617 36.8691 19.6086 36.3161 19.6086 35.6362C19.6086 34.8033 20.3115 33.6988 20.8416 33.6988C21.3716 33.6988 22.0745 34.8033 22.0745 35.6362C22.0745 36.316 21.5215 36.8691 20.8416 36.8691Z" fill="#FE9015"/>
<path d="M31.8784 40.3914H30.8803V39.3934C30.8803 38.907 30.486 38.5127 29.9996 38.5127C29.5133 38.5127 29.119 38.907 29.119 39.3934V40.3914H28.1209C27.6346 40.3914 27.2402 40.7858 27.2402 41.2721C27.2402 41.7584 27.6346 42.1528 28.1209 42.1528H29.119V43.1509C29.119 43.6372 29.5133 44.0315 29.9996 44.0315C30.486 44.0315 30.8803 43.6372 30.8803 43.1509V42.1528H31.8784C32.3647 42.1528 32.7591 41.7584 32.7591 41.2721C32.7591 40.7858 32.3647 40.3914 31.8784 40.3914Z" fill="#FE9015"/>
</g>
<defs>
<clipPath id="clip0_574_2994">
<rect width="60" height="60" fill="white"/>
</clipPath>
</defs>
</svg>
