<svg width="60" height="60" viewBox="0 0 60 60" fill="none" xmlns="http://www.w3.org/2000/svg">
<path d="M18.0661 33.5366C18.0661 31.0658 16.0562 29.0558 13.5856 29.0558C11.1151 29.0558 9.1051 31.0658 9.1051 33.5366C9.1051 36.0072 11.1151 38.0172 13.5856 38.0172C16.0562 38.0172 18.0661 36.0072 18.0661 33.5366ZM13.5855 36.2597C12.0841 36.2597 10.8628 35.0381 10.8628 33.5366C10.8628 32.035 12.0842 30.8133 13.5855 30.8133C15.0868 30.8133 16.3081 32.035 16.3081 33.5366C16.3081 35.0381 15.0868 36.2597 13.5855 36.2597ZM28.423 3.54386C24.8442 3.54386 21.9325 6.45573 21.9325 10.0346C21.9325 13.6136 24.8442 16.5254 28.423 16.5254C32.0019 16.5254 34.9135 13.6136 34.9135 10.0346C34.9135 6.45573 32.0019 3.54386 28.423 3.54386ZM28.423 14.7679C25.8133 14.7679 23.6903 12.6446 23.6903 10.0346C23.6903 7.42471 25.8133 5.30139 28.423 5.30139C31.0326 5.30139 33.1557 7.42471 33.1557 10.0346C33.1557 12.6446 31.0325 14.7679 28.423 14.7679ZM43.4678 16.5254C47.0467 16.5254 49.9583 13.6136 49.9583 10.0346C49.9583 6.45573 47.0467 3.54386 43.4678 3.54386C39.889 3.54386 36.9774 6.45573 36.9774 10.0346C36.9774 13.6136 39.889 16.5254 43.4678 16.5254ZM43.4678 5.30139C46.0774 5.30139 48.2005 7.42471 48.2005 10.0346C48.2005 12.6446 46.0774 14.7679 43.4678 14.7679C40.8582 14.7679 38.7352 12.6446 38.7352 10.0346C38.7352 7.42471 40.8583 5.30139 43.4678 5.30139ZM8.15166 47.1187C8.15166 49.1994 9.84432 50.8921 11.925 50.8921C14.0055 50.8921 15.6982 49.1994 15.6982 47.1187C15.6982 45.0381 14.0055 43.3454 11.925 43.3454C9.84443 43.3454 8.15166 45.0381 8.15166 47.1187ZM13.9405 47.1187C13.9405 48.2303 13.0364 49.1346 11.9251 49.1346C10.8138 49.1346 9.90959 48.2303 9.90959 47.1187C9.90959 46.0073 10.8138 45.103 11.9251 45.103C13.0364 45.103 13.9405 46.0073 13.9405 47.1187ZM57.5933 37.4456C59.6558 34.5324 60.4427 31.088 59.7526 27.9112C58.6563 22.8584 54.248 20.2923 52.9229 19.6261C52.2938 19.3099 51.5789 19.2576 50.9107 19.4787C50.2422 19.7001 49.6999 20.1688 49.3845 20.7972C49.0672 21.4262 49.0146 22.1412 49.236 22.8101C49.4571 23.478 49.9252 24.0202 50.5554 24.3379C51.352 24.7377 53.9979 26.2575 54.6001 29.0287C54.8496 30.1805 54.7192 31.4371 54.2373 32.6612C50.6241 28.7412 45.6999 26.3989 40.2013 25.7628V19.5246C41.2497 19.8866 42.3481 20.0701 43.4673 20.0701C46.1922 20.0701 48.7417 18.9964 50.6462 17.0466C52.5508 15.0969 53.564 12.5207 53.4996 9.79257C53.4393 7.21932 52.3954 4.79006 50.5602 2.95216C48.7251 1.11425 46.2974 0.0671138 43.7249 0.00313975C40.7455 -0.0682159 37.9144 1.16428 35.9456 3.39529C33.9755 1.16393 31.1463 -0.0707936 28.1665 0.00313975C25.5935 0.0671138 23.1657 1.11472 21.3305 2.95309C19.4956 4.79112 18.4516 7.22049 18.3906 9.79398C18.3268 12.5224 19.3405 15.0984 21.2451 17.0478C23.1494 18.997 25.6986 20.0704 28.4227 20.0704C29.5426 20.0704 30.6413 19.887 31.6887 19.5253V23.0593C31.6887 23.5448 32.0821 23.9381 32.5676 23.9381C33.0531 23.9381 33.4465 23.5448 33.4465 23.0593V19.4505C33.4465 18.8986 33.1777 18.3788 32.7275 18.0601C32.2762 17.7406 31.6951 17.6597 31.172 17.844C30.2917 18.1551 29.3669 18.3128 28.4227 18.3128C26.1758 18.3128 24.0733 17.4274 22.5024 15.8197C20.9314 14.2117 20.0952 12.0864 20.1478 9.83546C20.198 7.71518 21.0597 5.71206 22.5745 4.19473C24.0892 2.6774 26.0907 1.81293 28.2104 1.76032C30.6755 1.69505 33.0286 2.72942 34.6541 4.58877C34.9799 4.96242 35.45 5.17707 35.9436 5.17742H35.9451C36.4387 5.17742 36.9092 4.96335 37.2361 4.58947C38.8613 2.7293 41.2117 1.69669 43.6808 1.76032C45.8001 1.81293 47.8014 2.6774 49.316 4.19414C50.8308 5.71112 51.6924 7.71412 51.742 9.83417C51.7952 12.0853 50.9593 14.2108 49.3886 15.8189C47.8176 17.4272 45.7146 18.3128 43.4672 18.3128C42.5239 18.3128 41.5994 18.1551 40.7181 17.8437C40.1957 17.6597 39.6141 17.7407 39.1626 18.0605C38.7122 18.3793 38.4434 18.8988 38.4434 19.4505V25.5993C32.328 25.1842 26.1247 26.4122 20.6352 29.1719C20.501 29.2393 20.3348 29.1929 20.248 29.0636C18.7095 26.7757 16.1464 25.451 13.3915 25.5137C9.18678 25.6133 5.7505 28.981 5.56839 33.1809C5.47335 35.3746 6.25065 37.459 7.75709 39.0502C7.86678 39.1659 7.87182 39.3389 7.7694 39.4614C5.39343 42.3039 3.40769 45.451 1.8675 48.8151C1.21652 50.2369 0 52.5916 0 54.1641C0 57.1757 2.29687 59.6607 5.23065 59.9595C5.89546 60.0272 15.6692 59.9896 16.3465 59.9896C16.832 59.9896 17.2254 59.5962 17.2254 59.1108C17.2254 58.6254 16.832 58.2321 16.3465 58.2321H9.84303C9.88697 57.8565 9.90947 57.4796 9.90947 57.1038C9.90947 53.2069 7.61799 49.7451 4.11527 48.1984C5.48495 45.482 7.16319 42.9273 9.11834 40.5883C9.79076 39.7837 9.75443 38.6032 9.03385 37.8419C7.85741 36.5995 7.25038 34.971 7.32467 33.257C7.46682 29.9779 10.1499 27.3483 13.4331 27.2706C15.5886 27.2184 17.5872 28.2566 18.7891 30.0441C19.3685 30.9058 20.5014 31.2057 21.4246 30.7421C27.7153 27.5797 34.994 26.5347 41.9193 27.7989C51.4095 29.5314 58.2422 37.784 58.2422 47.3735C58.2422 53.361 53.3715 58.2322 47.3847 58.2322H19.8623C19.3768 58.2322 18.9834 58.6255 18.9834 59.1109C18.9834 59.5964 19.3768 59.9897 19.8623 59.9897H47.3847C54.3408 59.9897 60 54.33 60 47.3733C60.0001 43.8172 59.1366 40.4353 57.5933 37.4456ZM8.15166 57.104C8.15166 57.4795 8.12459 57.8569 8.0708 58.2322H5.82561C3.58277 58.2322 1.75804 56.4073 1.75804 54.164C1.75804 53.5754 1.88238 53.0054 2.1273 52.4703L3.35753 49.7834C6.25428 51.0407 8.15166 53.8927 8.15166 57.104ZM55.493 34.1457C56.406 32.3506 56.7007 30.4224 56.318 28.6562C55.5502 25.1228 52.3166 23.2554 51.3452 22.7678C50.9169 22.5528 50.7387 22.0156 50.9548 21.587C51.1703 21.1597 51.7063 20.9816 52.1334 21.1964C53.2825 21.7741 57.1037 23.9922 58.0349 28.284C58.567 30.7339 58.0492 33.3902 56.6135 35.74C56.2639 35.1916 55.8895 34.6598 55.493 34.1457Z" fill="#FE9015"/>
</svg>
