<svg width="60" height="60" viewBox="0 0 60 60" fill="none" xmlns="http://www.w3.org/2000/svg">
<path d="M45.4859 12.2425C45.9081 11.7516 46.1593 11.1401 46.1593 10.4776V6.31759C46.1593 4.70467 44.6729 3.39258 42.8461 3.39258H17.0761C15.2492 3.39258 13.7628 4.70467 13.7628 6.31759V10.4776C13.7628 11.0237 13.9336 11.5352 14.23 11.973C12.4264 12.7761 11.1858 14.4258 11.1858 16.3276V51.4277C11.1858 54.1159 13.6629 56.3027 16.7079 56.3027H42.4779C45.5229 56.3027 48 54.1159 48 51.4277V16.3276C48 14.6186 46.998 13.1132 45.4859 12.2425ZM15.9716 6.31759C15.9716 5.7799 16.467 5.34258 17.0761 5.34258H42.8461C43.4551 5.34258 43.9505 5.7799 43.9505 6.31759V10.4776C43.9505 11.0153 43.4551 11.4526 42.8461 11.4526C42.8064 11.4526 42.7673 11.4547 42.7287 11.4582C42.6455 11.4549 42.562 11.4526 42.4779 11.4526H39.9009V8.78902C39.9009 8.25056 39.4066 7.81402 38.7965 7.81402C38.1864 7.81402 37.6921 8.25056 37.6921 8.78902V11.4526H34.0106V8.78902C34.0106 8.25056 33.5163 7.81402 32.9062 7.81402C32.2961 7.81402 31.8018 8.25056 31.8018 8.78902V11.4526H28.1203V8.78902C28.1203 8.25056 27.626 7.81402 27.0159 7.81402C26.4058 7.81402 25.9115 8.25056 25.9115 8.78902V11.4526H22.2301V8.78902C22.2301 8.25056 21.7357 7.81402 21.1256 7.81402C20.5156 7.81402 20.0212 8.25056 20.0212 8.78902V11.4526H17.0761C16.467 11.4526 15.9716 11.0153 15.9716 10.4776V6.31759ZM45.7912 51.4277C45.7912 53.0405 44.3048 54.3527 42.4779 54.3527H16.7079C14.8811 54.3527 13.3946 53.0405 13.3946 51.4277V49.3857H45.7912V51.4277ZM45.7912 18.3697H16.7079C16.0978 18.3697 15.6035 18.8062 15.6035 19.3447C15.6035 19.8831 16.0978 20.3197 16.7079 20.3197H45.7912V47.4357H13.3946V16.3276C13.3946 14.7147 14.8811 13.4026 16.7079 13.4026H42.4779C44.3048 13.4026 45.7912 14.7147 45.7912 16.3276V18.3697ZM22.7455 37.3227H25.6906V39.9227C25.6906 40.962 26.6485 41.8077 27.8258 41.8077H31.36C32.5373 41.8077 33.4952 40.962 33.4952 39.9227V37.3227H36.4404C37.6177 37.3227 38.5756 36.477 38.5756 35.4377V32.3177C38.5756 31.2783 37.6177 30.4327 36.4404 30.4327H33.4952V27.8326C33.4952 26.7933 32.5373 25.9476 31.36 25.9476H27.8258C26.6485 25.9476 25.6906 26.7933 25.6906 27.8326V30.4327H22.7455C21.5681 30.4327 20.6102 31.2783 20.6102 32.3177V35.4377C20.6102 36.477 21.5681 37.3227 22.7455 37.3227ZM22.8191 32.3827H25.7642C26.9416 32.3827 27.8995 31.537 27.8995 30.4977V27.8976H31.2864V30.4977C31.2864 31.537 32.2443 32.3827 33.4216 32.3827H36.3667V35.3727H33.4216C32.2443 35.3727 31.2864 36.2183 31.2864 37.2577V39.8577H27.8995V37.2577C27.8995 36.2183 26.9416 35.3727 25.7642 35.3727H22.8191V32.3827Z" fill="#FE9015"/>
</svg>
