<svg width="37" height="54" viewBox="0 0 37 54" fill="none" xmlns="http://www.w3.org/2000/svg">
<path d="M34.4859 9.24248C34.9081 8.7516 35.1593 8.14008 35.1593 7.4776V3.31759C35.1593 1.70467 33.6729 0.392578 31.8461 0.392578H6.07607C4.2492 0.392578 2.76279 1.70467 2.76279 3.31759V7.4776C2.76279 8.02373 2.93361 8.53515 3.23004 8.97299C1.42643 9.77614 0.185791 11.4258 0.185791 13.3276V48.4277C0.185791 51.1159 2.66295 53.3027 5.70793 53.3027H31.4779C34.5229 53.3027 37 51.1159 37 48.4277V13.3276C37 11.6186 35.998 10.1132 34.4859 9.24248ZM4.97164 3.31759C4.97164 2.7799 5.46702 2.34258 6.07607 2.34258H31.8461C32.4551 2.34258 32.9505 2.7799 32.9505 3.31759V7.4776C32.9505 8.01528 32.4551 8.4526 31.8461 8.4526C31.8064 8.4526 31.7673 8.45468 31.7287 8.45819C31.6455 8.45494 31.562 8.4526 31.4779 8.4526H28.9009V5.78902C28.9009 5.25056 28.4066 4.81402 27.7965 4.81402C27.1864 4.81402 26.6921 5.25056 26.6921 5.78902V8.4526H23.0106V5.78902C23.0106 5.25056 22.5163 4.81402 21.9062 4.81402C21.2961 4.81402 20.8018 5.25056 20.8018 5.78902V8.4526H17.1203V5.78902C17.1203 5.25056 16.626 4.81402 16.0159 4.81402C15.4058 4.81402 14.9115 5.25056 14.9115 5.78902V8.4526H11.2301V5.78902C11.2301 5.25056 10.7357 4.81402 10.1256 4.81402C9.51555 4.81402 9.02121 5.25056 9.02121 5.78902V8.4526H6.07607C5.46702 8.4526 4.97164 8.01528 4.97164 7.4776V3.31759ZM34.7912 48.4277C34.7912 50.0405 33.3048 51.3527 31.4779 51.3527H5.70793C3.88106 51.3527 2.39465 50.0405 2.39465 48.4277V46.3857H34.7912V48.4277ZM34.7912 15.3697H5.70793C5.09784 15.3697 4.6035 15.8062 4.6035 16.3447C4.6035 16.8831 5.09784 17.3197 5.70793 17.3197H34.7912V44.4357H2.39465V13.3276C2.39465 11.7147 3.88106 10.4026 5.70793 10.4026H31.4779C33.3048 10.4026 34.7912 11.7147 34.7912 13.3276V15.3697ZM11.7455 34.3227H14.6906V36.9227C14.6906 37.962 15.6485 38.8077 16.8258 38.8077H20.36C21.5373 38.8077 22.4952 37.962 22.4952 36.9227V34.3227H25.4404C26.6177 34.3227 27.5756 33.477 27.5756 32.4377V29.3177C27.5756 28.2783 26.6177 27.4327 25.4404 27.4327H22.4952V24.8326C22.4952 23.7933 21.5373 22.9476 20.36 22.9476H16.8258C15.6485 22.9476 14.6906 23.7933 14.6906 24.8326V27.4327H11.7455C10.5681 27.4327 9.61024 28.2783 9.61024 29.3177V32.4377C9.61024 33.477 10.5681 34.3227 11.7455 34.3227ZM11.8191 29.3827H14.7642C15.9416 29.3827 16.8995 28.537 16.8995 27.4977V24.8976H20.2864V27.4977C20.2864 28.537 21.2443 29.3827 22.4216 29.3827H25.3667V32.3727H22.4216C21.2443 32.3727 20.2864 33.2183 20.2864 34.2577V36.8577H16.8995V34.2577C16.8995 33.2183 15.9416 32.3727 14.7642 32.3727H11.8191V29.3827Z" fill="#FE9015"/>
</svg>
