<svg width="40" height="40" viewBox="0 0 40 40" fill="none" xmlns="http://www.w3.org/2000/svg">
<circle cx="20" cy="20" r="19.5" stroke="#C8CBD0"/>
<path fill-rule="evenodd" clip-rule="evenodd" d="M19.6151 25.6649H20.7836C20.7836 25.6649 21.1423 25.6257 21.3166 25.4391C21.4806 25.2722 21.4806 24.9482 21.4806 24.9482C21.4806 24.9482 21.4601 23.4362 22.1878 23.2202C22.9053 23.0042 23.8381 24.6733 24.8118 25.3213C25.5498 25.8122 26.1136 25.7042 26.1136 25.7042L28.7479 25.6649C28.7479 25.6649 30.1214 25.5864 29.4654 24.5555C29.4141 24.4671 29.0861 23.7897 27.5179 22.3955C25.8778 20.9326 26.0931 21.1682 28.0714 18.6449C29.2809 17.1035 29.7626 16.1609 29.6089 15.7584C29.4654 15.3755 28.5736 15.4737 28.5736 15.4737L25.6216 15.4933C25.6216 15.4933 25.4063 15.4639 25.2423 15.562C25.0886 15.6504 24.9861 15.8664 24.9861 15.8664C24.9861 15.8664 24.5146 17.0544 23.8996 18.0755C22.5876 20.2158 22.0546 20.3239 21.8393 20.1962C21.3371 19.882 21.4601 18.9493 21.4601 18.2915C21.4601 16.2199 21.7881 15.3559 20.8246 15.13C20.5068 15.0515 20.2711 15.0024 19.4511 15.0024C18.3953 14.9926 17.5035 15.0024 17.0013 15.238C16.663 15.3951 16.4068 15.7486 16.5605 15.7682C16.7553 15.7977 17.196 15.886 17.4318 16.1904C17.7393 16.5831 17.7188 17.4668 17.7188 17.4668C17.7188 17.4668 17.893 19.9017 17.3088 20.206C16.909 20.4122 16.3658 19.99 15.1973 18.046C14.5925 17.0544 14.1415 15.9548 14.1415 15.9548C14.1415 15.9548 14.0493 15.7486 13.8955 15.6406C13.711 15.5031 13.4445 15.4639 13.4445 15.4639L10.636 15.4835C10.636 15.4835 10.2158 15.4933 10.062 15.67C9.92875 15.8271 10.0518 16.1511 10.0518 16.1511C10.0518 16.1511 12.2453 21.07 14.736 23.554C17.0218 25.8122 19.6151 25.6649 19.6151 25.6649Z" fill="#848992"/>
</svg>
