<svg width="24" height="23" viewBox="0 0 24 23" fill="none" xmlns="http://www.w3.org/2000/svg">
<path d="M12 2.875C7.05 2.875 3 6.75625 3 11.5C3 16.2437 7.05 20.125 12 20.125C16.95 20.125 21 16.2437 21 11.5C21 6.75625 16.95 2.875 12 2.875ZM12 18.4C8.031 18.4 4.8 15.3036 4.8 11.5C4.8 7.69637 8.031 4.6 12 4.6C15.969 4.6 19.2 7.69637 19.2 11.5C19.2 15.3036 15.969 18.4 12 18.4Z" fill="#FE9015"/>
<path fill-rule="evenodd" clip-rule="evenodd" d="M10.8438 6.74203H12.6437V11.3048L15.9423 12.8713L15.143 14.4169L10.8438 12.3751V6.74203Z" fill="#FE9015"/>
</svg>
