<svg width="60" height="60" viewBox="0 0 60 60" fill="none" xmlns="http://www.w3.org/2000/svg">
<g clip-path="url(#clip0_574_2910)">
<path d="M59.1382 11.6805L58.364 10.9064C58.0202 10.5628 57.4631 10.5628 57.1194 10.9064C56.7757 11.2502 56.7757 11.8073 57.1194 12.151L57.8937 12.9252C58.117 13.1484 58.2399 13.4454 58.2399 13.7612C58.2399 14.077 58.117 14.374 57.8937 14.5972C57.892 14.5988 57.8893 14.6015 57.8866 14.6042C57.6637 14.8257 57.3681 14.9475 57.0537 14.9475C56.7378 14.9475 56.4409 14.8245 56.2176 14.6012L52.3601 10.7436L49.2565 7.64002L45.3989 3.78234C45.1756 3.55909 45.0526 3.26214 45.0526 2.94632C45.0526 2.6305 45.1756 2.33355 45.3934 2.1157C45.3965 2.11265 45.3997 2.10949 45.4028 2.10644C45.626 1.88308 45.923 1.76015 46.2388 1.76015C46.5546 1.76015 46.8516 1.88308 47.0748 2.10656L52.6015 7.63311C52.9452 7.97659 53.5023 7.97682 53.8461 7.63311C54.1898 7.28928 54.1898 6.73217 53.8461 6.38846L48.3196 0.86203C47.7638 0.306093 47.0248 0 46.2388 0C45.4528 0 44.7138 0.306093 44.1635 0.856522C44.1605 0.859569 44.1572 0.862616 44.1542 0.865662C43.5986 1.42136 43.2924 2.16035 43.2924 2.94632C43.2924 3.7323 43.5984 4.47128 44.1542 5.02698L47.3892 8.26205L40.6869 14.9643L38.1589 12.4363C37.5867 11.8645 36.6563 11.8643 36.0844 12.4363L28.4812 20.0394C28.4809 20.0396 28.4807 20.0397 28.4806 20.04C28.4805 20.0402 28.4802 20.0403 28.48 20.0405L20.6813 27.8392C20.3376 28.1831 20.3376 28.7402 20.6813 29.0839C21.025 29.4274 21.5821 29.4276 21.926 29.0839L29.1029 21.907L32.0458 24.8499C32.2177 25.0217 32.443 25.1076 32.6682 25.1076C32.8934 25.1076 33.1186 25.0217 33.2905 24.8499C33.6343 24.5061 33.6343 23.949 33.2905 23.6053L30.3476 20.6623L33.0067 18.0032L35.9496 20.9462C36.1216 21.118 36.3468 21.2039 36.572 21.2039C36.7973 21.2039 37.0225 21.118 37.1944 20.9461C37.5381 20.6023 37.5381 20.0452 37.1943 19.7015L34.2514 16.7586L37.1214 13.8886L40.0643 16.8315L43.168 19.9352L46.1109 22.8781L18.9194 50.0703L17.293 48.4439C17.293 48.4438 17.2928 48.4438 17.2927 48.4437L11.5563 42.707C11.5559 42.7067 11.5557 42.7064 11.5553 42.7062L9.92973 41.0806L17.5578 33.4526C17.9015 33.1088 17.9015 32.5517 17.5578 32.208C17.214 31.8645 16.6569 31.8643 16.3132 32.208L8.47754 40.0436C7.90578 40.6156 7.9059 41.5461 8.47766 42.1179L9.68937 43.3296L7.53653 45.4826C6.96477 46.0546 6.96489 46.9851 7.53664 47.5569L9.3677 49.388L0.258027 58.4974C-0.0856834 58.8413 -0.0856834 59.3984 0.258027 59.7421C0.429941 59.914 0.655174 59.9999 0.880408 59.9999C1.10564 59.9999 1.33088 59.914 1.50279 59.7422L10.6122 50.6328L12.4433 52.4638C12.7292 52.7497 13.1048 52.8926 13.4805 52.8926C13.856 52.8926 14.2318 52.7495 14.5178 52.4637L16.6706 50.3108L17.8823 51.5226C18.1682 51.8085 18.5438 51.9513 18.9195 51.9513C19.295 51.9513 19.6708 51.8083 19.9569 51.5226L47.5637 23.9156C48.1356 23.3436 48.1356 22.4131 47.5637 21.8411L45.0358 19.313L51.738 12.6106L54.9731 15.8457C55.5469 16.4193 56.3004 16.7061 57.0538 16.7061C57.8072 16.7061 58.5608 16.4193 59.1344 15.8457C59.1363 15.8438 59.1394 15.8406 59.1423 15.8377C59.6954 15.2825 60.0001 14.5452 60.0001 13.7612C60.0001 12.9752 59.6939 12.2362 59.1382 11.6805ZM13.4804 51.0116L11.2367 48.768C11.236 48.7671 11.2353 48.7663 11.2346 48.7656C11.2339 48.7649 11.233 48.7642 11.2323 48.7635L8.98871 46.5198L10.9341 44.5743L15.426 49.0662L13.4804 51.0116ZM43.7909 18.0685L41.9317 16.2093L48.6341 9.50705L50.493 11.3661L43.7909 18.0685Z" fill="#FE9015"/>
<path d="M33.3098 31.0105L28.9898 26.6906C28.7128 26.4134 28.3445 26.2607 27.9525 26.2607C27.5605 26.2607 27.1922 26.4134 26.9152 26.6904L13.5019 40.1041C13.2247 40.3811 13.072 40.7495 13.072 41.1414C13.072 41.5334 13.2247 41.9017 13.5016 42.1786L17.8217 46.4988C18.0988 46.7757 18.4671 46.9284 18.859 46.9284C19.251 46.9284 19.6193 46.7757 19.8962 46.4988L33.3097 33.085C33.5868 32.808 33.7395 32.4397 33.7395 32.0477C33.7394 31.6557 33.5868 31.2874 33.3098 31.0105ZM18.859 45.0466L14.9538 41.1414L27.9526 28.1425L31.8577 32.0477L18.859 45.0466Z" fill="#FE9015"/>
</g>
<defs>
<clipPath id="clip0_574_2910">
<rect width="60" height="60" fill="white"/>
</clipPath>
</defs>
</svg>
